<svg width="180" height="181" viewBox="0 0 180 181" fill="none" xmlns="http://www.w3.org/2000/svg">
<path d="M95.6083 16.8028C98.3792 11.3648 106.484 12.6539 107.433 18.6698C108.233 23.7523 114.471 25.7823 118.101 22.1372C122.413 17.8252 129.733 21.5445 128.77 27.5752C127.97 32.6577 133.26 36.5103 137.853 34.1691C143.291 31.3982 149.1 37.2067 146.329 42.6448C143.988 47.2234 147.84 52.5281 152.923 51.728C158.954 50.7648 162.673 58.0848 158.361 62.3967C154.716 66.027 156.746 72.2652 161.828 73.0654C167.859 74.0137 169.133 82.1338 163.695 84.8899C159.102 87.231 159.102 93.7804 163.695 96.1068C169.133 98.8777 167.844 106.983 161.828 107.931C156.746 108.731 154.716 114.97 158.361 118.6C162.673 122.912 158.954 130.232 152.923 129.269C147.84 128.469 143.988 133.758 146.329 138.352C149.1 143.79 143.291 149.598 137.853 146.828C133.275 144.486 127.97 148.339 128.77 153.421C129.733 159.452 122.413 163.171 118.101 158.86C114.471 155.214 108.233 157.244 107.433 162.327C106.484 168.358 98.3643 169.632 95.6083 164.194C93.2671 159.6 86.7177 159.6 84.3913 164.194C81.6204 169.632 73.5152 168.343 72.5669 162.327C71.7667 157.244 65.5285 155.214 61.8981 158.86C57.5862 163.171 50.2663 159.452 51.2294 153.421C52.0296 148.339 46.7397 144.486 42.1462 146.828C36.7082 149.598 30.8997 143.79 33.6706 138.352C36.0117 133.773 32.1591 128.469 27.0767 129.269C21.0459 130.232 17.3267 122.912 21.6386 118.6C25.2838 114.97 23.2538 108.731 18.1713 107.931C12.1405 106.983 10.8662 98.8629 16.3043 96.1068C20.8978 93.7656 20.8978 87.2162 16.3043 84.8899C10.8662 82.119 12.1553 74.0137 18.1713 73.0654C23.2538 72.2652 25.2838 66.027 21.6386 62.3967C17.3267 58.0848 21.0459 50.7648 27.0767 51.728C32.1591 52.5281 36.0117 47.2382 33.6706 42.6448C30.8997 37.2067 36.7082 31.3982 42.1462 34.1691C46.7249 36.5103 52.0296 32.6577 51.2294 27.5752C50.2663 21.5445 57.5862 17.8252 61.8981 22.1372C65.5285 25.7823 71.7667 23.7523 72.5669 18.6698C73.5152 12.6391 81.6352 11.3648 84.3913 16.8028C86.7325 21.3963 93.2819 21.3963 95.6083 16.8028Z" fill="#1C1C1B"/>
</svg>
