<svg width="21" height="21" viewBox="0 0 21 21" fill="none" xmlns="http://www.w3.org/2000/svg">
<path d="M18.0168 10.8125C19.607 10.7376 20.8726 9.42974 20.8726 7.82229C20.8726 6.21484 19.5302 4.82441 17.8747 4.82441H16.8607V3.81039C16.8607 2.15493 15.5183 0.8125 13.8628 0.8125C12.2074 0.8125 10.9456 2.08003 10.8726 3.67019C10.7996 2.08003 9.48987 0.8125 7.88242 0.8125C6.27497 0.8125 4.88453 2.15493 4.88453 3.81039V4.82441H3.87243C2.21889 4.82441 0.876465 6.16683 0.876465 7.82229C0.876465 9.47776 2.14399 10.7395 3.73224 10.8125C2.14399 10.8874 0.876465 12.1953 0.876465 13.8027C0.876465 15.4102 2.21889 16.8006 3.87435 16.8006H4.88645V17.8146C4.88645 19.4701 6.22887 20.8125 7.88434 20.8125C9.5398 20.8125 10.8016 19.545 10.8745 17.9548C10.9475 19.545 12.2573 20.8125 13.8647 20.8125C15.4722 20.8125 16.8626 19.4701 16.8626 17.8146V16.8006H17.8767C19.5321 16.8006 20.8745 15.4582 20.8745 13.8027C20.8745 12.1472 19.607 10.8855 18.0188 10.8125H18.0168Z" fill="#F05227"/>
<path d="M14.8876 7.82812L9.54042 13.1753L7.10986 10.7448" stroke="white" stroke-width="2" stroke-linecap="round" stroke-linejoin="round"/>
</svg>
