<svg width="281" height="280" viewBox="0 0 281 280" fill="none" xmlns="http://www.w3.org/2000/svg">
<path d="M140.52 239.988C141.569 262.253 159.879 279.973 182.383 279.973C204.888 279.973 224.354 261.177 224.354 237.999L224.354 223.801L238.55 223.801C261.727 223.801 280.52 205.005 280.52 181.827C280.521 158.648 262.775 140.981 240.513 139.96C262.775 138.938 280.521 120.599 280.521 98.0928C280.521 75.5863 261.727 56.1183 238.55 56.1183L224.354 56.1183L224.354 41.9476C224.354 18.7957 205.56 -3.27663e-06 182.383 -4.28971e-06C159.207 -5.30279e-06 141.542 17.747 140.521 39.9846C139.472 17.747 121.162 -6.96578e-06 98.6576 -7.94948e-06C76.1533 -8.93317e-06 56.6872 18.7957 56.6872 41.9744L56.6872 56.1452L42.4909 56.1452C19.3145 56.1452 0.520505 74.9409 0.520504 98.1196C0.520503 121.298 18.2658 138.965 40.5282 139.987C18.2658 141.008 0.520501 159.347 0.5205 181.853C0.520499 204.36 19.3144 223.828 42.4909 223.828L56.6872 223.828L56.6872 238.026C56.6872 261.204 75.4811 280 98.6576 280C121.834 280 139.499 262.253 140.52 240.015L140.52 239.988Z" fill="#2172B9"/>
</svg>
