<svg width="21" height="21" viewBox="0 0 21 21" fill="none" xmlns="http://www.w3.org/2000/svg">
<path d="M17.4137 9.89629L17.4275 10.4813L17.4161 10.7287C18.7878 10.7918 19.8744 11.8757 19.8744 13.3027C19.8744 14.7281 18.7185 15.8839 17.2932 15.8839H16.2791H15.8625V16.3006V17.3146C15.8625 18.7356 14.6629 19.8958 13.2813 19.8958C11.8982 19.8958 10.7701 18.8051 10.7073 17.4357H9.87482C9.81177 18.8094 8.72764 19.8958 7.30084 19.8958C5.8755 19.8958 4.71962 18.74 4.71962 17.3146V16.3006V15.8839H4.30295H3.29086C1.86982 15.8839 0.709635 14.6844 0.709635 13.3027C0.709635 11.9199 1.8002 10.7932 3.16837 10.7287L3.16786 9.89627C1.79621 9.83325 0.709635 8.74926 0.709635 7.32229C0.709635 5.89677 1.86568 4.74108 3.28894 4.74108H4.30103H4.7177V4.32441V3.31039C4.7177 1.88935 5.91726 0.729167 7.29892 0.729167C8.682 0.729167 9.81005 1.8199 9.8729 3.18929L10.7054 3.18929C10.7684 1.81557 11.8525 0.729167 13.2793 0.729167C14.7047 0.729167 15.8606 1.88504 15.8606 3.31039V4.32441V4.74108H16.2772H17.2912C18.7123 4.74108 19.8725 5.94063 19.8725 7.32229C19.8725 8.70529 18.7836 9.83177 17.4137 9.89629Z" stroke="#9AA4B2" stroke-width="0.833333"/>
</svg>
