<svg width="122" height="120" viewBox="0 0 122 120" fill="none" xmlns="http://www.w3.org/2000/svg">
<path d="M58.4631 14.1967C62.1422 10.5176 68.1071 10.5176 71.7861 14.1967L116.532 58.9428H13.717L58.4631 14.1967Z" fill="#F05227"/>
<path d="M65.0935 90.9102L13.7502 58.8794L116.437 58.8794L65.0935 90.9102Z" fill="#2172B9"/>
<path d="M81.7307 26.0502C81.2996 25.9814 80.8955 26.2743 80.8267 26.7054L79.3216 36.1398L71.8805 30.1467C71.7159 30.0157 71.5093 29.9535 71.3003 29.9761C71.0928 29.9989 70.9013 30.1041 70.77 30.2662L67.7985 33.9565C67.5246 34.2957 67.5789 34.7923 67.9183 35.0654L75.3042 41.0138L66.4356 44.3691C66.0289 44.5233 65.8227 44.9783 65.9768 45.3858L67.6525 49.8174C67.726 50.013 67.8737 50.1723 68.0647 50.2579C68.2565 50.3437 68.4729 50.3489 68.6692 50.2763L77.6057 46.8959L76.1006 56.3303C76.0319 56.7614 76.3248 57.1655 76.7559 57.2343L81.4335 57.9805C81.8646 58.0493 82.2687 57.7564 82.3375 57.3253L83.8425 47.8909L91.2837 53.884C91.4476 54.0141 91.6534 54.0762 91.8639 54.0546C92.0714 54.0317 92.2628 53.9266 92.3942 53.7645L95.3656 50.0742C95.6396 49.735 95.5852 49.2384 95.2459 48.9653L87.86 43.0169L96.7285 39.6616C97.1353 39.5074 97.3414 39.0524 97.1874 38.6449L95.5116 34.2133C95.4381 34.0177 95.2904 33.8584 95.0994 33.7728C94.9062 33.686 94.6906 33.6809 94.495 33.7544L85.5584 37.1348L87.0635 27.7004C87.1323 27.2693 86.8394 26.8652 86.4083 26.7964L81.7307 26.0502Z" fill="#F5A0C2"/>
<path d="M73.7165 69.9996C74.3392 69.3578 75.4185 69.8881 75.2916 70.7714C75.1843 71.5176 75.9701 72.0711 76.6358 71.7174C77.4257 71.2997 78.2901 72.1364 77.8949 72.9393C77.5635 73.6164 78.1379 74.3842 78.8822 74.2546C79.7632 74.1013 80.3258 75.1653 79.7031 75.8072C79.1777 76.3472 79.4882 77.2563 80.2344 77.3636C81.1204 77.4891 81.3252 78.6745 80.5354 79.0922C79.8683 79.4432 79.8833 80.4043 80.5604 80.7357C81.3639 81.1288 81.1919 82.3207 80.3115 82.4719C79.5672 82.6015 79.2846 83.5186 79.8273 84.0426C80.4692 84.6653 79.9389 85.7445 79.0556 85.6177C78.3094 85.5103 77.7559 86.2962 78.1096 86.9618C78.5273 87.7517 77.6905 88.6161 76.8877 88.221C76.2106 87.8896 75.4428 88.464 75.5724 89.2082C75.7256 90.0893 74.6616 90.6519 74.0198 90.0292C73.4797 89.5038 72.5707 89.8143 72.4633 90.5604C72.3379 91.4464 71.1524 91.6513 70.7348 90.8614C70.3838 90.1943 69.4227 90.2093 69.0913 90.8864C68.6982 91.69 67.5062 91.5179 67.355 90.6375C67.2255 89.8933 66.3084 89.6106 65.7844 90.1534C65.1617 90.7952 64.0824 90.2649 64.2093 89.3816C64.3166 88.6354 63.5308 88.0819 62.8651 88.4356C62.0752 88.8533 61.2108 88.0166 61.606 87.2137C61.9374 86.5366 61.363 85.7689 60.6187 85.8984C59.7377 86.0517 59.1751 84.9877 59.7978 84.3458C60.3232 83.8058 60.0127 82.8967 59.2665 82.7894C58.3805 82.664 58.1757 81.4785 58.9655 81.0608C59.6326 80.7098 59.6176 79.7487 58.9405 79.4173C58.137 79.0242 58.309 77.8323 59.1894 77.6811C59.9337 77.5515 60.2163 76.6345 59.6736 76.1105C59.0317 75.4878 59.562 74.4085 60.4453 74.5354C61.1915 74.6427 61.745 73.8568 61.3913 73.1912C60.9736 72.4013 61.8103 71.5369 62.6132 71.932C63.2903 72.2634 64.0581 71.689 63.9285 70.9448C63.7753 70.0637 64.8393 69.5011 65.4811 70.1238C66.0212 70.6492 66.9302 70.3388 67.0376 69.5926C67.163 68.7066 68.3485 68.5017 68.7661 69.2916C69.1171 69.9587 70.0782 69.9437 70.4096 69.2666C70.8027 68.4631 71.9947 68.6351 72.1459 69.5155C72.2754 70.2597 73.1925 70.5424 73.7165 69.9996Z" fill="#5ECAE4"/>
<path d="M6.7772 21.7892L9.8213 23.9305L13.4438 23.0762C13.9535 22.9561 14.3412 23.5292 14.0399 23.9576L11.8985 27.0017L12.7528 30.6242C12.873 31.1339 12.2998 31.5215 11.8714 31.2203L8.82733 29.0789L5.20487 29.9332C4.69512 30.0533 4.30747 29.4802 4.60877 29.0518L6.75014 26.0077L5.89586 22.3852C5.77568 21.8755 6.34882 21.4879 6.7772 21.7892Z" fill="#0D5A33"/>
<path d="M27.5176 9.93337C28.556 9.15743 28.813 7.69794 28.0797 6.61373C27.3464 5.52953 25.8067 5.2041 24.6901 5.95931L24.0061 6.4219L23.5435 5.73796C22.7883 4.62137 21.2705 4.32832 20.1539 5.08353C19.0373 5.83874 18.7645 7.26928 19.4407 8.37512C18.6661 7.33586 17.2044 7.07844 16.1202 7.81175C15.036 8.54506 14.7106 10.0848 15.4658 11.2014L15.9284 11.8853L15.2457 12.3471C14.1304 13.1014 13.8374 14.6192 14.5926 15.7358C15.3478 16.8524 16.7783 17.1252 17.8829 16.4499C16.8458 17.225 16.5875 18.6853 17.3208 19.7695C18.0541 20.8537 19.5939 21.1792 20.7104 20.424L21.3931 19.9622L21.8557 20.6462C22.6109 21.7628 24.1287 22.0558 25.2453 21.3006C26.3619 20.5454 26.6347 19.1149 25.9585 18.009C26.7332 19.0483 28.1948 19.3057 29.279 18.5724C30.3632 17.8391 30.6887 16.2993 29.9334 15.1827L29.4709 14.4988L30.1548 14.0362C31.2714 13.281 31.5644 11.7632 30.8092 10.6466C30.054 9.52998 28.6235 9.25717 27.5189 9.93249L27.5176 9.93337Z" fill="#93CF98"/>
<path d="M117.505 21.0594C116.107 20.3819 114.185 21.2459 112.513 23.0853C112.114 23.5232 111.391 23.322 111.276 22.7413C110.793 20.3009 109.593 18.5705 108.046 18.4291C105.778 18.2217 103.623 21.512 103.233 25.7774C102.843 30.0428 104.366 33.6679 106.634 33.8754C107.251 33.9323 107.859 33.73 108.426 33.319C108.791 33.0553 109.316 33.2013 109.491 33.6153C109.765 34.2583 110.181 34.7468 110.738 35.0165C112.788 36.0099 115.964 33.6912 117.832 29.8368C119.7 25.9824 119.553 22.0537 117.503 21.059L117.505 21.0594Z" fill="#F9C130"/>
<path d="M50.462 47.7787C51.4529 46.306 51.548 44.3082 50.4765 42.6896C49.2666 40.8591 46.869 40.1494 44.8598 41.0229C43.0792 41.7958 42.0699 43.5225 42.0979 45.2974C42.1019 45.5782 41.7943 45.7451 41.561 45.5887C40.0868 44.5985 38.089 44.5035 36.4704 45.575C34.6414 46.784 33.9309 49.1802 34.8051 51.1908C35.578 52.9714 37.3047 53.9808 39.0796 53.9528C39.3605 53.9487 39.5274 54.2564 39.3709 54.4896C38.38 55.9624 38.2857 57.9617 39.3572 59.5803C40.5663 61.4093 42.9639 62.119 44.9754 61.2462C46.756 60.4733 47.7653 58.7466 47.7373 56.9717C47.7333 56.6909 48.041 56.5239 48.2742 56.6804C49.747 57.6714 51.7448 57.7664 53.3634 56.6949C55.1923 55.4859 55.902 53.0882 55.0293 51.0768C54.2564 49.2961 52.5297 48.2868 50.7548 48.3148C50.4739 48.3188 50.307 48.0112 50.4635 47.7779L50.462 47.7787Z" fill="#93CF98"/>
<path fill-rule="evenodd" clip-rule="evenodd" d="M13.717 58.4102L65.1244 89.2056L116.532 58.4102V110.58C116.532 115.783 112.314 120.001 107.111 120.001H23.1373C17.9344 120.001 13.7166 115.783 13.7166 110.58V58.4102H13.717Z" fill="#F9C130"/>
</svg>
