<svg width="33" height="33" viewBox="0 0 33 33" fill="none" xmlns="http://www.w3.org/2000/svg">
<path d="M26.9712 19.1908C29.3045 19.6997 31.6461 18.2961 32.2702 15.9671C32.8943 13.6381 31.4888 11.1023 29.09 10.4595L27.6207 10.0658L28.0144 8.59662C28.6571 6.19804 27.233 3.7318 24.8342 3.08904C22.4354 2.44628 20.115 3.79288 19.3919 6.06852C19.9035 3.73621 18.4977 1.39117 16.1684 0.767047C13.8392 0.142929 11.3032 1.5481 10.6605 3.94668L10.2669 5.41588L8.8003 5.02292C6.40427 4.3809 3.9379 5.8047 3.2952 8.20329C2.6525 10.6019 3.99933 12.9222 6.27241 13.6446C3.94192 13.1364 1.59749 14.5392 0.973432 16.8682C0.349373 19.1973 1.75478 21.7331 4.15359 22.3758L5.62015 22.7688L5.22648 24.238C4.58378 26.6366 6.00782 29.1028 8.40664 29.7456C10.8054 30.3883 13.1259 29.0417 13.849 26.7661C13.3374 29.0984 14.7432 31.4434 17.0724 32.0676C19.4017 32.6917 21.9376 31.2865 22.5803 28.8879L22.974 27.4187L24.4433 27.8124C26.8421 28.4552 29.3085 27.0314 29.9512 24.6328C30.5939 22.2342 29.2471 19.9139 26.974 19.1915L26.9712 19.1908Z" fill="#1C1C1B"/>
</svg>
