<svg width="289" height="48" viewBox="0 0 289 48" fill="none" xmlns="http://www.w3.org/2000/svg">
<path d="M41.6506 23.1873C45.8775 20.9793 48.6617 16.3836 48.2053 11.1887C47.6937 5.31614 42.9412 0.568316 37.0779 0.0566577C31.883 -0.399686 27.2873 2.38447 25.0793 6.61142C24.729 7.2798 23.7886 7.2798 23.4383 6.61142C21.2257 2.38447 16.63 -0.399686 11.4351 0.0566577C5.56712 0.568316 0.819293 5.31614 0.307634 11.1841C-0.14871 16.379 2.63545 20.9747 6.8624 23.1827C7.53078 23.533 7.53078 24.4734 6.8624 24.8237C2.63545 27.0317 -0.14871 31.632 0.307634 36.8269C0.819293 42.6949 5.57173 47.4427 11.4397 47.959C16.6346 48.4153 21.2303 45.6311 23.4383 41.4042C23.7886 40.7358 24.729 40.7358 25.0793 41.4042C27.2873 45.6311 31.883 48.4153 37.0779 47.959C42.9459 47.4473 47.6937 42.6949 48.2099 36.8269C48.6663 31.632 45.8821 27.0363 41.6552 24.8283C40.9868 24.478 40.9868 23.5376 41.6552 23.1873H41.6506Z" fill="#F05227"/>
<path d="M281.651 23.1873C285.878 20.9793 288.662 16.3836 288.205 11.1887C287.694 5.31614 282.941 0.568316 277.078 0.0566577C271.883 -0.399686 267.287 2.38447 265.079 6.61142C264.729 7.2798 263.789 7.2798 263.438 6.61142C261.226 2.38447 256.63 -0.399686 251.435 0.0566577C245.567 0.568316 240.819 5.31614 240.308 11.1841C239.851 16.379 242.635 20.9747 246.862 23.1827C247.531 23.533 247.531 24.4734 246.862 24.8237C242.635 27.0317 239.851 31.632 240.308 36.8269C240.819 42.6949 245.572 47.4427 251.44 47.959C256.635 48.4153 261.23 45.6311 263.438 41.4042C263.789 40.7358 264.729 40.7358 265.079 41.4042C267.287 45.6311 271.883 48.4153 277.078 47.959C282.946 47.4473 287.694 42.6949 288.21 36.8269C288.666 31.632 285.882 27.0363 281.655 24.8283C280.987 24.478 280.987 23.5376 281.655 23.1873H281.651Z" fill="#F05227"/>
</svg>
