<svg width="178" height="177" viewBox="0 0 178 177" fill="none" xmlns="http://www.w3.org/2000/svg">
<path fill-rule="evenodd" clip-rule="evenodd" d="M78.4806 168.36C80.8193 170.219 83.4223 171.84 86.2749 173.169C102.932 180.942 123.179 175.506 133.73 160.454C135.536 157.876 136.98 155.171 138.076 152.391C141.045 152.052 144.033 151.358 146.991 150.28C164.265 143.999 174.739 125.84 171.556 107.736C171.01 104.631 170.115 101.691 168.921 98.9466C170.777 96.6101 172.396 94.0101 173.724 91.161C181.504 74.4926 176.069 54.2474 161.022 43.7169C158.44 41.908 155.73 40.4629 152.946 39.3663C152.606 36.4012 151.912 33.4171 150.836 30.4632C144.551 13.1759 126.391 2.704 108.303 5.8976C105.202 6.44327 102.267 7.3364 99.5258 8.52729C97.1842 6.665 94.5775 5.04062 91.7204 3.70969C75.0635 -4.06257 54.8238 1.36065 44.2847 16.42C42.4754 19.0018 41.0298 21.7126 39.933 24.4967C36.9601 24.8356 33.968 25.5301 31.0063 26.6092C13.7314 32.891 3.25425 51.0362 6.45103 69.1361C6.9971 72.2395 7.89129 75.1771 9.08376 77.9202C7.22368 80.2602 5.60112 82.8644 4.27158 85.7179C-3.50196 102.374 1.93326 122.619 16.9861 133.169C19.564 134.975 22.2704 136.419 25.0501 137.515C25.3897 140.483 26.0838 143.47 27.1609 146.426C33.4424 163.7 51.6024 174.172 69.7075 170.988C72.8067 170.443 75.7406 169.55 78.4806 168.36Z" fill="#F9C130"/>
</svg>
