<svg width="281" height="280" viewBox="0 0 281 280" fill="none" xmlns="http://www.w3.org/2000/svg">
<path d="M241.473 135.214C266.13 122.334 282.371 95.5257 279.709 65.2218C276.724 30.9652 249.001 3.26961 214.799 0.284931C184.495 -2.37708 157.687 13.8639 144.807 38.521C142.763 42.4199 137.278 42.4199 135.234 38.521C122.328 13.8639 95.5193 -2.37708 65.2154 0.284931C30.9858 3.26961 3.29011 30.9652 0.305438 65.1949C-2.35657 95.4988 13.8844 122.307 38.5415 135.187C42.4404 137.23 42.4404 142.716 38.5415 144.759C13.8844 157.639 -2.35657 184.474 0.305438 214.778C3.29011 249.008 31.0126 276.703 65.2423 279.715C95.5462 282.377 122.354 266.136 135.234 241.479C137.278 237.58 142.763 237.58 144.807 241.479C157.687 266.136 184.495 282.377 214.799 279.715C249.028 276.73 276.724 249.008 279.736 214.778C282.398 184.474 266.157 157.666 241.499 144.786C237.601 142.743 237.601 137.257 241.499 135.214H241.473Z" fill="#F05227"/>
</svg>
