<svg width="120" height="120" viewBox="0 0 120 120" fill="none" xmlns="http://www.w3.org/2000/svg">
<path d="M15.521 60.1382C5.30483 57.2366 -0.948551 50.9518 0.299834 40.4237C1.90327 26.9137 11.6613 23.324 24.0993 24.1727C24.0993 22.0166 24.065 20.2161 24.0993 18.427C24.3055 8.74751 30.6276 1.4076 39.7557 0.226339C48.9067 -0.954923 56.6833 4.46973 59.3977 13.8969C59.5008 14.2524 59.7184 14.5621 60.1307 15.3993C61.276 10.3531 63.4636 6.38496 67.3233 3.5637C71.183 0.742429 75.5466 -0.622325 80.2652 0.272223C93.3332 2.7609 96.689 12.0161 95.8414 24.1613C97.8801 24.1613 99.5637 24.1498 101.259 24.1613C111.131 24.276 118.438 30.4116 119.813 39.7356C121.118 48.5664 115.495 56.6632 106.126 59.4386C105.771 59.5418 105.439 59.7367 104.603 60.1152C109.551 61.3653 113.559 63.4411 116.377 67.3175C119.252 71.2741 120.466 75.7125 119.744 80.5407C118.919 86.0112 116.068 90.2317 111.406 93.2823C106.733 96.3444 101.431 95.8627 95.7498 96.0004C95.7498 98.9134 96.059 101.677 95.6925 104.361C94.4785 113.066 87.5379 119.534 79.2574 119.97C70.2782 120.451 63.0284 115.164 60.5774 106.345C60.4743 105.978 60.4056 105.611 60.1651 104.59C56.3512 116.288 48.9296 122.344 37.0871 119.155C25.7829 116.116 23.3434 106.815 24.1566 95.6907C20.9268 95.6907 17.949 96.0807 15.1201 95.6219C6.47304 94.1998 0.494537 87.3072 0.0249606 78.6943C-0.42171 70.5516 5.16739 63.0741 13.5052 60.6886C14.0435 60.5281 14.5818 60.379 15.521 60.1038V60.1382Z" fill="#F5A0C2"/>
</svg>
