<svg width="334" height="36" viewBox="0 0 334 36" fill="none" xmlns="http://www.w3.org/2000/svg">
<g clip-path="url(#clip0_5367_55699)">
<mask id="mask0_5367_55699" style="mask-type:luminance" maskUnits="userSpaceOnUse" x="0" y="0" width="101" height="36">
<path d="M100.967 0H0.255859V35.69H100.967V0Z" fill="white"/>
</mask>
<g mask="url(#mask0_5367_55699)">
<path d="M8.08105 0.0351562C8.08105 1.94198 8.08105 3.0483 8.08105 4.98211C15.2767 5.40485 19.8548 10.9994 19.8548 17.8442C19.8548 24.689 15.2767 30.2835 8.08105 30.7063C8.08105 32.757 8.08105 33.8453 8.08105 35.6532C18.7125 35.6532 25.5663 27.6751 25.5663 17.8442C25.5663 8.01324 18.7125 0.0351562 8.08105 0.0351562Z" fill="#E12726"/>
<path d="M1.69526 17.898C1.51537 17.7181 1.39844 17.4662 1.39844 17.1784C1.39844 16.8906 1.50637 16.6747 1.66827 16.5038C1.90213 16.27 2.18995 16.207 2.51375 16.207V16.5128C2.22593 16.5128 2.01006 16.5668 1.83917 16.7377C1.72224 16.8546 1.65928 17.0165 1.65928 17.1694C1.65928 17.3763 1.73123 17.5472 1.85716 17.6821C1.99207 17.808 2.18096 17.889 2.42381 17.889C2.6037 17.889 2.7656 17.853 2.90951 17.772C3.06241 17.6821 3.17035 17.5292 3.29627 17.3403L3.58409 16.8546C3.737 16.6118 3.91689 16.4319 4.0518 16.3599C4.19571 16.279 4.35761 16.261 4.5465 16.261C4.82533 16.261 5.07717 16.3689 5.25706 16.5488C5.41896 16.7197 5.5089 16.9446 5.5089 17.2054C5.5089 17.4932 5.42795 17.7001 5.25706 17.871C5.05918 18.0689 4.78935 18.1408 4.41158 18.1408V17.844C4.75337 17.844 4.91527 17.79 5.06818 17.6461C5.1941 17.5292 5.24807 17.3673 5.24807 17.2054C5.24807 17.0165 5.1941 16.8636 5.08616 16.7557C4.95125 16.6118 4.74438 16.5578 4.55549 16.5578C4.40259 16.5578 4.27666 16.5758 4.16873 16.6477C4.0608 16.7107 3.95286 16.8456 3.83594 17.0345L3.53912 17.5202C3.38621 17.772 3.2423 17.9429 3.05342 18.0419C2.87353 18.1498 2.64867 18.1948 2.4328 18.1948C2.14498 18.1948 1.87514 18.0868 1.69526 17.907V17.898Z" fill="#2E2A25"/>
<path d="M1.46094 18.7715H5.44548V19.0683H1.46094V18.7715Z" fill="#2E2A25"/>
<path d="M1.46094 21.4158H4.51006C4.99576 21.4158 5.22962 21.1459 5.22962 20.8042C5.22962 20.4624 4.99576 20.1925 4.51006 20.1925H1.46094V19.8867H5.44548V20.1925H5.12168C5.21163 20.2375 5.31056 20.3364 5.36453 20.3994C5.45448 20.5343 5.51744 20.6782 5.51744 20.8761C5.51744 21.119 5.4185 21.3168 5.26559 21.4697C5.10369 21.6316 4.88783 21.7126 4.51006 21.7126H1.46094V21.4158Z" fill="#2E2A25"/>
<path d="M3.45817 26.4173V25.9136C3.45817 25.6978 3.4042 25.5449 3.26928 25.401C3.12537 25.2481 2.85554 25.1671 2.54973 25.1671C2.02805 25.1671 1.67727 25.347 1.67727 25.7787C1.67727 26.1745 2.02805 26.4173 2.46878 26.4173H3.45817ZM1.4614 26.4173H1.83917C1.73123 26.3724 1.61431 26.2644 1.56933 26.2105C1.47039 26.0845 1.39844 25.9406 1.39844 25.7158C1.39844 25.4909 1.47939 25.284 1.63229 25.1311C1.7852 24.9872 2.10001 24.8613 2.54073 24.8613C2.9185 24.8613 3.2423 24.9692 3.44917 25.1851C3.62906 25.383 3.71001 25.5988 3.71001 25.9226V26.4173H4.48354C4.97823 26.4173 5.24807 26.2195 5.24807 25.8057C5.24807 25.6438 5.1851 25.5089 5.08616 25.41C4.93326 25.2571 4.76236 25.2121 4.45655 25.2121V24.9063C4.75337 24.9063 5.04119 24.9692 5.25706 25.1761C5.41896 25.338 5.49991 25.5269 5.49991 25.7967C5.49991 26.1025 5.40997 26.3094 5.26605 26.4533C5.09516 26.6242 4.85231 26.7052 4.48354 26.7052H1.4614V26.3993V26.4173Z" fill="#2E2A25"/>
<path d="M5.05926 28.8453C5.1582 28.7463 5.23915 28.6024 5.23915 28.4315C5.23915 28.2696 5.18518 28.1257 5.07725 28.0178C4.94233 27.8829 4.75345 27.8109 4.45663 27.8109H2.44187C2.14506 27.8109 1.95617 27.8829 1.82126 28.0178C1.72232 28.1257 1.65936 28.2696 1.65936 28.4315C1.65936 28.6114 1.74031 28.7463 1.84824 28.8453C2.0731 29.0521 2.49584 29.0701 3.44925 29.0701C4.40266 29.0701 4.8254 29.0521 5.05026 28.8453H5.05926ZM1.66835 29.0701C1.51544 28.9352 1.39852 28.7463 1.39852 28.4855C1.39852 28.2876 1.43449 28.1437 1.53343 28.0088C1.57841 27.9368 1.68634 27.8469 1.76729 27.8019H0.283203V27.4961H5.44602V27.8019H5.12222C5.21217 27.8469 5.3111 27.9458 5.36507 28.0088C5.46401 28.1437 5.51798 28.2876 5.51798 28.4855C5.51798 28.7103 5.41904 28.9172 5.24814 29.0701C4.9873 29.313 4.5016 29.3669 3.45825 29.3669C2.41489 29.3669 1.93818 29.304 1.67734 29.0701H1.66835Z" fill="#2E2A25"/>
<path d="M5.05918 31.3012C5.15812 31.2112 5.23907 31.0673 5.23907 30.8784C5.23907 30.6896 5.15812 30.5456 5.05918 30.4557C4.82533 30.2488 4.41158 30.2218 3.45817 30.2218C2.50476 30.2218 2.09101 30.2488 1.85716 30.4557C1.74922 30.5456 1.66827 30.6896 1.66827 30.8784C1.66827 31.0673 1.74922 31.2112 1.85716 31.3012C2.08202 31.508 2.50476 31.535 3.45817 31.535C4.41158 31.535 4.83432 31.508 5.05918 31.3012ZM1.67727 31.526C1.50637 31.3731 1.39844 31.1663 1.39844 30.8694C1.39844 30.5726 1.50637 30.3568 1.67727 30.2128C1.93811 29.979 2.41481 29.916 3.44917 29.916C4.48354 29.916 4.96024 29.979 5.23008 30.2128C5.40097 30.3658 5.5089 30.5816 5.5089 30.8694C5.5089 31.1573 5.40097 31.3821 5.23008 31.526C4.96924 31.7599 4.49253 31.8229 3.44917 31.8229C2.40582 31.8229 1.93811 31.7599 1.67727 31.526Z" fill="#2E2A25"/>
<path d="M5.23861 33.6219C5.23861 33.1092 4.9328 32.8124 4.42911 32.8124H1.46094V32.5156H5.44548V32.8124H5.02274C5.0947 32.8394 5.20263 32.9113 5.2476 32.9473C5.43649 33.1272 5.50844 33.3701 5.50844 33.6579H5.23861V33.6309V33.6219Z" fill="#2E2A25"/>
<path d="M5.05918 35.1594C5.15812 35.0604 5.23907 34.9255 5.23907 34.7366C5.23907 34.5477 5.15812 34.4038 5.05918 34.3049C4.85231 34.116 4.48354 34.08 3.71001 34.071V35.3842C4.48354 35.3842 4.85231 35.3482 5.05918 35.1504V35.1594ZM3.45817 34.08C2.50476 34.08 2.09101 34.116 1.85716 34.3229C1.74922 34.4128 1.66827 34.5657 1.66827 34.7636C1.66827 34.9165 1.71324 35.0874 1.83017 35.1953C1.96509 35.3392 2.18096 35.4022 2.46878 35.4022V35.699C2.07302 35.699 1.84816 35.6091 1.65028 35.4202C1.48838 35.2493 1.39844 35.0154 1.39844 34.7636C1.39844 34.4668 1.50637 34.2509 1.67727 34.098C1.93811 33.8642 2.41481 33.7832 3.44917 33.7832C4.48354 33.7832 4.96024 33.8462 5.23008 34.089C5.40097 34.2419 5.5089 34.4578 5.5089 34.7456C5.5089 35.0334 5.40097 35.2493 5.23008 35.4022C4.96924 35.6451 4.49253 35.699 3.44917 35.699V34.08H3.45817Z" fill="#2E2A25"/>
<path d="M4.31264 1.619C4.48354 1.619 4.60946 1.57403 4.69041 1.49308C4.75337 1.42112 4.79834 1.32218 4.79834 1.22325C4.79834 1.09732 4.73538 0.98939 4.63644 0.917434C4.45655 0.809501 4.0518 0.800507 3.45817 0.800507C2.86453 0.800507 2.45978 0.800507 2.27989 0.917434C2.17196 0.980396 2.12699 1.09732 2.12699 1.22325C2.12699 1.32218 2.15397 1.42112 2.22593 1.49308C2.30688 1.57403 2.4328 1.619 2.6037 1.619H4.32164H4.31264ZM1.4614 1.64599H1.76721C1.68626 1.60101 1.56034 1.4661 1.51537 1.38515C1.4524 1.27721 1.39844 1.12431 1.39844 0.980396C1.39844 0.683579 1.47939 0.458717 1.71324 0.278828C2.03704 0.0179889 2.5947 0 3.45817 0C4.32164 0 4.8703 0.0179889 5.20309 0.278828C5.41896 0.458717 5.5089 0.674584 5.5089 0.980396C5.5089 1.12431 5.47293 1.26822 5.40097 1.38515C5.356 1.4661 5.27505 1.55604 5.1851 1.619H6.26444V2.41951H1.4614V1.64599Z" fill="#2E2A25"/>
<path d="M4.63624 4.5068C4.72618 4.44384 4.79814 4.3449 4.79814 4.20999C4.79814 4.07507 4.73518 3.97613 4.63624 3.90418C4.5283 3.81423 4.22249 3.78725 3.80875 3.78725V4.62373C4.2135 4.62373 4.51931 4.60574 4.63624 4.5068ZM3.22411 3.77825C2.77438 3.77825 2.4236 3.80524 2.27969 3.89518C2.18974 3.95814 2.12678 4.06608 2.12678 4.20099C2.12678 4.33591 2.18075 4.42585 2.27969 4.5068C2.35165 4.56976 2.51355 4.60574 2.63947 4.60574V5.39725C2.30667 5.37927 1.97388 5.28932 1.72203 5.06446C1.49717 4.85759 1.40723 4.55178 1.40723 4.20099C1.40723 3.83222 1.48818 3.58037 1.73103 3.33752C2.07282 2.99574 2.73841 2.96875 3.45796 2.96875C4.17752 2.96875 4.8521 3.00473 5.19389 3.33752C5.43674 3.58037 5.5087 3.8682 5.5087 4.192C5.5087 4.5158 5.44574 4.81262 5.19389 5.04647C4.78914 5.43323 3.97964 5.40625 3.2331 5.40625V3.76026L3.22411 3.77825Z" fill="#2E2A25"/>
<path d="M1.73103 7.8879C1.48818 7.64505 1.40723 7.35723 1.40723 7.01544C1.40723 6.67365 1.52416 6.34085 1.73103 6.13398C1.97388 5.90013 2.25271 5.7832 2.63047 5.7832V6.57471C2.46857 6.57471 2.34265 6.61968 2.25271 6.70963C2.17176 6.78158 2.12678 6.9075 2.12678 7.01544C2.12678 7.14136 2.15377 7.2313 2.24371 7.32125C2.31567 7.39321 2.4326 7.43818 2.55852 7.43818C2.66645 7.43818 2.76539 7.42019 2.85533 7.35723C2.94528 7.29427 3.01723 7.18633 3.0802 7.04242L3.31405 6.51175C3.43098 6.24191 3.59288 6.04404 3.77277 5.92711C3.91668 5.83716 4.09657 5.79219 4.32143 5.79219C4.70819 5.79219 4.96004 5.92711 5.1759 6.14298C5.40077 6.35884 5.5087 6.67365 5.5087 7.00644C5.5087 7.33924 5.40077 7.64505 5.21188 7.84293C5.00501 8.0498 4.72618 8.18472 4.32143 8.18472V7.4022C4.49233 7.4022 4.60026 7.36622 4.68121 7.28527C4.76216 7.21332 4.79814 7.11438 4.79814 7.00644C4.79814 6.88952 4.75316 6.78158 4.6902 6.70963C4.61825 6.63767 4.51031 6.5927 4.38439 6.5927C4.28545 6.5927 4.2135 6.61069 4.15054 6.65566C4.06959 6.70963 3.98864 6.81756 3.92567 6.95248L3.70081 7.48315C3.58389 7.75298 3.44897 7.93287 3.26009 8.06779C3.10718 8.17572 2.88232 8.23868 2.61248 8.23868C2.21673 8.23868 1.9379 8.08578 1.73103 7.87891V7.8879Z" fill="#2E2A25"/>
<path d="M1.46094 8.75195H5.34654V9.55246H1.46094V8.75195Z" fill="#2E2A25"/>
<path d="M1.46094 14.7959H4.32117C4.62699 14.7959 4.78889 14.625 4.78889 14.4002C4.78889 14.1753 4.63598 14.0134 4.32117 14.0134H1.46094V13.2129H5.44548V13.9864H5.14866C5.23861 14.0584 5.34654 14.1483 5.40051 14.2473C5.47246 14.3642 5.50844 14.5081 5.50844 14.652C5.50844 14.9758 5.4095 15.1917 5.20263 15.3806C5.02274 15.5425 4.79788 15.6054 4.33916 15.6054H1.46094V14.8049V14.7959Z" fill="#2E2A25"/>
<path d="M4.45663 23.9346C4.75345 23.9346 4.94233 23.8627 5.07725 23.7278C5.18518 23.6198 5.23915 23.4759 5.23915 23.305C5.23915 23.1341 5.1582 22.9812 5.05926 22.8913C4.8254 22.6844 4.56456 22.6574 3.61115 22.6574C2.65774 22.6574 2.38791 22.6844 2.16304 22.8913C2.06411 22.9812 1.98316 23.1341 1.98316 23.305C1.98316 23.4759 2.03712 23.6198 2.14506 23.7278C2.27997 23.8627 2.46886 23.9346 2.76567 23.9346H4.47462H4.45663ZM0.562031 23.9526C0.391136 23.7997 0.283203 23.5749 0.283203 23.305C0.283203 23.0352 0.364153 22.8013 0.526053 22.6304C0.723931 22.4416 0.966781 22.3786 1.35354 22.3786V22.6754C1.08371 22.6754 0.867842 22.7114 0.705942 22.8643C0.598009 22.9722 0.544042 23.1341 0.544042 23.296C0.544042 23.4849 0.624992 23.6288 0.723931 23.7188C0.90382 23.8897 1.21863 23.9346 1.81226 23.9346H2.06411C1.98316 23.9077 1.87522 23.7997 1.82126 23.7278C1.72232 23.5929 1.68634 23.4489 1.68634 23.2511C1.68634 23.0262 1.78528 22.8193 1.95617 22.6574C2.21701 22.4236 2.54981 22.3516 3.59316 22.3516C4.63652 22.3516 4.96932 22.4146 5.23015 22.6574C5.38306 22.7923 5.49999 22.9812 5.49999 23.2511C5.49999 23.4399 5.45502 23.5929 5.34708 23.7278C5.30211 23.7907 5.19418 23.8987 5.10423 23.9346H5.42803V24.2405H1.81226C1.0927 24.2405 0.813876 24.1865 0.553036 23.9526H0.562031Z" fill="#2E2A25"/>
<path d="M4.33934 11.7385C4.50124 11.7385 4.61817 11.6935 4.69912 11.6215C4.77108 11.5586 4.80705 11.4596 4.80705 11.3517C4.80705 11.2078 4.74409 11.1358 4.64515 11.0639C4.49225 10.947 4.11448 10.947 3.62878 10.947C3.14308 10.947 2.86425 10.947 2.71135 11.0639C2.61241 11.1358 2.55844 11.2078 2.55844 11.3517C2.55844 11.4596 2.59442 11.5676 2.66637 11.6305C2.74732 11.7025 2.86425 11.7475 3.02615 11.7475H4.33934V11.7385ZM0.570665 12.1882C0.372787 11.9903 0.255859 11.6575 0.255859 11.3427C0.255859 11.0279 0.345804 10.7131 0.56167 10.4972C0.804521 10.2634 1.09234 10.1734 1.42514 10.1734V10.956C1.27223 10.956 1.15531 10.9829 1.05637 11.0639C0.98441 11.1358 0.939438 11.2258 0.939438 11.3427C0.939438 11.4596 0.993404 11.5586 1.06536 11.6215C1.1643 11.7025 1.29922 11.7385 1.55106 11.7385H2.18067C2.09073 11.6665 2.00978 11.5856 1.96481 11.5136C1.90185 11.4147 1.87486 11.2887 1.87486 11.1358C1.87486 10.812 1.95581 10.6411 2.16268 10.4613C2.45051 10.2184 2.80129 10.1465 3.64677 10.1465C4.49225 10.1465 4.93298 10.2094 5.22979 10.4613C5.43667 10.6411 5.51762 10.803 5.51762 11.1358C5.51762 11.2798 5.48164 11.4147 5.41868 11.5316C5.37371 11.6125 5.29276 11.7025 5.21181 11.7655H5.46365V12.521H1.58704C1.08335 12.521 0.786532 12.4041 0.570665 12.1882Z" fill="#2E2A25"/>
<path d="M91.6488 15.255C91.6488 15.8127 91.352 16.1544 90.8483 16.1544C90.3446 16.1544 90.0568 15.8216 90.0568 15.255V12.7186C90.0568 12.1609 90.3536 11.8191 90.8483 11.8191C91.343 11.8191 91.6488 12.1519 91.6488 12.7186V15.255ZM92.6292 15.0571V12.9344C92.6292 12.3768 92.5573 11.972 92.4044 11.6932C92.1165 11.1535 91.5499 10.8477 90.8483 10.8477C90.1468 10.8477 89.5891 11.1535 89.2923 11.6932C89.1394 11.972 89.0674 12.3768 89.0674 12.9344V15.0571C89.0674 15.6148 89.1394 16.0195 89.2923 16.2984C89.5891 16.838 90.1558 17.1438 90.8483 17.1438C91.5409 17.1438 92.1075 16.838 92.4044 16.2984C92.5573 16.0195 92.6292 15.6148 92.6292 15.0571Z" fill="#2E2A25"/>
<path d="M96.3882 11.7999C96.4691 11.7999 96.5501 11.7999 96.631 11.8269V10.8105C96.0464 10.8465 95.6686 11.0803 95.147 11.539L94.8861 11.7729V10.8824H93.8877V17.0346H94.8861V13.3829C94.8861 12.2946 95.6686 11.7999 96.3882 11.7999Z" fill="#2E2A25"/>
<path d="M64.6653 12.7102L63.6309 12.2965C62.9114 12.0176 62.7944 11.7118 62.7764 11.0912C62.8124 10.0658 63.3701 9.84994 63.8288 9.84994C64.5124 9.84994 64.9171 10.3267 64.9171 11.1272V11.2711H65.9245V10.7764C65.9245 9.84095 65.106 8.85156 63.8828 8.85156C62.6595 8.85156 61.7691 9.77798 61.7691 11.1002C61.7691 12.1436 62.1828 12.7822 63.1092 13.1599L64.0536 13.5467C64.7012 13.8075 64.8901 14.0054 64.9171 14.8509C64.8991 15.4715 64.7912 16.1281 63.8018 16.1281C63.0013 16.1281 62.7135 15.5345 62.7135 15.0218V14.7699H61.7061V15.1027C61.7061 16.263 62.6055 17.1355 63.8018 17.1355C64.7642 17.1355 65.9155 16.7397 65.9245 14.8509C65.9245 13.1869 65.133 12.8811 64.6563 12.7102H64.6653Z" fill="#2E2A25"/>
<path d="M42.7549 24.9682C42.7549 25.5259 42.458 25.8677 41.9634 25.8677C41.4687 25.8677 41.1718 25.5349 41.1718 24.9682V22.4048C41.1718 21.8561 41.4777 21.5054 41.9634 21.5054C42.4491 21.5054 42.7549 21.8382 42.7549 22.4048V24.9682ZM43.7353 24.7704V22.6117C43.7353 22.063 43.6633 21.6583 43.5104 21.3794C43.2226 20.8488 42.6559 20.543 41.9634 20.543C41.2708 20.543 40.7041 20.8488 40.4163 21.3884C40.2634 21.6673 40.1914 22.072 40.1914 22.6207V24.7793C40.1914 25.337 40.2634 25.7328 40.4163 26.0116C40.7041 26.5513 41.2708 26.8571 41.9634 26.8571C42.6559 26.8571 43.2226 26.5513 43.5104 26.0116C43.6633 25.7328 43.7353 25.337 43.7353 24.7793V24.7704Z" fill="#2E2A25"/>
<path d="M56.3998 25.2201C56.3188 25.6428 56.049 25.8677 55.6262 25.8677C55.1405 25.8677 54.8347 25.5619 54.8347 25.0762V22.4228C54.8347 21.8651 55.1315 21.5234 55.6262 21.5234C56.085 21.5234 56.3638 21.8022 56.4088 22.2879H57.3892C57.3262 21.2265 56.6516 20.543 55.6262 20.543C54.9337 20.543 54.367 20.8488 54.0792 21.3884C53.9263 21.6673 53.8633 22.063 53.8633 22.6207V24.7704C53.8633 25.328 53.9353 25.7238 54.0882 26.0026C54.376 26.5423 54.9427 26.8481 55.6352 26.8481C56.1569 26.8481 56.5976 26.6772 56.9304 26.3264C57.2003 26.0476 57.3712 25.6518 57.3981 25.2201H56.4088H56.3998Z" fill="#2E2A25"/>
<path d="M62.1823 26.8388V25.9214C61.7146 25.8404 61.5437 25.6246 61.5437 25.1119V18.7168H60.5723V25.2018C60.5723 26.515 61.139 26.8118 62.1823 26.8388Z" fill="#2E2A25"/>
<path d="M39.2109 25.0326V24.7178H38.2394V24.9876C38.2394 24.9876 38.2394 25.0416 38.2394 25.0686V25.2215H38.2125C38.1045 25.7792 37.6908 25.8691 37.4389 25.8691C36.9532 25.8691 36.6474 25.5633 36.6474 25.0776V20.4814C36.6474 19.9148 36.9442 19.582 37.4389 19.582C37.9336 19.582 38.1945 19.8788 38.2305 20.3915V20.4994C38.2305 20.4994 38.2394 20.5534 38.2394 20.5804V20.8502H39.2109V20.4994C39.2109 19.3481 38.5093 18.6016 37.4389 18.6016C36.7464 18.6016 36.1797 18.9074 35.8919 19.4471C35.748 19.7259 35.667 20.1306 35.667 20.6793V24.7628C35.667 25.3204 35.739 25.7162 35.8919 25.995C36.1797 26.5347 36.7464 26.8405 37.4389 26.8405C37.9606 26.8405 38.4013 26.6696 38.7341 26.3188C39.031 26.004 39.2109 25.5453 39.2109 25.0686V25.0326Z" fill="#2E2A25"/>
<path d="M98.3315 13.4111C98.3315 12.6106 98.4034 12.1789 98.5563 11.981C98.6553 11.8461 98.8352 11.6662 99.168 11.6662C99.4198 11.6662 99.6177 11.7651 99.7796 11.99C99.9325 12.1789 99.9955 12.5746 99.9955 13.4111V13.5371H98.3315V13.4111ZM99.9775 15.4709C99.9505 15.6597 99.8965 15.8576 99.7976 15.9835C99.6357 16.1904 99.4378 16.2984 99.186 16.2984C98.9251 16.2984 98.6913 16.1814 98.5563 15.9746C98.4034 15.7407 98.3405 15.291 98.3405 14.3645V14.2656H100.976V14.1307C100.976 13.0514 100.967 11.8641 100.436 11.3064C100.13 10.9826 99.7616 10.8477 99.177 10.8477C98.5923 10.8477 98.2325 10.9916 97.9177 11.3064C97.4051 11.8191 97.3691 12.8625 97.3691 13.9868C97.3691 15.1111 97.4141 16.1544 97.9177 16.6581C98.2595 16.9999 98.6193 17.1348 99.195 17.1348C99.7706 17.1348 100.193 16.9819 100.463 16.6761C100.733 16.3793 100.895 15.9746 100.949 15.4709H99.9865H99.9775Z" fill="#2E2A25"/>
<path d="M48.5476 14.3907C48.3587 14.1209 48.0979 13.923 47.6751 13.7341L46.8297 13.3743C46.5868 13.2664 46.3889 13.1135 46.281 12.9426C46.1911 12.8167 46.1641 12.6727 46.1641 12.4749C46.1641 12.232 46.245 12.0251 46.3889 11.8812C46.5329 11.7373 46.7487 11.6564 46.9736 11.6564C47.1984 11.6564 47.3963 11.7373 47.5402 11.8992C47.6662 12.0341 47.7381 12.205 47.7561 12.4299H48.7005C48.6735 11.9442 48.5116 11.5664 48.2058 11.2786C47.918 10.9998 47.4593 10.8379 46.9646 10.8379C46.4699 10.8379 46.0022 11.0088 45.6874 11.3236C45.3276 11.6924 45.1747 12.0701 45.1747 12.5918C45.1747 12.9246 45.2376 13.1854 45.3546 13.3833C45.5255 13.6531 45.8223 13.887 46.218 14.0579L47.0725 14.4357C47.3244 14.5436 47.5222 14.6875 47.6392 14.8494C47.7561 15.0113 47.8011 15.1912 47.8011 15.4161C47.8011 15.6769 47.7111 15.9108 47.5582 16.0457C47.3873 16.1986 47.2074 16.2705 46.9556 16.2705C46.7127 16.2705 46.4879 16.1716 46.353 16.0187C46.218 15.8838 46.1281 15.6949 46.1011 15.47H45.1387C45.1657 15.9377 45.3366 16.3155 45.6604 16.6483C45.9482 16.9451 46.4339 17.125 46.9556 17.125C47.5132 17.125 47.918 16.9811 48.2508 16.6483C48.6016 16.2975 48.7725 15.8568 48.7725 15.3351C48.7725 14.9393 48.6915 14.5976 48.5296 14.3817L48.5476 14.3907Z" fill="#2E2A25"/>
<path d="M38.3921 14.8587C38.3921 15.7311 38.0234 16.1449 37.2319 16.1449H36.4763V9.80375H37.2319C38.2662 9.80375 38.3921 10.5323 38.3921 11.072V14.8587ZM39.3635 11.072C39.3635 9.69581 38.599 8.9043 37.2588 8.9043H35.5049V17.0443H37.1419C38.617 17.0443 39.3546 16.2708 39.3546 14.7417V11.081L39.3635 11.072Z" fill="#2E2A25"/>
<path d="M49.9863 10.9473V17.0365H50.9577V10.9473H49.9863Z" fill="#2E2A25"/>
<path d="M49.9863 9.00391V9.97531H50.9577V9.00391H49.9863Z" fill="#2E2A25"/>
<path d="M67.3906 10.9473V17.0365H68.362V10.9473H67.3906Z" fill="#2E2A25"/>
<path d="M67.3906 9.00391V9.97531H68.362V9.00391H67.3906Z" fill="#2E2A25"/>
<path d="M81.1069 16.1535C80.6212 16.1535 80.3424 15.8118 80.3424 15.2451C80.3424 14.5795 80.7561 14.2018 81.4847 14.2018C81.6106 14.2018 81.7275 14.2197 81.8624 14.2377L81.9884 14.2647V15.2451C81.9884 15.8387 81.6196 16.1535 81.1069 16.1535ZM81.7095 16.4504L81.9884 16.1535V17.044H82.9238V12.6907C82.9238 11.3595 82.0333 10.8828 81.2059 10.8828C80.7022 10.8828 80.2704 11.0447 79.9556 11.3685C79.6858 11.6383 79.5149 12.0071 79.4519 12.4478H80.3694C80.4953 12.0701 80.8191 11.8182 81.2059 11.8182C81.7005 11.8182 81.9884 12.142 81.9884 12.7177V13.5901H81.8265C81.7095 13.5811 81.6106 13.5721 81.5297 13.5631C81.4217 13.5542 81.3228 13.5452 81.2328 13.5452C79.8747 13.5452 79.416 14.0399 79.416 15.497V15.6229C79.416 16.8641 80.0636 17.125 80.6032 17.125C81.0619 17.125 81.2958 16.9631 81.5297 16.6752C81.5836 16.6123 81.7185 16.4594 81.7185 16.4594L81.7095 16.4504Z" fill="#2E2A25"/>
<path d="M86.8456 15.2283C86.8456 16.0198 86.3509 16.1457 86.0541 16.1457C85.5954 16.1457 85.2536 15.7769 85.2536 15.2912V12.7998C85.2536 12.2331 85.5864 11.8464 86.0541 11.8464C86.5578 11.8464 86.8456 12.2241 86.8456 12.8807V15.2283ZM87.817 15.2912V12.8537C87.817 11.9363 87.781 11.6035 87.6371 11.3787C87.4842 11.1268 87.2413 10.875 86.6297 10.875C86.0721 10.875 85.8652 11.1088 85.5414 11.4686L85.2626 11.7744V11.3697L85.2536 10.9469H84.2822V19.6895H85.2536V16.1997L85.5324 16.4965C85.5324 16.4965 85.6403 16.6134 85.6853 16.6674C85.9372 16.9552 86.252 17.1081 86.6387 17.1081C87.1064 17.1081 87.4302 16.9372 87.6191 16.5864C87.754 16.3256 87.817 15.9568 87.817 15.2823V15.2912Z" fill="#2E2A25"/>
<path d="M81.9791 16.1543C81.9791 16.1543 81.7003 17.1167 80.6299 17.1167V16.7119L81.9791 16.1543Z" fill="#2E2A25"/>
<path d="M85.208 16.1543C85.208 16.1543 85.4869 17.1167 86.5572 17.1167V16.7119L85.208 16.1543Z" fill="#2E2A25"/>
<path d="M85.208 11.8374C85.208 11.8374 85.4869 10.875 86.5572 10.875V11.2797L85.208 11.8374Z" fill="#2E2A25"/>
<path d="M94.6348 12.2316C94.6348 12.2316 95.0486 10.8105 96.6316 10.8105V11.4131L94.6348 12.2316Z" fill="#2E2A25"/>
<path d="M77.1855 15.2912C77.1855 15.7769 76.8437 16.1457 76.385 16.1457C76.0882 16.1457 75.5935 16.0288 75.5935 15.2283V12.8807C75.5935 12.2241 75.8813 11.8464 76.385 11.8464C76.8527 11.8464 77.1855 12.2331 77.1855 12.7998V15.2912ZM78.1569 10.9469H77.1855V11.7834L76.9067 11.4776C76.5739 11.1088 76.367 10.875 75.8184 10.875C75.2068 10.875 74.9639 11.1358 74.802 11.3787C74.6671 11.6035 74.6221 11.9273 74.6221 12.8448V15.2822C74.6221 15.9478 74.6761 16.3256 74.82 16.5864C75.0089 16.9372 75.3327 17.1081 75.8004 17.1081C76.1152 17.1081 76.394 17.0092 76.6189 16.8113C76.6908 16.7394 76.8527 16.5685 76.9067 16.5055L77.1855 16.1817V17.8727C77.1855 18.4033 76.9067 18.7271 76.439 18.7271C75.9713 18.7271 75.6925 18.4303 75.6205 18.0975H74.6491C74.9009 19.5816 76.0342 19.6985 76.385 19.6985C77.6083 19.6985 78.1569 18.8351 78.1569 17.9806V10.9559V10.9469Z" fill="#2E2A25"/>
<path d="M77.2037 16.1543C77.2037 16.1543 76.9249 17.1167 75.8545 17.1167V16.7119L77.2037 16.1543Z" fill="#2E2A25"/>
<path d="M77.2037 11.8374C77.2037 11.8374 76.9249 10.875 75.8545 10.875V11.2797L77.2037 11.8374Z" fill="#2E2A25"/>
<path d="M77.2037 16.1543C77.2037 16.1543 76.9249 17.1167 75.8545 17.1167V16.7119L77.2037 16.1543Z" fill="#2E2A25"/>
<path d="M81.0264 13.5371H82.4745L82.3576 13.798L81.683 13.8969L81.0264 13.5371Z" fill="#2E2A25"/>
<path d="M54.7529 15.2912C54.7529 15.7769 54.4111 16.1457 53.9524 16.1457C53.6556 16.1457 53.1609 16.0288 53.1609 15.2283V12.8807C53.1609 12.2241 53.4487 11.8464 53.9524 11.8464C54.4201 11.8464 54.7529 12.2331 54.7529 12.7998V15.2912ZM55.7243 10.9469H54.7529V11.7834L54.4741 11.4776C54.1413 11.1088 53.9344 10.875 53.3858 10.875C52.7741 10.875 52.5313 11.1358 52.3694 11.3787C52.2345 11.6035 52.1895 11.9273 52.1895 12.8448V15.2822C52.1895 15.9478 52.2435 16.3256 52.3874 16.5864C52.5763 16.9372 52.9001 17.1081 53.3678 17.1081C53.6826 17.1081 53.9614 17.0092 54.1863 16.8113C54.2582 16.7394 54.4201 16.5685 54.4741 16.5055L54.7529 16.1817V17.8727C54.7529 18.4033 54.4741 18.7271 54.0064 18.7271C53.5387 18.7271 53.2598 18.4303 53.1879 18.0975H52.2255C52.4773 19.5816 53.6106 19.6985 53.9614 19.6985C55.1846 19.6985 55.7333 18.8351 55.7333 17.9806V10.9559L55.7243 10.9469Z" fill="#2E2A25"/>
<path d="M54.7711 16.1543C54.7711 16.1543 54.4833 17.1167 53.4219 17.1167V16.7119L54.7711 16.1543Z" fill="#2E2A25"/>
<path d="M54.7711 11.8374C54.7711 11.8374 54.4833 10.875 53.4219 10.875V11.2797L54.7711 11.8374Z" fill="#2E2A25"/>
<path d="M54.7711 16.1543C54.7711 16.1543 54.4833 17.1167 53.4219 17.1167V16.7119L54.7711 16.1543Z" fill="#2E2A25"/>
<path d="M41.4868 13.4111C41.4868 12.6106 41.5587 12.1789 41.7206 11.981C41.8196 11.8461 41.9994 11.6662 42.3322 11.6662C42.5841 11.6662 42.782 11.7651 42.9439 11.99C43.0968 12.1789 43.1597 12.5746 43.1597 13.4111V13.5371H41.4868V13.4111ZM43.1327 15.4709C43.1058 15.6597 43.0428 15.8576 42.9529 15.9835C42.791 16.1904 42.5931 16.2984 42.3412 16.2984C42.0714 16.2984 41.8465 16.1814 41.7116 15.9746C41.5497 15.7407 41.4868 15.291 41.4868 14.3645V14.2656H44.1311V14.1307C44.1311 13.0514 44.1221 11.8641 43.5915 11.3064C43.2857 10.9826 42.9079 10.8477 42.3322 10.8477C41.7566 10.8477 41.3878 10.9916 41.073 11.3064C40.5603 11.8191 40.5244 12.8625 40.5244 13.9868C40.5244 15.1111 40.5693 16.1544 41.073 16.6581C41.4148 16.9999 41.7656 17.1348 42.3502 17.1348C42.9349 17.1348 43.3486 16.9819 43.6184 16.6761C43.8883 16.3793 44.0502 15.9746 44.1041 15.4709H43.1417H43.1327Z" fill="#2E2A25"/>
<path d="M71.6 11.6756C72.0857 11.6756 72.3915 12.0264 72.3915 12.5751V17.0273H73.3629V12.5571C73.3629 11.8015 73.246 11.5137 73.0391 11.2709C72.7693 10.9561 72.4634 10.8301 71.9867 10.8301C71.7889 10.8301 71.582 10.8841 71.4201 10.9741C71.3032 11.037 71.1592 11.1719 71.0423 11.3338L70.7545 11.7206V10.9291H69.8281V17.0273H70.8085V12.5751C70.8085 12.0264 71.1233 11.6756 71.6 11.6756Z" fill="#2E2A25"/>
<path d="M70.7275 11.8003C70.7275 11.8003 71.0153 10.8379 72.0766 10.8379V11.2426L70.7275 11.8003Z" fill="#2E2A25"/>
<path d="M58.7383 11.6756C59.224 11.6756 59.5298 12.0264 59.5298 12.5751V17.0273H60.5102V12.5571C60.5102 11.8015 60.3933 11.5137 60.1775 11.2709C59.9166 10.9561 59.6018 10.8301 59.1341 10.8301C58.9362 10.8301 58.7293 10.8841 58.5674 10.9741C58.4505 11.037 58.3066 11.1719 58.1897 11.3338L57.9108 11.7206V10.9291H56.9844V17.0273H57.9648V12.5751C57.9648 12.0264 58.2706 11.6756 58.7563 11.6756H58.7383Z" fill="#2E2A25"/>
<path d="M57.8652 11.8003C57.8652 11.8003 58.153 10.8379 59.2143 10.8379V11.2426L57.8652 11.8003Z" fill="#2E2A25"/>
<path d="M51.1108 21.3892C51.5875 21.3892 51.9023 21.74 51.9023 22.2977V26.7499H52.8737V22.2797C52.8737 21.5152 52.7568 21.2363 52.5499 20.9935C52.2801 20.6787 51.9743 20.5527 51.4976 20.5527C51.2997 20.5527 51.0928 20.6067 50.9309 20.6967C50.814 20.7596 50.6701 20.8945 50.5532 21.0564L50.2653 21.4432V20.6517H49.3389V26.7499H50.3193V22.2977C50.3193 21.749 50.6251 21.3892 51.1108 21.3892Z" fill="#2E2A25"/>
<path d="M50.2383 21.5054C50.2383 21.5054 50.5171 20.543 51.5875 20.543V20.9477L50.2383 21.4964V21.5054Z" fill="#2E2A25"/>
<path d="M46.4787 26.0033C46.002 26.0033 45.6872 25.6525 45.6872 25.1039V20.6516H44.7158V25.1219C44.7158 25.8864 44.8327 26.1652 45.0486 26.4081C45.3184 26.7139 45.6242 26.8488 46.1009 26.8488C46.2988 26.8488 46.5057 26.7948 46.6676 26.6959C46.7845 26.6329 46.9284 26.498 47.0453 26.3361L47.3331 25.9494V26.7409H48.2596V20.6426H47.2792V25.0949C47.2792 25.6435 46.9734 25.9943 46.4877 25.9943L46.4787 26.0033Z" fill="#2E2A25"/>
<path d="M47.3512 25.8859C47.3512 25.8859 47.0633 26.8484 46.002 26.8484V26.4346L47.3512 25.877V25.8859Z" fill="#2E2A25"/>
<path d="M58.4951 20.6602V26.7494H59.4665V20.6602H58.4951Z" fill="#2E2A25"/>
<path d="M58.4951 18.7168V19.6882H59.4665V18.7168H58.4951Z" fill="#2E2A25"/>
</g>
<path d="M191.181 11.4644C190.778 10.0562 190.376 8.64804 189.973 7.23983C189.939 7.11701 189.896 6.99133 189.87 6.86565C189.79 6.46289 189.959 6.14012 190.347 5.9973C190.587 5.9059 190.838 5.83449 191.09 5.78022C191.413 5.71166 191.667 5.81449 191.784 6.10299C191.955 6.51717 192.178 6.9142 192.218 7.3798C192.238 7.61116 192.338 7.83396 192.401 8.06247C192.644 8.93082 192.887 9.79916 193.132 10.6646C193.261 11.1188 193.404 11.5673 193.535 12.0214C193.689 12.5556 193.832 13.0954 193.992 13.6296C194.075 13.9009 194.278 14.0695 194.557 14.0923C194.746 14.1066 194.943 14.078 195.129 14.0295C195.566 13.9181 196 13.781 196.434 13.6581C196.58 13.6181 196.725 13.5724 196.874 13.5582C197.223 13.5296 197.511 13.7267 197.614 14.058C197.671 14.2408 197.688 14.4379 197.737 14.6265C197.831 14.9778 197.691 15.2292 197.337 15.412C197.223 15.4691 197.094 15.5005 196.971 15.5348C195.874 15.8519 194.772 16.1461 193.681 16.486C192.946 16.7145 192.578 16.4346 192.398 15.7547C192.015 14.318 191.59 12.8955 191.181 11.4673V11.4644Z" fill="#1C1C1B"/>
<path d="M199 11.9653C198.723 10.5914 198.446 9.22035 198.172 7.84642C198.129 7.63505 198.083 7.42368 198.063 7.20945C198.029 6.84383 198.243 6.52962 198.589 6.41822C198.712 6.37823 198.84 6.35538 198.966 6.32968C200.211 6.07831 201.46 5.82981 202.705 5.57845C202.811 5.55845 202.916 5.5356 203.025 5.52417C203.111 5.5156 203.199 5.50703 203.282 5.52132C203.693 5.58701 203.953 5.98977 203.996 6.61817C204.022 6.99236 203.79 7.32656 203.393 7.42082C202.871 7.5465 202.339 7.64362 201.811 7.75216C201.6 7.79501 201.385 7.82643 201.177 7.8807C200.74 7.9921 200.443 8.40627 200.506 8.84616C200.554 9.18607 200.623 9.52598 200.72 9.85732C200.854 10.3114 201.188 10.5057 201.662 10.4257C202.151 10.3429 202.634 10.2286 203.122 10.1429C203.33 10.1058 203.548 10.0886 203.762 10.0886C204.473 10.0972 204.876 10.5714 204.762 11.2683C204.739 11.414 204.662 11.5511 204.607 11.6911C204.53 11.8939 204.379 11.9824 204.17 12.0196C203.47 12.1452 202.773 12.2852 202.077 12.4195C201.905 12.4509 201.739 12.4937 201.62 12.6365C201.445 12.8422 201.334 13.0621 201.405 13.3478C201.474 13.6191 201.508 13.8991 201.588 14.1676C201.768 14.7531 202.048 14.9245 202.656 14.8245C203.188 14.736 203.713 14.6246 204.242 14.5218C204.39 14.4932 204.536 14.4532 204.684 14.4304C205.273 14.3475 205.584 14.5646 205.713 15.133C205.887 15.8928 205.687 16.2127 204.919 16.3727C204.096 16.5412 203.271 16.7012 202.448 16.864C201.942 16.964 201.44 17.0725 200.931 17.1611C200.34 17.261 200.034 17.0554 199.911 16.4641C199.6 14.9674 199.306 13.4649 199.003 11.9653C199.003 11.9653 199 11.9653 198.997 11.9653H199Z" fill="#1C1C1B"/>
<path d="M211.231 11.4962C210.885 11.4962 210.543 11.4877 210.197 11.4962C209.589 11.5134 209.117 11.7533 208.877 12.3474C208.766 12.6274 208.66 12.9102 208.537 13.1844C208.423 13.4357 208.289 13.6814 208.152 13.9242C208.015 14.167 207.78 14.2898 207.515 14.3126C207.215 14.3384 206.912 14.3384 206.612 14.3126C206.218 14.2812 206.007 13.9784 206.092 13.5814C206.132 13.3929 206.201 13.2101 206.275 13.0301C206.746 11.899 207.226 10.7736 207.698 9.6424C208.069 8.7512 208.429 7.8543 208.797 6.9631C209.151 6.1119 209.511 5.26069 209.871 4.40949C209.94 4.25239 210.008 4.09243 210.094 3.9439C210.354 3.49544 210.731 3.26407 211.268 3.31834C211.765 3.36976 212.102 3.61541 212.294 4.07815C212.928 5.60917 213.567 7.13449 214.207 8.66266C214.839 10.1709 215.473 11.6762 216.107 13.1844C216.164 13.3215 216.235 13.4614 216.264 13.6043C216.338 13.9642 216.135 14.2698 215.775 14.3012C215.456 14.3298 215.127 14.3269 214.81 14.2926C214.442 14.2498 214.182 14.0241 214.03 13.6871C213.836 13.2558 213.653 12.8187 213.465 12.3874C213.413 12.2703 213.373 12.1418 213.296 12.0418C213.036 11.7048 212.716 11.4734 212.259 11.4848C211.914 11.4934 211.571 11.4848 211.225 11.4848L211.231 11.4962ZM211.094 9.531C211.214 9.531 211.279 9.52529 211.342 9.531C211.834 9.57099 212.151 9.20823 212.011 8.69408C211.894 8.26276 211.714 7.84859 211.557 7.42584C211.534 7.36586 211.497 7.31158 211.459 7.26017C211.331 7.08593 211.117 7.0488 210.954 7.18876C210.874 7.25731 210.788 7.33729 210.748 7.42869C210.571 7.86287 210.4 8.30275 210.245 8.74549C210.177 8.93973 210.254 9.11682 210.391 9.27678C210.597 9.51957 210.865 9.54243 211.097 9.52815L211.094 9.531Z" fill="#1C1C1B"/>
<path d="M225.558 16.5647C225.489 16.6933 225.363 16.7847 225.206 16.819C225.126 16.8361 225.046 16.8361 224.972 16.839H224.952C224.735 16.839 224.518 16.839 224.301 16.8418H224.172C224.172 16.8418 224.169 16.8418 224.166 16.8418C223.701 16.8418 223.464 16.659 223.238 16.2848C223.001 15.8878 222.75 15.4907 222.507 15.1051C222.378 14.9023 222.253 14.7024 222.127 14.4996C222.047 14.371 221.967 14.2425 221.884 14.114C221.659 13.7569 221.427 13.3884 221.213 13.0142C221.053 12.7315 220.707 12.5886 220.316 12.5486C220.202 12.5372 220.088 12.5401 219.968 12.5429C219.753 12.5487 219.602 12.6572 219.548 12.8486C219.505 12.9942 219.482 13.1342 219.485 13.2599C219.485 13.6855 219.491 14.1082 219.493 14.5338C219.496 14.888 219.502 15.2394 219.502 15.5936C219.502 15.8335 219.485 16.0734 219.468 16.2877C219.448 16.5676 219.313 16.7304 219.048 16.799C218.934 16.8275 218.814 16.8361 218.699 16.8361H218.605C218.422 16.8418 218.234 16.8447 218.045 16.8304C217.642 16.7961 217.408 16.5505 217.383 16.1363C217.371 15.9649 217.377 15.7935 217.383 15.625C217.383 15.5364 217.388 15.4536 217.394 15.3708C217.4 15.2537 217.408 15.1451 217.405 15.0337C217.397 14.114 217.385 13.1913 217.377 12.2716L217.365 11.1976H217.38V10.632C217.38 10.1007 217.38 9.5694 217.38 9.03811V6.70444C217.38 6.68444 217.38 6.66445 217.38 6.64445C217.38 6.60161 217.377 6.55591 217.38 6.50735C217.417 6.13887 217.651 5.89608 218.022 5.84752C218.071 5.84181 218.117 5.84181 218.157 5.84181C218.191 5.84181 218.222 5.84181 218.251 5.83895C218.388 5.82181 218.517 5.83609 218.639 5.85038C218.768 5.86466 218.891 5.87894 219.011 5.85609C219.202 5.81896 219.396 5.82753 219.585 5.83324C219.659 5.8361 219.736 5.84181 219.81 5.83895C219.933 5.83895 220.056 5.83895 220.179 5.83895C220.302 5.83895 220.422 5.83895 220.545 5.83895H220.736C220.927 5.83895 221.124 5.83895 221.319 5.83324C221.65 5.82181 222.007 5.85895 222.441 5.95035C222.935 6.05604 223.404 6.29598 223.832 6.66159C224.455 7.19288 224.826 7.83557 224.935 8.56681C225.041 9.28376 224.995 9.87789 224.792 10.4349C224.541 11.1347 224.118 11.6575 223.507 12.0316C223.418 12.0859 223.352 12.143 223.324 12.1973C223.23 12.363 223.224 12.4915 223.307 12.6143C223.347 12.6743 223.384 12.7343 223.418 12.7943C223.444 12.84 223.469 12.8857 223.498 12.9285C223.804 13.397 224.106 13.8654 224.412 14.331C224.732 14.8223 225.052 15.3136 225.372 15.8049L225.4 15.8506C225.46 15.942 225.523 16.0363 225.566 16.142C225.626 16.2848 225.623 16.4333 225.558 16.559V16.5647ZM220.753 10.5149H220.887V10.5206H221.062C221.202 10.5149 221.344 10.5149 221.484 10.512C222.013 10.5092 222.393 10.2293 222.804 9.80934C222.815 9.79791 222.833 9.76078 222.835 9.7265L222.844 9.62367C222.858 9.46086 222.873 9.30947 222.861 9.16094C222.807 8.4754 222.518 8.11835 221.904 7.96697C221.633 7.90127 221.341 7.88127 221.07 7.86699C220.924 7.85842 220.77 7.86128 220.625 7.86699C220.439 7.86985 220.247 7.8727 220.059 7.85557C219.856 7.83843 219.71 7.92126 219.585 8.12407C219.519 8.23261 219.482 8.39257 219.493 8.5211C219.513 8.75247 219.505 8.98384 219.493 9.20664C219.488 9.37231 219.479 9.54369 219.485 9.70936C219.491 9.85504 219.511 10.0122 219.548 10.1836C219.593 10.3892 219.728 10.5035 219.936 10.512C220.122 10.5206 220.316 10.5178 220.502 10.5178C220.587 10.5178 220.67 10.5178 220.756 10.5178L220.753 10.5149Z" fill="#1C1C1B"/>
<path d="M235.387 8.80014C235.53 10.2341 235.675 11.6709 235.818 13.1048C235.832 13.2533 235.852 13.4047 235.852 13.5561C235.852 13.9303 235.632 14.233 235.264 14.2959C234.884 14.3587 234.496 14.393 234.107 14.4016C233.71 14.4101 233.413 14.1959 233.184 13.8846C232.956 13.5732 232.742 13.2504 232.513 12.9362C231.408 11.3995 230.299 9.86557 229.191 8.32883C229.128 8.24314 229.066 8.15459 228.991 8.07747C228.897 7.9775 228.774 7.93465 228.64 7.99178C228.506 8.04891 228.454 8.16602 228.451 8.30313C228.451 8.40881 228.454 8.51735 228.466 8.6259C228.606 10.017 228.726 11.4138 228.894 12.802C228.946 13.2276 228.98 13.6532 228.997 14.0817C229.003 14.2673 228.954 14.4644 228.888 14.6415C228.817 14.83 228.663 14.9586 228.451 14.9843C228.174 15.0186 227.894 15.0614 227.617 15.07C227.269 15.0814 227.052 14.8986 226.98 14.5558C226.94 14.3673 226.895 14.1674 226.92 13.9817C226.952 13.7389 226.909 13.5247 226.849 13.2933C226.786 13.0476 226.78 12.7877 226.752 12.5306C226.726 12.2736 226.686 12.0165 226.683 11.7594C226.683 11.2653 226.532 10.7911 226.54 10.2912C226.549 9.82558 226.403 9.35713 226.352 8.88869C226.306 8.46308 226.295 8.03177 226.263 7.60331C226.206 6.83208 226.146 6.06086 225.969 5.30391C225.926 5.12396 225.952 4.9183 225.981 4.72978C226.046 4.33274 226.209 4.17564 226.615 4.11851C226.935 4.07281 227.257 4.05281 227.577 4.02139C228.054 3.97569 228.414 4.17564 228.686 4.54982C229.14 5.17823 229.585 5.81235 230.034 6.44361C230.894 7.65472 231.751 8.86583 232.613 10.0741C232.699 10.1941 232.81 10.2998 232.922 10.3969C233.022 10.4826 233.19 10.4512 233.259 10.3312C233.322 10.2227 233.379 10.0998 233.387 9.97697C233.399 9.80844 233.37 9.6342 233.353 9.46282C233.193 7.85753 233.027 6.24938 232.87 4.64408C232.85 4.43271 232.836 4.21277 232.856 4.0014C232.885 3.71861 233.053 3.51867 233.339 3.46439C233.613 3.41298 233.893 3.37299 234.17 3.36728C234.536 3.36156 234.818 3.61578 234.89 3.9814C234.918 4.12993 234.927 4.28132 234.941 4.42985C235.087 5.88662 235.232 7.34338 235.378 8.80014H235.387Z" fill="#1C1C1B"/>
<path d="M239.689 10.6365C239.557 12.0705 239.426 13.5044 239.294 14.9354C239.277 15.1268 239.26 15.321 239.214 15.5096C239.143 15.8152 238.937 16.0123 238.626 16.018C238.306 16.0237 237.978 16.0009 237.669 15.9237C237.381 15.8495 237.206 15.6152 237.189 15.3039C237.181 15.1554 237.195 15.004 237.209 14.8526C237.472 11.8962 237.735 8.93981 237.998 5.98344C238.012 5.83491 238.026 5.68352 238.06 5.53784C238.129 5.22935 238.338 5.03226 238.646 5.02655C238.986 5.01798 239.334 5.05797 239.669 5.11795C239.926 5.16366 240.071 5.36646 240.094 5.62353C240.111 5.81491 240.088 6.00915 240.071 6.20338C239.94 7.68299 239.809 9.15975 239.677 10.6365C239.68 10.6365 239.686 10.6365 239.689 10.6365Z" fill="#1C1C1B"/>
<path d="M250.502 10.8194C250.682 12.2504 250.865 13.6815 251.045 15.1125C251.065 15.2611 251.088 15.4125 251.091 15.561C251.102 15.9352 250.888 16.2437 250.519 16.3151C250.14 16.3894 249.751 16.4322 249.366 16.4522C248.971 16.4722 248.666 16.2637 248.431 15.9609C248.194 15.6553 247.972 15.3382 247.737 15.0297C246.592 13.5215 245.444 12.0162 244.298 10.5109C244.233 10.4252 244.167 10.3395 244.093 10.2624C243.995 10.1653 243.87 10.1253 243.738 10.1853C243.607 10.2453 243.556 10.3652 243.556 10.5023C243.556 10.6109 243.564 10.7166 243.578 10.8222C243.753 12.2104 243.91 13.6015 244.115 14.9869C244.178 15.4125 244.224 15.8352 244.25 16.2637C244.261 16.4493 244.215 16.6493 244.155 16.8264C244.09 17.0149 243.938 17.1492 243.727 17.1806C243.45 17.2234 243.173 17.272 242.896 17.2863C242.547 17.3063 242.324 17.1292 242.245 16.7892C242.202 16.6007 242.15 16.4036 242.17 16.2151C242.196 15.9723 242.145 15.7581 242.082 15.5296C242.013 15.2868 241.999 15.024 241.967 14.7698C241.933 14.5127 241.887 14.2585 241.879 14.0014C241.865 13.5072 241.702 13.0388 241.699 12.5361C241.696 12.0705 241.539 11.6077 241.476 11.1393C241.419 10.7137 241.399 10.2852 241.356 9.85674C241.279 9.08837 241.199 8.32 241.002 7.56591C240.956 7.38596 240.973 7.1803 241.002 6.99178C241.056 6.59188 241.216 6.43192 241.619 6.36623C241.936 6.31195 242.259 6.28339 242.582 6.24626C243.056 6.18627 243.421 6.37765 243.701 6.74613C244.17 7.36311 244.632 7.98294 245.098 8.60278C245.989 9.79104 246.875 10.9793 247.769 12.1647C247.857 12.2819 247.972 12.3847 248.086 12.4789C248.186 12.5618 248.357 12.5275 248.423 12.4047C248.483 12.2961 248.534 12.1705 248.54 12.0476C248.549 11.8791 248.514 11.7049 248.491 11.5335C248.289 9.931 248.083 8.33143 247.886 6.72899C247.86 6.51762 247.84 6.30053 247.857 6.0863C247.877 5.80066 248.04 5.59786 248.326 5.53787C248.597 5.48075 248.877 5.43219 249.154 5.42076C249.52 5.40362 249.808 5.65213 249.888 6.01775C249.92 6.16342 249.931 6.31481 249.951 6.4662C250.134 7.91725 250.317 9.37115 250.502 10.8222V10.8194Z" fill="#1C1C1B"/>
<path d="M252.657 6.79581C252.569 6.47304 252.729 6.20454 252.934 5.93889C253.306 5.45616 253.754 5.06198 254.234 4.69922C254.388 4.58211 254.534 4.45643 254.751 4.46785C254.825 4.47071 254.931 4.43072 254.977 4.37645C255.228 4.07081 255.588 3.97941 255.936 3.87943C256.707 3.66235 257.493 3.53381 258.296 3.64807C259.847 3.87087 261.143 4.57925 262.2 5.73038C262.555 6.11599 262.777 6.58158 263.006 7.04718C263.126 7.29283 262.874 7.65559 262.635 7.68415C262.529 7.69843 262.42 7.69272 262.315 7.6813C262.08 7.65559 261.846 7.60988 261.609 7.59275C261.078 7.55276 260.669 7.29854 260.355 6.88722C259.947 6.35307 259.401 6.01602 258.776 5.81321C257.722 5.4733 256.687 5.52757 255.731 6.11599C255.425 6.30451 255.151 6.5673 254.911 6.83866C254.702 7.07574 254.428 7.25855 254.325 7.5956C254.122 8.24972 253.863 8.88384 253.928 9.59793C254.065 11.0689 254.745 12.1629 256.111 12.7828C256.773 13.0827 257.493 13.1541 258.199 13.0856C258.87 13.0199 260.172 12.3143 260.538 11.3632C260.832 11.1175 260.267 10.829 259.89 10.7348C259.724 10.6919 259.55 10.6776 259.378 10.6548C258.716 10.5691 259.021 10.6234 258.361 10.5234C258.11 10.4862 257.856 10.412 257.624 10.3063C257.35 10.1835 257.193 9.84358 257.324 9.61222C257.404 9.47225 257.402 9.39513 257.364 9.24946C257.287 8.92954 257.527 8.60391 257.853 8.52679C258.064 8.47537 258.273 8.46966 258.487 8.54678C258.793 8.65818 259.104 8.71531 259.438 8.65818C259.604 8.62962 259.781 8.66961 259.952 8.6896C261.086 8.82957 261.249 8.84385 262.38 8.99809C262.635 9.03237 262.889 9.09521 263.126 9.19233C263.443 9.32372 263.574 9.60365 263.489 9.92928C263.286 10.729 262.94 11.8887 262.397 12.5171C261.978 13.0027 261.478 13.8625 260.889 14.1653C260.792 14.2138 260.701 14.271 260.609 14.3281C259.741 14.8651 258.796 15.0565 257.781 15.0822C256.405 15.1165 255.199 14.6851 254.111 13.8882C253.088 13.1398 252.406 12.1344 252.026 10.929C251.957 10.709 251.869 10.4805 251.949 10.2349C251.966 10.1806 251.946 10.1092 251.926 10.0492C251.615 9.0895 251.863 8.17545 252.194 7.2814C252.263 7.09859 252.48 6.97291 252.651 6.79867L252.657 6.79581Z" fill="#1C1C1B"/>
<path d="M193.226 26.3361C193.429 24.9279 193.629 23.5226 193.832 22.1144C193.857 21.943 193.874 21.7687 193.929 21.6088C194.043 21.2774 194.317 20.9518 194.814 21.0318C195.685 21.1717 196.571 21.2517 197.431 21.4374C198.288 21.6202 199.059 22.0001 199.561 22.777C199.924 23.3369 200.136 23.931 200.016 24.608C199.99 24.7565 199.976 24.9079 199.95 25.0564C199.884 25.4249 199.747 25.7448 199.47 26.019C199.104 26.3818 199.079 26.756 199.342 27.1845C199.407 27.293 199.49 27.3958 199.57 27.4987C200.153 28.2442 200.184 29.0954 199.973 29.9552C199.75 30.8578 199.17 31.529 198.359 31.9603C197.908 32.2003 197.385 32.3003 196.865 32.326C196.348 32.3545 195.834 32.3117 195.323 32.226C194.748 32.1317 194.171 32.0632 193.594 31.9803C193.446 31.9603 193.295 31.9432 193.152 31.8975C192.76 31.7747 192.549 31.4833 192.563 31.072C192.569 30.8578 192.609 30.6435 192.64 30.4322C192.835 29.0668 193.032 27.7015 193.226 26.339H193.223L193.226 26.3361ZM196.305 27.5301C196.24 27.5215 196.177 27.5072 196.111 27.5015C195.617 27.4587 195.291 27.6586 195.123 28.1299C194.977 28.5384 194.926 28.9611 194.954 29.3953C194.994 29.9752 195.234 30.2465 195.82 30.3122C196.094 30.3436 196.377 30.3094 196.654 30.3208C197.299 30.3493 197.916 29.7724 197.939 28.984C197.95 28.6155 197.822 28.2956 197.522 28.0928C197.151 27.8443 196.759 27.6129 196.308 27.5301H196.305ZM197.928 24.9879C197.922 24.7622 197.925 24.5937 197.916 24.4223C197.908 24.2024 197.845 23.9967 197.699 23.8311C197.402 23.494 197.019 23.3083 196.577 23.2826C196.122 23.2541 195.765 23.5854 195.705 24.0396C195.685 24.1852 195.66 24.3309 195.628 24.4766C195.511 25.0507 195.92 25.5563 196.499 25.5477C196.628 25.5477 196.754 25.5277 196.882 25.5106C197.248 25.4649 197.451 25.3678 197.756 25.105C197.805 25.065 197.859 25.0336 197.925 24.9879H197.928Z" fill="#1C1C1B"/>
<path d="M203.492 30.2283C203.492 29.8399 203.484 29.4514 203.492 29.0658C203.504 28.6459 203.41 28.2517 203.224 27.8804C202.738 26.9206 202.25 25.958 201.756 25.0011C201.284 24.0814 200.805 23.1645 200.33 22.2476C200.29 22.1705 200.25 22.0933 200.225 22.0133C200.136 21.7277 200.307 21.4078 200.602 21.3821C200.964 21.3535 201.336 21.3392 201.696 21.3849C202.058 21.4335 202.307 21.6906 202.47 22.0133C202.635 22.339 202.795 22.6703 202.953 22.9988C203.304 23.7386 203.655 24.4784 204.007 25.2154C204.064 25.3325 204.121 25.4496 204.192 25.5553C204.366 25.8095 204.723 25.7952 204.895 25.5324C204.952 25.4439 204.995 25.341 205.041 25.2439C205.538 24.1956 206.037 23.1445 206.534 22.0933C206.669 21.8105 206.9 21.6163 207.14 21.4364C207.189 21.3992 207.257 21.3707 207.317 21.3707C207.703 21.3649 208.094 21.345 208.477 21.3792C208.805 21.4078 208.997 21.8334 208.842 22.1276C208.094 23.5301 207.337 24.9326 206.589 26.3351C206.354 26.7721 206.143 27.2206 205.912 27.6576C205.555 28.3345 205.5 29.0544 205.609 29.7913C205.638 29.9855 205.666 30.1626 205.609 30.3597C205.563 30.5225 205.578 30.6996 205.572 30.871C205.566 31.1281 205.58 31.388 205.563 31.6451C205.538 32.0564 205.28 32.3192 204.866 32.3478C204.629 32.3649 204.392 32.3621 204.155 32.3478C203.727 32.3221 203.521 32.1335 203.501 31.7051C203.478 31.2109 203.495 30.7139 203.495 30.2198H203.487L203.492 30.2283Z" fill="#1C1C1B"/>
<path d="M217.326 30.4936C216.948 30.5793 216.569 30.6678 216.192 30.7478C216.046 30.7792 215.894 30.8135 215.746 30.8135C215.472 30.8135 215.24 30.7135 215.112 30.4479C215.055 30.3308 214.975 30.2222 214.949 30.0994C214.829 29.5738 214.723 29.0482 214.615 28.5198C214.595 28.417 214.615 28.2999 214.581 28.2027C214.109 26.8117 213.906 25.3549 213.549 23.9381C213.367 23.2069 213.207 22.47 213.052 21.733C212.995 21.4617 212.964 21.1817 212.955 20.9018C212.938 20.4448 213.147 20.162 213.584 20.0592C214.443 19.8592 215.3 19.6278 216.172 19.505C216.846 19.4079 217.548 19.3851 218.225 19.4536C219.653 19.5936 220.773 20.3048 221.593 21.4874C222.064 22.1672 222.416 22.8956 222.616 23.6982C222.824 24.5323 222.761 25.3606 222.613 26.1947C222.418 27.2801 221.836 28.1456 221.085 28.9026C220.705 29.2853 220.236 29.571 219.733 29.768C219.134 29.9994 218.537 30.2536 217.894 30.3622C217.703 30.3936 217.514 30.445 217.326 30.4879V30.4936ZM216.04 25.1521H216.034C216.209 25.9291 216.386 26.706 216.56 27.4829C216.594 27.6286 216.62 27.78 216.669 27.92C216.797 28.2913 217.143 28.5112 217.525 28.4255C217.817 28.3598 218.094 28.2342 218.38 28.1428C219.059 27.9257 219.599 27.5201 220.005 26.9402C220.368 26.4232 220.639 25.8662 220.613 25.2092C220.602 24.9093 220.627 24.6037 220.588 24.3095C220.556 24.0581 220.479 23.8068 220.382 23.5725C220.293 23.3554 220.165 23.1526 220.031 22.9584C219.402 22.0272 218.537 21.4874 217.403 21.4445C216.954 21.4274 216.503 21.4845 216.054 21.5245C215.957 21.5331 215.852 21.5988 215.772 21.6616C215.449 21.913 215.366 22.2386 215.463 22.6385C215.666 23.4754 215.846 24.3152 216.034 25.155L216.04 25.1521Z" fill="#1C1C1B"/>
<path d="M224.047 24.6649C224.047 23.2653 224.047 21.8657 224.047 20.4632C224.047 20.249 224.044 20.0319 224.067 19.8176C224.107 19.452 224.378 19.1864 224.738 19.1464C224.867 19.1321 224.995 19.135 225.127 19.135C226.398 19.135 227.669 19.135 228.94 19.1378C229.048 19.1378 229.157 19.1378 229.263 19.1464C229.348 19.155 229.437 19.1635 229.514 19.1921C229.905 19.3378 230.08 19.7834 229.997 20.4089C229.948 20.7802 229.657 21.063 229.248 21.0773C228.711 21.0973 228.172 21.0859 227.632 21.0887C227.417 21.0887 227.2 21.0773 226.986 21.0887C226.538 21.1116 226.163 21.4601 226.138 21.9028C226.118 22.2456 226.118 22.594 226.149 22.9368C226.192 23.4081 226.478 23.6652 226.96 23.6795C227.455 23.6938 227.952 23.6795 228.446 23.6909C228.66 23.6966 228.874 23.7223 229.083 23.7652C229.78 23.9137 230.08 24.4564 229.831 25.1191C229.78 25.2562 229.677 25.3762 229.597 25.5047C229.483 25.6875 229.317 25.7447 229.103 25.7389C228.391 25.7247 227.68 25.7218 226.969 25.7161C226.795 25.7161 226.626 25.7247 226.481 25.8389C226.269 26.0074 226.118 26.2017 226.129 26.493C226.141 26.773 226.121 27.0557 226.146 27.3328C226.206 27.9412 226.446 28.1669 227.063 28.1869C227.6 28.204 228.14 28.1983 228.677 28.204C228.828 28.204 228.98 28.1954 229.128 28.204C229.72 28.2411 229.982 28.5125 230 29.0952C230.02 29.875 229.76 30.1492 228.974 30.1521C228.134 30.1549 227.295 30.1521 226.455 30.1464C225.941 30.1464 225.424 30.1521 224.91 30.1378C224.313 30.1206 224.053 29.8579 224.047 29.2523C224.038 27.7241 224.047 26.1931 224.047 24.6649C224.047 24.6649 224.044 24.6649 224.041 24.6649H224.047Z" fill="#1C1C1B"/>
<path d="M236.998 22.6733C236.546 22.6076 236.258 22.3134 236.069 21.8935C236.018 21.7764 235.981 21.6478 235.915 21.5393C235.632 21.0537 235.012 20.8738 234.507 21.1251C234.058 21.3508 233.847 21.9706 234.053 22.4705C234.19 22.8018 234.438 23.0389 234.724 23.2417C235.075 23.4931 235.441 23.7216 235.784 23.9815C236.041 24.1758 236.289 24.3871 236.506 24.6213C237.266 25.4383 237.503 26.3952 237.263 27.4892C237.06 28.4118 236.615 29.1659 235.835 29.7143C234.929 30.3513 233.43 30.4313 232.504 30.0256C231.622 29.6429 230.991 29.0688 230.553 28.2375C230.356 27.8662 230.276 27.4692 230.222 27.0636C230.202 26.9207 230.234 26.7636 230.274 26.6208C230.342 26.3666 230.531 26.2038 230.788 26.2066C231.085 26.2095 231.39 26.2466 231.679 26.318C232.042 26.4066 232.236 26.7008 232.382 27.0264C232.484 27.2607 232.576 27.5063 232.71 27.7234C233.127 28.3832 234.515 28.5517 234.992 27.5891C235.178 27.2178 235.218 26.8093 235.027 26.4123C234.844 26.0324 234.561 25.7468 234.224 25.5011C233.738 25.1412 233.247 24.7899 232.787 24.4014C232.282 23.9758 231.945 23.4245 231.807 22.7704C231.559 21.5879 232.107 20.1739 233.113 19.5427C233.798 19.1114 234.552 18.86 235.387 19.06C235.595 19.1085 235.821 19.1028 236.021 19.1714C237.12 19.5455 238.109 20.5938 238.174 21.8249C238.18 21.9106 238.192 21.9963 238.189 22.082C238.163 22.6162 237.869 22.8475 237.329 22.7618C237.223 22.7447 237.12 22.7104 236.992 22.679L236.998 22.6733Z" fill="#1C1C1B"/>
<path d="M241.4 24.6807C241.398 26.1203 241.395 27.5599 241.389 28.9996C241.389 29.1938 241.389 29.388 241.36 29.5794C241.318 29.8879 241.129 30.105 240.821 30.1364C240.503 30.1707 240.172 30.1792 239.858 30.1278C239.567 30.0821 239.369 29.8622 239.324 29.5537C239.301 29.4052 239.304 29.2538 239.304 29.1024C239.304 26.1346 239.301 23.1668 239.301 20.199C239.301 20.0476 239.301 19.8962 239.324 19.7477C239.367 19.4335 239.555 19.2193 239.861 19.1878C240.201 19.1507 240.549 19.1564 240.889 19.1878C241.149 19.2107 241.312 19.3992 241.358 19.6563C241.392 19.8448 241.386 20.0419 241.386 20.2333C241.386 21.7186 241.386 23.2011 241.386 24.6864C241.389 24.6864 241.395 24.6864 241.398 24.6864L241.4 24.6807Z" fill="#1C1C1B"/>
<path d="M243.073 23.1652C242.919 22.8653 243.022 22.5711 243.168 22.2683C243.431 21.7199 243.788 21.2429 244.187 20.7887C244.316 20.6431 244.43 20.4917 244.647 20.4574C244.722 20.446 244.816 20.386 244.85 20.3203C245.033 19.9689 245.364 19.8061 245.687 19.6376C246.398 19.2663 247.141 18.9806 247.949 18.9264C249.512 18.8264 250.929 19.252 252.2 20.1632C252.625 20.4688 252.939 20.8773 253.259 21.2857C253.428 21.5028 253.257 21.9084 253.028 21.9856C252.928 22.0198 252.82 22.037 252.714 22.0484C252.477 22.0713 252.24 22.077 252.005 22.1055C251.477 22.1741 251.026 22.0084 250.632 21.6714C250.123 21.2343 249.52 21.0144 248.866 20.9458C247.767 20.8316 246.764 21.0944 245.95 21.8684C245.69 22.117 245.476 22.4283 245.296 22.7425C245.139 23.0167 244.91 23.2538 244.879 23.6023C244.813 24.285 244.69 24.9591 244.902 25.6446C245.339 27.0585 246.23 27.9868 247.692 28.3125C248.401 28.4696 249.123 28.3896 249.797 28.1811C250.44 27.9811 251.571 27.0185 251.731 26.0131C251.971 25.7103 251.357 25.5446 250.969 25.5303C250.797 25.5246 250.626 25.5446 250.452 25.5589C249.786 25.6132 250.095 25.6018 249.429 25.6389C249.175 25.6532 248.912 25.6332 248.663 25.5789C248.369 25.5132 248.146 25.2133 248.226 24.9619C248.275 24.8077 248.258 24.7363 248.192 24.5963C248.052 24.2992 248.218 23.9308 248.521 23.7879C248.718 23.6937 248.921 23.6451 249.146 23.6765C249.466 23.7222 249.786 23.7137 250.1 23.5909C250.257 23.5309 250.437 23.5309 250.609 23.5166C251.746 23.4223 251.908 23.4023 253.048 23.3195C253.302 23.3024 253.568 23.3081 253.816 23.3566C254.156 23.4195 254.339 23.668 254.325 24.0022C254.291 24.8277 254.191 26.0302 253.788 26.7586C253.479 27.3213 253.165 28.2639 252.651 28.6809C252.568 28.7495 252.488 28.8238 252.411 28.898C251.671 29.6007 250.786 29.9835 249.797 30.2148C248.455 30.5319 247.19 30.3548 245.958 29.8007C244.802 29.2779 243.93 28.4353 243.311 27.3327C243.196 27.1299 243.065 26.9243 243.093 26.67C243.099 26.6129 243.065 26.5472 243.034 26.4929C242.534 25.616 242.588 24.6734 242.728 23.7308C242.756 23.5394 242.942 23.3709 243.076 23.1624L243.073 23.1652Z" fill="#1C1C1B"/>
<path d="M264.613 25.3871C264.385 26.8124 264.156 28.2349 263.928 29.6602C263.905 29.8088 263.885 29.9602 263.848 30.1058C263.754 30.4686 263.462 30.7028 263.088 30.6685C262.702 30.6314 262.32 30.5657 261.943 30.4743C261.557 30.3829 261.326 30.0973 261.183 29.7402C261.04 29.3803 260.917 29.0118 260.777 28.6519C260.1 26.8838 259.423 25.1157 258.744 23.3476C258.706 23.2476 258.666 23.1448 258.615 23.0534C258.549 22.9306 258.441 22.8592 258.298 22.8792C258.155 22.8992 258.072 22.9991 258.035 23.1305C258.007 23.2334 257.984 23.339 257.967 23.4447C257.744 24.8272 257.504 26.2069 257.312 27.5922C257.252 28.0178 257.178 28.4377 257.084 28.8547C257.044 29.0347 256.944 29.2146 256.835 29.3689C256.718 29.5317 256.536 29.6174 256.327 29.5888C256.05 29.5517 255.77 29.5203 255.499 29.4574C255.159 29.3775 254.996 29.1489 255.013 28.7976C255.025 28.6062 255.03 28.4006 255.102 28.2263C255.196 28.0007 255.207 27.7807 255.207 27.5436C255.207 27.2894 255.27 27.0352 255.31 26.7838C255.35 26.5296 255.379 26.2697 255.442 26.0212C255.567 25.5442 255.542 25.0472 255.679 24.5644C255.807 24.116 255.787 23.6275 255.856 23.1619C255.919 22.7363 256.021 22.3193 256.101 21.8966C256.244 21.1368 256.381 20.377 256.404 19.6C256.41 19.4144 256.484 19.223 256.564 19.0487C256.727 18.6803 256.927 18.5717 257.332 18.6203C257.652 18.6603 257.969 18.7231 258.289 18.7745C258.761 18.8516 259.058 19.1373 259.223 19.5686C259.5 20.2913 259.769 21.0168 260.04 21.7423C260.56 23.1334 261.08 24.5244 261.603 25.9126C261.654 26.0498 261.734 26.1811 261.82 26.304C261.894 26.4125 262.066 26.4268 262.163 26.3268C262.251 26.2383 262.337 26.1326 262.377 26.0183C262.431 25.8584 262.448 25.6813 262.474 25.5128C262.731 23.9189 262.982 22.325 263.242 20.7312C263.277 20.5198 263.319 20.3055 263.394 20.1056C263.494 19.84 263.708 19.6886 263.996 19.7114C264.274 19.7314 264.556 19.7657 264.825 19.8314C265.179 19.9171 265.388 20.237 265.362 20.6083C265.35 20.7569 265.319 20.9054 265.296 21.0539C265.065 22.4993 264.833 23.9446 264.602 25.3899L264.613 25.3871Z" fill="#1C1C1B"/>
<path d="M183.756 19.0328C182.696 18.4986 182.691 16.9876 183.748 16.4449C184.999 15.8022 184.696 13.9341 183.308 13.7199C182.134 13.5399 181.662 12.1032 182.499 11.2634C183.491 10.2665 182.625 8.58122 181.237 8.80687C180.066 8.99825 179.175 7.77857 179.709 6.71885C180.343 5.46489 179 4.1281 177.749 4.77365C176.695 5.31636 175.47 4.43373 175.65 3.25976C175.867 1.86869 174.176 1.01463 173.185 2.01437C172.348 2.857 170.911 2.39427 170.722 1.22315C170.5 -0.16506 168.629 -0.456413 167.995 0.8004C167.46 1.86012 165.949 1.86584 165.407 0.808969C164.764 -0.442132 162.896 -0.139354 162.682 1.24886C162.502 2.42283 161.065 2.89414 160.225 2.05722C159.228 1.06605 157.543 1.93153 157.769 3.31974C157.96 4.49086 156.74 5.38206 155.681 4.84791C154.427 4.21379 153.093 5.5563 153.735 6.8074C154.118 7.55006 153.793 8.37841 153.156 8.73832C152.89 8.88971 152.567 8.95826 152.222 8.90399H151.987C150.785 8.9097 150.148 10.2751 150.822 11.192C150.825 11.1977 150.828 11.2005 150.833 11.2063C150.853 11.232 150.873 11.2577 150.893 11.2834C150.919 11.3148 150.948 11.3434 150.976 11.3719C151.005 11.4005 151.03 11.4291 151.056 11.4576C151.056 11.4576 151.059 11.4633 151.062 11.4662C151.105 11.5176 151.142 11.5719 151.176 11.6261C151.613 12.3602 151.099 13.3571 150.199 13.42C150.191 13.42 150.185 13.42 150.176 13.42C150.162 13.42 150.148 13.42 150.134 13.42C150.082 13.42 150.031 13.4228 149.979 13.4228C149.942 13.4228 149.905 13.4228 149.865 13.4228C149.811 13.4228 149.757 13.4228 149.702 13.4171C149.668 13.4171 149.631 13.4171 149.597 13.4114C149.537 13.4085 149.477 13.4028 149.417 13.3971C149.388 13.3942 149.357 13.3914 149.328 13.3885C149.237 13.3771 149.148 13.3657 149.057 13.3514C148.265 13.2172 147.449 13.2943 146.689 13.5742C146.083 13.7999 145.518 14.1512 145.035 14.6368C143.253 16.4306 143.264 19.327 145.058 21.1094C145.746 21.792 146.594 22.2091 147.483 22.3662C148.468 22.5404 149.499 22.389 150.408 21.9149C150.813 21.7035 151.193 21.4264 151.53 21.0865L154.758 17.8359L157.986 14.5854C158.637 13.9284 159.443 13.5142 160.285 13.3371C160.862 13.2172 161.456 13.2057 162.033 13.3057C162.922 13.4628 163.77 13.8798 164.458 14.5625C166.252 16.342 166.264 19.2413 164.481 21.0351C163.999 21.5207 163.433 21.872 162.827 22.0977C162.733 22.132 162.639 22.1634 162.545 22.1919C162.513 22.2005 162.479 22.2091 162.447 22.2176C162.385 22.2348 162.319 22.2519 162.256 22.2691C162.216 22.2776 162.179 22.2833 162.139 22.2919C162.082 22.3033 162.022 22.3176 161.965 22.3262C161.922 22.3319 161.882 22.3376 161.839 22.3433C161.782 22.3519 161.728 22.3605 161.671 22.3633C161.628 22.3662 161.582 22.369 161.539 22.3719C161.485 22.3747 161.431 22.3805 161.373 22.3833C161.328 22.3833 161.285 22.3833 161.239 22.3833C161.185 22.3833 161.131 22.3833 161.076 22.3833C161.031 22.3833 160.985 22.3776 160.939 22.3748C160.885 22.3719 160.831 22.369 160.779 22.3633C160.734 22.3576 160.688 22.3519 160.642 22.3462C160.597 22.3405 160.551 22.3376 160.508 22.329C159.631 22.1891 158.748 22.2662 157.923 22.5318C156.358 23.0374 155.324 24.5627 155.526 26.1937C155.532 26.2309 155.535 26.2652 155.544 26.3023L155.926 28.5617C156.055 29.3272 156.043 30.0642 155.918 30.7554C156.938 30.3612 158.043 31.2153 157.869 32.335C157.652 33.7261 159.343 34.5801 160.334 33.5804C161.171 32.7377 162.607 33.2005 162.796 34.3716C163.019 35.7598 164.89 36.0512 165.524 34.7943C166.058 33.7346 167.569 33.7289 168.112 34.7858C168.754 36.0369 170.622 35.7341 170.837 34.3459C171.017 33.1719 172.453 32.7006 173.293 33.5375C174.29 34.5287 175.975 33.6632 175.75 32.275C175.558 31.1039 176.778 30.2127 177.838 30.7468C179.092 31.381 180.428 30.0385 179.783 28.7874C179.24 27.7333 180.123 26.5079 181.297 26.6879C182.688 26.905 183.542 25.214 182.542 24.2228C181.7 23.3859 182.162 21.9491 183.333 21.7606C184.722 21.5378 185.013 19.6669 183.756 19.0328Z" fill="#F05528"/>
<path d="M164.461 14.5616C163.772 13.8789 162.924 13.4619 162.036 13.3048C161.456 13.202 160.862 13.2134 160.287 13.3362C159.445 13.5133 158.642 13.9275 157.988 14.5845L154.76 17.835L151.533 21.0856C151.193 21.4284 150.813 21.7026 150.41 21.914C149.504 22.3881 148.473 22.5367 147.485 22.3653C146.597 22.2082 145.748 21.7911 145.06 21.1085C143.266 19.3289 143.255 16.4297 145.037 14.6359C145.52 14.1503 146.085 13.7989 146.691 13.5733C147.448 13.2934 148.268 13.2162 149.059 13.3505C149.15 13.3648 149.239 13.3791 149.33 13.3876C149.359 13.3905 149.39 13.3933 149.419 13.3962C149.479 13.4019 149.539 13.4076 149.599 13.4105C149.633 13.4105 149.67 13.4133 149.704 13.4162C149.759 13.4162 149.813 13.4219 149.867 13.4219C149.904 13.4219 149.944 13.4219 149.982 13.4219C150.033 13.4219 150.084 13.4219 150.136 13.4191C150.15 13.4191 150.164 13.4191 150.179 13.4191C150.187 13.4191 150.193 13.4191 150.201 13.4191C151.098 13.3562 151.615 12.3593 151.178 11.6252C151.147 11.571 151.11 11.5167 151.064 11.4653C151.064 11.4653 151.061 11.4596 151.058 11.4567C151.033 11.4281 151.007 11.3996 150.978 11.371C150.95 11.3425 150.921 11.311 150.896 11.2825C150.876 11.2568 150.856 11.2311 150.836 11.2053C150.833 11.1996 150.83 11.1968 150.824 11.1911C150.15 10.2742 150.784 8.90881 151.99 8.90596H152.224C152.569 8.96023 152.889 8.88882 153.158 8.73743C151.33 8.4118 149.756 7.20926 148.928 5.48686L147.939 3.43311C145.825 -0.954311 139.57 -0.934315 137.488 3.46739L136.514 5.52685C135.671 7.30924 134.034 8.54605 132.138 8.83741L129.944 9.17446C125.165 9.90855 123.277 15.9898 126.748 19.4632L128.341 21.0599C129.718 22.4395 130.352 24.4333 130.035 26.3871L129.667 28.6493C128.867 33.5738 133.877 37.3128 138.145 34.9734L140.104 33.8994C141.792 32.9739 143.835 32.9682 145.528 33.8823L147.496 34.942C151.113 36.8929 155.229 34.5078 155.923 30.7545C156.051 30.0633 156.063 29.3263 155.931 28.5608L155.549 26.3014C155.543 26.27 155.537 26.2357 155.534 26.1986V26.1928C155.332 24.5618 156.366 23.0365 157.931 22.5309C158.754 22.2653 159.639 22.1882 160.516 22.3281C160.562 22.3339 160.607 22.3396 160.65 22.3453C160.696 22.351 160.742 22.3567 160.787 22.3624C160.842 22.3681 160.893 22.371 160.947 22.3738C160.993 22.3738 161.039 22.3796 161.084 22.3824C161.139 22.3824 161.193 22.3824 161.247 22.3824C161.293 22.3824 161.336 22.3824 161.381 22.3824C161.436 22.3824 161.493 22.3767 161.547 22.371C161.59 22.3681 161.636 22.3653 161.678 22.3624C161.736 22.3567 161.79 22.3481 161.847 22.3424C161.89 22.3367 161.933 22.3339 161.973 22.3253C162.03 22.3167 162.09 22.3024 162.147 22.291C162.187 22.2824 162.227 22.2767 162.264 22.2682C162.327 22.2539 162.393 22.2367 162.455 22.2167C162.487 22.2082 162.521 22.1996 162.553 22.191C162.647 22.1625 162.744 22.1311 162.835 22.0968C163.441 21.8711 164.006 21.5198 164.489 21.0342C166.272 19.2404 166.26 16.344 164.466 14.5616H164.461Z" fill="#F7C02A"/>
<path d="M320.373 4.06691L314.774 0H307.855L302.257 4.06691L300.117 10.6492L302.257 17.2291L307.855 21.296H314.774L320.373 17.2291L322.512 10.6492L320.373 4.06691ZM314.551 15.1022H308.079L306.08 8.9477L311.315 5.14388L316.55 8.9477L314.551 15.1022ZM313.014 5.84957L312.505 4.28083L313.771 3.36123L317.491 6.06349L317.007 7.55108H315.357L313.014 5.84957ZM312.001 4.11609L312.426 5.42173L311.315 4.61523L310.203 5.42173L310.629 4.11609L309.517 3.30959H310.892L311.317 2.00395L311.743 3.30959H313.117L312.001 4.11609ZM310.127 4.27837L309.618 5.84711L307.277 7.54862H305.628L305.143 6.06103L308.861 3.35877L310.127 4.27837ZM305.315 7.97646H306.69L305.578 8.78296L306.004 10.0886L304.892 9.2821L303.781 10.0886L304.206 8.78296L303.095 7.97646H304.469L304.895 6.67082L305.315 7.97646ZM304.892 9.8083L306.228 10.7771L307.123 13.531L306.614 15.0997H305.05L303.629 10.7279L304.892 9.8083ZM306.921 15.5275L307.346 14.2219L307.772 15.5275H309.146L308.035 16.334L308.46 17.6397L307.349 16.8332L306.237 17.6397L306.663 16.334L305.551 15.5275H306.921ZM308.534 16.4963L309.869 15.5251H312.763L314.098 16.4939L313.614 17.9815H309.016L308.534 16.4963ZM313.488 15.5275H314.863L315.288 14.2219L315.714 15.5275H317.088L315.977 16.334L316.402 17.6397L315.291 16.8332L314.179 17.6397L314.605 16.334L313.488 15.5275ZM316.019 15.1022L315.51 13.5334L316.405 10.7795L317.74 9.81075L319.006 10.7304L317.585 15.1022H316.019ZM317.737 9.2821L316.626 10.0886L317.051 8.78296L315.94 7.97646H317.314L317.74 6.67082L318.165 7.97646H319.54L318.428 8.78296L318.854 10.0886L317.737 9.2821ZM318.473 7.55108L318.143 6.53804L319.535 7.55108H318.473ZM314.425 3.30959H316.648L317.334 5.42419L314.425 3.30959ZM312.05 2.88421L311.721 1.87117L313.112 2.88421H312.05ZM310.582 2.88421H309.517L310.909 1.87117L310.582 2.88421ZM305.298 5.42419L305.984 3.30959H308.207L305.298 5.42419ZM304.157 7.55108H303.093L304.484 6.53804L304.157 7.55108ZM303.705 8.94524L303.375 9.95828L302.844 8.3207L303.705 8.94524ZM303.375 11.3377L304.487 14.7579L302.689 13.4523L303.375 11.3377ZM306.159 16.4963L305.829 17.5094L305.298 15.8718L306.159 16.4963ZM307.346 17.3594L308.207 17.9839H306.486L307.346 17.3594ZM313.112 18.4118L311.315 19.7174L309.517 18.4118H313.112ZM315.286 17.3594L316.146 17.9839H314.425L315.286 17.3594ZM316.474 16.4963L317.334 15.8718L316.803 17.5094L316.474 16.4963ZM319.254 11.3377L319.94 13.4523L318.143 14.7579L319.254 11.3377ZM319.254 9.95828L318.925 8.94524L319.786 8.3207L319.254 9.95828ZM317.919 5.84957L317.132 3.42762L319.977 4.35214V7.34454L317.919 5.84957ZM313.838 2.88421L311.78 1.38924L314.624 0.46472L316.383 2.88667H313.838V2.88421ZM308.792 2.88421H306.247L308.005 0.46226L310.853 1.38678L308.792 2.88421ZM304.71 5.84957L302.65 7.34454V4.35214L305.495 3.42762L304.71 5.84957ZM302.365 8.22726L303.152 10.6492L302.365 13.0712L300.607 10.6517L302.365 8.22726ZM304.71 15.4464L305.497 17.8684L302.652 16.9438V13.9514L304.71 15.4464ZM308.792 18.4118L310.853 19.9067L308.008 20.8313L306.25 18.4093H308.792V18.4118ZM313.838 18.4118H316.383L314.624 20.8337L311.777 19.9092L313.838 18.4118ZM317.919 15.4464L319.98 13.9514V16.9438L317.135 17.8684L317.919 15.4464ZM320.265 13.0687L319.478 10.6468L320.265 8.2248L322.023 10.6468L320.265 13.0687ZM320.405 7.6937V5.54222L321.669 9.43455L320.405 7.6937ZM316.933 2.91618L315.669 1.17532L318.982 3.58006L316.933 2.91618ZM311.315 1.08926L309.269 0.425378H313.361L311.315 1.08926ZM305.699 2.91618L303.653 3.58006L306.965 1.17532L305.699 2.91618ZM302.225 7.6937L300.961 9.43455L302.225 5.54222V7.6937ZM302.225 13.5998V15.7513L300.961 11.859L302.225 13.5998ZM305.696 18.3798L306.96 20.1207L303.648 17.7159L305.696 18.3798ZM311.315 20.2043L313.361 20.8681H309.269L311.315 20.2043ZM316.933 18.3798L318.979 17.7159L315.667 20.1207L316.933 18.3798ZM320.405 13.5998L321.669 11.859L320.405 15.7513V13.5998Z" fill="#F6323E"/>
<path d="M296.781 33.0865L296.304 33.4602C296.132 33.2119 295.883 33.0446 295.544 33.0446C294.998 33.0446 294.629 33.4676 294.629 34.0675C294.629 34.6724 294.998 35.0953 295.544 35.0953C295.883 35.0953 296.132 34.933 296.304 34.6798L296.781 35.0535C296.501 35.4568 296.085 35.683 295.534 35.683C294.654 35.683 293.953 35.024 293.953 34.0675C293.953 33.111 294.654 32.457 295.534 32.457C296.085 32.457 296.498 32.6857 296.781 33.0865Z" fill="black"/>
<path d="M297.941 32.5039H297.282V35.6414H297.941V32.5039Z" fill="black"/>
<path d="M300.127 33.0867V35.6414H299.468V33.0867H298.436V32.5039H301.163V33.0867H300.127Z" fill="black"/>
<path d="M303.289 35.6414H302.63V34.4808L301.396 32.5039H302.163L302.957 33.8268L303.749 32.5039H304.516L303.289 34.4808V35.6414Z" fill="black"/>
<path d="M309.013 34.0675C309.013 35.0289 308.312 35.683 307.38 35.683C306.446 35.683 305.75 35.0289 305.75 34.0675C305.75 33.111 306.446 32.457 307.38 32.457C308.317 32.457 309.013 33.111 309.013 34.0675ZM306.421 34.0675C306.421 34.6724 306.815 35.0953 307.378 35.0953C307.941 35.0953 308.334 34.6724 308.334 34.0675C308.334 33.4676 307.943 33.0446 307.378 33.0446C306.815 33.0446 306.421 33.47 306.421 34.0675Z" fill="black"/>
<path d="M310.193 33.0866V33.7456H311.002V34.3332H310.193V35.6413H309.534V32.5039H311.155V33.0866H310.193Z" fill="black"/>
<path d="M314.07 32.5039C314.973 32.5039 315.686 33.0449 315.686 34.0776C315.686 35.1054 314.973 35.6414 314.07 35.6414H312.841V32.5039H314.07ZM313.5 35.0586H314.07C314.582 35.0586 315.01 34.7316 315.01 34.0776C315.01 33.4137 314.582 33.0867 314.07 33.0867H313.5V35.0586Z" fill="black"/>
<path d="M316.928 33.0867V33.7505H317.791V34.321H316.928V35.0586H317.916V35.6414H316.269V32.5039H317.911V33.0867H316.928Z" fill="black"/>
<path d="M320.476 33.1215L319.868 33.3231C319.814 33.151 319.714 33.0453 319.536 33.0453C319.345 33.0453 319.234 33.1707 319.234 33.36C319.234 33.5813 319.414 33.6526 319.77 33.7952C320.24 33.9796 320.505 34.1886 320.505 34.6976C320.505 35.3025 320.102 35.691 319.47 35.691C318.929 35.691 318.595 35.4475 318.405 34.9484L318.998 34.6927C319.089 34.9533 319.254 35.1033 319.48 35.1033C319.677 35.1033 319.832 34.9828 319.832 34.7419C319.832 34.5402 319.718 34.4493 319.374 34.314C318.858 34.1173 318.56 33.8788 318.56 33.3944C318.56 32.8461 318.882 32.4551 319.541 32.4551C320.018 32.4576 320.323 32.6715 320.476 33.1215Z" fill="black"/>
<path d="M321.813 32.5039H321.154V35.6414H321.813V32.5039Z" fill="black"/>
<path d="M325.3 33.0865L324.825 33.4602C324.653 33.2119 324.42 33.0446 324.078 33.0446C323.529 33.0446 323.175 33.4676 323.175 34.0675C323.175 34.6724 323.544 35.0953 324.09 35.0953C324.326 35.0953 324.523 35.0191 324.673 34.8814V34.5716H324.127V33.9888H325.329V35.1347C325.044 35.4666 324.629 35.683 324.08 35.683C323.2 35.683 322.499 35.024 322.499 34.0675C322.499 33.111 323.188 32.457 324.063 32.457C324.621 32.457 325.019 32.6857 325.3 33.0865Z" fill="black"/>
<path d="M328.034 35.6414L326.654 33.6571V35.6414H325.995V32.5039H326.62L328.002 34.4759V32.5039H328.658V35.6414H328.034Z" fill="black"/>
<path d="M293.107 25.9181L292.008 26.282C291.909 25.9722 291.727 25.7829 291.41 25.7829C291.061 25.7829 290.864 26.0091 290.864 26.3509C290.864 26.7517 291.189 26.882 291.833 27.1377C292.681 27.4721 293.158 27.8508 293.158 28.7655C293.158 29.8547 292.431 30.5604 291.287 30.5604C290.311 30.5604 289.704 30.1203 289.364 29.2204L290.432 28.7581C290.599 29.2277 290.894 29.5007 291.302 29.5007C291.658 29.5007 291.939 29.2818 291.939 28.8491C291.939 28.4852 291.735 28.318 291.113 28.077C290.181 27.7205 289.645 27.2902 289.645 26.4173C289.645 25.4264 290.227 24.7207 291.418 24.7207C292.281 24.7207 292.834 25.1067 293.107 25.9181Z" fill="black"/>
<path d="M295.295 24.8047H294.105V30.4698H295.295V24.8047Z" fill="black"/>
<path d="M300.102 30.4674L297.612 26.8873V30.4674H296.424V24.8047H297.553L300.043 28.3626V24.8047H301.231V30.4674H300.102Z" fill="black"/>
<path d="M307.161 25.8572L306.305 26.5308C305.995 26.0833 305.57 25.781 304.958 25.781C303.967 25.781 303.33 26.5457 303.33 27.6275C303.33 28.7193 303.996 29.4839 304.98 29.4839C305.403 29.4839 305.759 29.3487 306.032 29.0979V28.5373H305.049V27.4848H307.222V29.5527C306.709 30.1502 305.959 30.5436 304.965 30.5436C303.374 30.5436 302.11 29.3537 302.11 27.6275C302.11 25.9014 303.352 24.7188 304.936 24.7188C305.934 24.7212 306.652 25.1294 307.161 25.8572Z" fill="black"/>
<path d="M312.357 30.4679L311.88 29.295H309.51L309.025 30.4679H307.73L310.07 24.8027H311.32L313.653 30.4679H312.357ZM311.462 28.2574L310.69 26.3715L309.918 28.2574H311.462Z" fill="black"/>
<path d="M316.112 24.8047C317.262 24.8047 318.027 25.4096 318.027 26.5923C318.027 27.7725 317.262 28.3798 316.112 28.3798H315.544V30.4698H314.354V24.8047H316.112ZM315.544 27.3176H316.043C316.498 27.3176 316.815 27.0668 316.815 26.5898C316.815 26.1128 316.498 25.8546 316.043 25.8546H315.544V27.3176Z" fill="black"/>
<path d="M324.587 27.6295C324.587 29.363 323.323 30.5457 321.641 30.5457C319.952 30.5457 318.695 29.3654 318.695 27.6295C318.695 25.9034 319.952 24.7207 321.641 24.7207C323.328 24.7207 324.587 25.9009 324.587 27.6295ZM319.905 27.6295C319.905 28.7212 320.616 29.4859 321.631 29.4859C322.647 29.4859 323.357 28.7212 323.357 27.6295C323.357 26.5476 322.654 25.7829 321.631 25.7829C320.618 25.7804 319.905 26.5451 319.905 27.6295Z" fill="black"/>
<path d="M327.213 28.3705H326.652V30.4679H325.462V24.8027H327.21C328.361 24.8027 329.133 25.4076 329.133 26.5903C329.133 27.3034 328.853 27.8025 328.383 28.0828L329.519 30.4679H328.201L327.213 28.3705ZM327.146 27.3181C327.601 27.3181 327.918 27.0673 327.918 26.5903C327.918 26.1133 327.601 25.8551 327.146 25.8551H326.655V27.3157H327.146V27.3181Z" fill="black"/>
<path d="M331.477 25.8571V27.0545H333.038V28.0823H331.477V29.415H333.264V30.4674H330.289V24.8047H333.257V25.8571H331.477Z" fill="black"/>
</g>
<defs>
<clipPath id="clip0_5367_55699">
<rect width="333" height="36" fill="white" transform="translate(0.255859)"/>
</clipPath>
</defs>
</svg>
