<svg width="1440" height="543" viewBox="0 0 1440 543" fill="none" xmlns="http://www.w3.org/2000/svg">
<path d="M780.699 38.3527C811.526 -22.1473 901.699 -7.80529 912.249 59.1238C921.151 115.667 990.553 138.252 1030.94 97.6987C1078.91 49.7274 1160.35 91.1047 1149.63 158.199C1140.73 214.742 1199.58 257.603 1250.69 231.557C1311.19 200.73 1375.81 265.351 1344.98 325.851C1318.93 376.79 1361.8 435.806 1418.34 426.904C1485.43 416.189 1526.81 497.625 1478.84 545.596C1438.29 585.985 1460.87 655.387 1517.41 664.288C1584.51 674.839 1598.68 765.177 1538.18 795.839C1487.08 821.885 1487.08 894.749 1538.18 920.63C1598.68 951.457 1584.34 1041.63 1517.41 1052.18C1460.87 1061.08 1438.29 1130.48 1478.84 1170.87C1526.81 1218.84 1485.43 1300.28 1418.34 1289.56C1361.8 1280.66 1318.93 1339.51 1344.98 1390.62C1375.81 1451.12 1311.19 1515.74 1250.69 1484.91C1199.75 1458.87 1140.73 1501.73 1149.63 1558.27C1160.35 1625.36 1078.91 1666.74 1030.94 1618.77C990.553 1578.22 921.151 1600.8 912.249 1657.35C901.699 1724.44 811.361 1738.62 780.699 1678.12C754.652 1627.01 681.789 1627.01 655.907 1678.12C625.08 1738.62 534.908 1724.27 524.357 1657.35C515.455 1600.8 446.053 1578.22 405.665 1618.77C357.694 1666.74 276.258 1625.36 286.973 1558.27C295.875 1501.73 237.024 1458.87 185.92 1484.91C125.42 1515.74 60.7989 1451.12 91.6258 1390.62C117.672 1339.68 74.8109 1280.66 18.2674 1289.56C-48.8266 1300.28 -90.2039 1218.84 -42.2325 1170.87C-1.67943 1130.48 -24.2638 1061.08 -80.8074 1052.18C-147.901 1041.63 -162.078 951.292 -101.578 920.63C-50.4749 894.584 -50.4749 821.72 -101.578 795.839C-162.078 765.012 -147.736 674.839 -80.8074 664.288C-24.2638 655.387 -1.67943 585.985 -42.2325 545.596C-90.2039 497.625 -48.8266 416.189 18.2674 426.904C74.8109 435.806 117.672 376.955 91.6258 325.851C60.7989 265.351 125.42 200.73 185.92 231.557C236.859 257.603 295.875 214.742 286.973 158.199C276.258 91.1047 357.694 49.7274 405.665 97.6987C446.053 138.252 515.455 115.667 524.357 59.1238C534.908 -7.97015 625.245 -22.1473 655.907 38.3527C681.954 89.4562 754.817 89.4562 780.699 38.3527Z" fill="#F7EFC4"/>
</svg>
