<svg width="289" height="49" viewBox="0 0 289 49" fill="none" xmlns="http://www.w3.org/2000/svg">
<path d="M26.2615 1.3147C27.1235 -0.377147 29.6451 0.0239172 29.9402 1.89555C30.1891 3.47676 32.1299 4.10832 33.2593 2.97427C34.6008 1.63278 36.8781 2.78988 36.5785 4.66612C36.3295 6.24732 37.9753 7.44591 39.4044 6.71754C41.0962 5.85548 42.9033 7.66257 42.0413 9.35442C41.3129 10.7789 42.5115 12.4292 44.0927 12.1803C45.9689 11.8807 47.126 14.158 45.7845 15.4995C44.6505 16.6289 45.282 18.5697 46.8632 18.8186C48.7395 19.1136 49.1359 21.6399 47.4441 22.4973C46.015 23.2257 46.015 25.2633 47.4441 25.987C49.1359 26.8491 48.7349 29.3707 46.8632 29.6658C45.282 29.9147 44.6505 31.8555 45.7845 32.9849C47.126 34.3264 45.9689 36.6037 44.0927 36.3041C42.5115 36.0551 41.3129 37.7009 42.0413 39.13C42.9033 40.8218 41.0962 42.6289 39.4044 41.7668C37.9799 41.0385 36.3295 42.237 36.5785 43.8183C36.8781 45.6945 34.6008 46.8516 33.2593 45.5101C32.1299 44.3761 30.1891 45.0076 29.9402 46.5888C29.6451 48.4651 27.1189 48.8615 26.2615 47.1697C25.5331 45.7406 23.4955 45.7406 22.7717 47.1697C21.9097 48.8615 19.3881 48.4605 19.093 46.5888C18.8441 45.0076 16.9033 44.3761 15.7739 45.5101C14.4324 46.8516 12.1551 45.6945 12.4547 43.8183C12.7037 42.237 11.0579 41.0385 9.62883 41.7668C7.93699 42.6289 6.1299 40.8218 6.99195 39.13C7.72032 37.7055 6.52173 36.0551 4.94053 36.3041C3.06429 36.6037 1.90719 34.3264 3.24868 32.9849C4.38273 31.8555 3.75117 29.9147 2.16996 29.6658C0.29372 29.3707 -0.102732 26.8445 1.58911 25.987C3.01819 25.2587 3.01819 23.2211 1.58911 22.4973C-0.102732 21.6353 0.29833 19.1136 2.16996 18.8186C3.75117 18.5697 4.38273 16.6289 3.24868 15.4995C1.90719 14.158 3.06429 11.8807 4.94053 12.1803C6.52173 12.4292 7.72032 10.7835 6.99195 9.35442C6.1299 7.66257 7.93699 5.85548 9.62883 6.71754C11.0533 7.44591 12.7037 6.24732 12.4547 4.66612C12.1551 2.78988 14.4324 1.63278 15.7739 2.97427C16.9033 4.10832 18.8441 3.47676 19.093 1.89555C19.3881 0.0193071 21.9143 -0.377147 22.7717 1.3147C23.5001 2.74378 25.5377 2.74378 26.2615 1.3147Z" fill="#0D5A33"/>
<path d="M266.261 1.3147C267.124 -0.377147 269.645 0.0239172 269.94 1.89555C270.189 3.47676 272.13 4.10832 273.259 2.97427C274.601 1.63278 276.878 2.78988 276.578 4.66612C276.33 6.24732 277.975 7.44591 279.404 6.71754C281.096 5.85548 282.903 7.66257 282.041 9.35442C281.313 10.7789 282.511 12.4292 284.093 12.1803C285.969 11.8807 287.126 14.158 285.785 15.4995C284.65 16.6289 285.282 18.5697 286.863 18.8186C288.739 19.1136 289.136 21.6399 287.444 22.4973C286.015 23.2257 286.015 25.2633 287.444 25.987C289.136 26.8491 288.735 29.3707 286.863 29.6658C285.282 29.9147 284.65 31.8555 285.785 32.9849C287.126 34.3264 285.969 36.6037 284.093 36.3041C282.511 36.0551 281.313 37.7009 282.041 39.13C282.903 40.8218 281.096 42.6289 279.404 41.7668C277.98 41.0385 276.33 42.237 276.578 43.8183C276.878 45.6945 274.601 46.8516 273.259 45.5101C272.13 44.3761 270.189 45.0076 269.94 46.5888C269.645 48.4651 267.119 48.8615 266.261 47.1697C265.533 45.7406 263.496 45.7406 262.772 47.1697C261.91 48.8615 259.388 48.4605 259.093 46.5888C258.844 45.0076 256.903 44.3761 255.774 45.5101C254.432 46.8516 252.155 45.6945 252.455 43.8183C252.704 42.237 251.058 41.0385 249.629 41.7668C247.937 42.6289 246.13 40.8218 246.992 39.13C247.72 37.7055 246.522 36.0551 244.941 36.3041C243.064 36.6037 241.907 34.3264 243.249 32.9849C244.383 31.8555 243.751 29.9147 242.17 29.6658C240.294 29.3707 239.897 26.8445 241.589 25.987C243.018 25.2587 243.018 23.2211 241.589 22.4973C239.897 21.6353 240.298 19.1136 242.17 18.8186C243.751 18.5697 244.383 16.6289 243.249 15.4995C241.907 14.158 243.064 11.8807 244.941 12.1803C246.522 12.4292 247.72 10.7835 246.992 9.35442C246.13 7.66257 247.937 5.85548 249.629 6.71754C251.053 7.44591 252.704 6.24732 252.455 4.66612C252.155 2.78988 254.432 1.63278 255.774 2.97427C256.903 4.10832 258.844 3.47676 259.093 1.89555C259.388 0.0193071 261.914 -0.377147 262.772 1.3147C263.5 2.74378 265.538 2.74378 266.261 1.3147Z" fill="#0D5A33"/>
</svg>
