<svg width="361" height="73" viewBox="0 0 361 73" fill="none" xmlns="http://www.w3.org/2000/svg">
<path d="M198.708 11.8717C207.799 -5.96967 234.39 -1.74025 237.502 17.997C240.127 34.6717 260.593 41.3318 272.504 29.3727C286.651 15.2261 310.666 27.4282 307.506 47.2141C304.881 63.8887 322.236 76.5283 337.306 68.8473C355.148 59.7565 374.204 78.8132 365.114 96.6545C357.433 111.676 370.072 129.08 386.747 126.455C406.533 123.295 418.735 147.31 404.588 161.457C392.629 173.367 399.289 193.834 415.964 196.459C435.75 199.57 439.931 226.211 422.089 235.253C407.019 242.934 407.019 264.422 422.089 272.054C439.931 281.145 435.701 307.737 415.964 310.848C399.289 313.473 392.629 333.94 404.588 345.85C418.735 359.997 406.533 384.012 386.747 380.852C370.072 378.227 357.433 395.582 365.114 410.653C374.204 428.494 355.148 447.551 337.306 438.46C322.285 430.779 304.881 443.418 307.506 460.093C310.666 479.879 286.651 492.081 272.504 477.934C260.593 465.975 240.127 472.635 237.502 489.31C234.39 509.096 207.75 513.277 198.708 495.435C191.027 480.365 169.539 480.365 161.907 495.435C152.816 513.277 126.224 509.047 123.113 489.31C120.488 472.635 100.021 465.975 88.1108 477.934C73.9641 492.081 49.9488 479.879 53.1087 460.093C55.7339 443.418 38.3787 430.779 23.3084 438.46C5.46703 447.551 -13.5897 428.494 -4.49886 410.653C3.18216 395.631 -9.45755 378.227 -26.1322 380.852C-45.9181 384.012 -58.1202 359.997 -43.9735 345.85C-32.0144 333.94 -38.6745 313.473 -55.3492 310.848C-75.1351 307.737 -79.3158 281.096 -61.4745 272.054C-46.4042 264.373 -46.4042 242.886 -61.4745 235.253C-79.3158 226.162 -75.0865 199.57 -55.3492 196.459C-38.6745 193.834 -32.0144 173.367 -43.9735 161.457C-58.1202 147.31 -45.9181 123.295 -26.1322 126.455C-9.45755 129.08 3.18216 111.725 -4.49886 96.6545C-13.5897 78.8132 5.46703 59.7565 23.3084 68.8473C38.3301 76.5283 55.7339 63.8887 53.1087 47.2141C49.9488 27.4282 73.9641 15.2261 88.1108 29.3727C100.021 41.3318 120.488 34.6717 123.113 17.997C126.224 -1.78886 152.865 -5.96967 161.907 11.8717C169.588 26.942 191.075 26.942 198.708 11.8717Z" fill="#F7EFC4"/>
</svg>
