<svg width="285" height="284" viewBox="0 0 285 284" fill="none" xmlns="http://www.w3.org/2000/svg">
<path d="M171.203 11.1319C177.556 2.05866 191.797 6.4226 191.981 17.4737C192.136 26.8098 202.834 32.0336 210.279 26.3997C219.117 19.7395 231.333 28.2724 228.079 38.8673C225.357 47.7992 233.891 56.059 242.737 53.0117C253.21 49.4055 262.182 61.3113 255.829 70.3845C250.465 78.0217 256.048 88.5282 265.385 88.3739C276.466 88.1662 281.301 102.261 272.463 108.921C264.995 114.524 267.068 126.248 276 128.97C286.598 132.197 286.838 147.112 276.368 150.692C267.522 153.739 265.868 165.509 273.535 170.85C282.608 177.203 278.245 191.444 267.193 191.629C257.857 191.783 252.634 202.482 258.267 209.927C264.928 218.765 256.395 230.98 245.8 227.726C236.868 225.005 228.608 233.538 231.655 242.385C235.262 252.858 223.356 261.829 214.283 255.476C206.645 250.112 196.139 255.696 196.293 265.032C196.501 276.114 182.407 280.949 175.746 272.111C170.143 264.643 158.419 266.715 155.697 275.647C152.47 286.246 137.555 286.485 133.975 276.016C130.928 267.17 119.158 265.515 113.817 273.183C107.464 282.256 93.2229 277.892 93.0381 266.841C92.8838 257.505 82.1855 252.281 74.7405 257.915C65.9023 264.575 53.6867 256.042 56.9408 245.447C59.6625 236.516 51.1288 228.256 42.2823 231.303C31.8094 234.909 22.8377 223.003 29.191 213.93C34.5549 206.293 28.971 195.787 19.6349 195.941C8.55345 196.149 3.71825 182.054 12.5565 175.394C20.0243 169.791 17.9517 158.067 9.01985 155.345C-1.57886 152.118 -1.81807 137.203 8.65109 133.623C17.4976 130.576 19.1518 118.806 11.4842 113.465C2.411 107.111 6.77493 92.8706 17.826 92.6858C27.1621 92.5315 32.3859 81.8331 26.752 74.3882C20.0919 65.55 28.6247 53.3343 39.2197 56.5885C48.1515 59.3102 56.4113 50.7765 53.364 41.93C49.7578 31.4571 61.6637 22.4854 70.7369 28.8386C78.3741 34.2025 88.8805 28.6187 88.7262 19.2826C88.5185 8.20114 102.613 3.36593 109.273 12.2042C114.877 19.672 126.6 17.5994 129.322 8.66753C132.55 -1.93118 147.464 -2.17041 151.044 8.29875C154.091 17.1452 165.861 18.7994 171.203 11.1319Z" fill="#0D5A33"/>
</svg>
