<svg xmlns="http://www.w3.org/2000/svg" xmlns:xlink="http://www.w3.org/1999/xlink" width="1256" zoomAndPan="magnify" viewBox="0 0 942 169.5" height="226" preserveAspectRatio="xMidYMid meet" version="1.2"><defs><clipPath id="f54eb7ffff"><path d="M 878 20 L 940.613281 20 L 940.613281 106 L 878 106 Z M 878 20 "/></clipPath></defs><g id="9d2eee3901"><path style=" stroke:none;fill-rule:nonzero;fill:#f05227;fill-opacity:1;" d="M 212.007812 85.707031 C 208.277344 83.828125 208.261719 78.519531 211.976562 76.609375 C 216.394531 74.355469 215.320312 67.78125 210.441406 67.019531 C 206.304688 66.378906 204.648438 61.339844 207.589844 58.371094 C 211.082031 54.882812 208.035156 48.945312 203.140625 49.738281 C 199.023438 50.394531 195.886719 46.113281 197.785156 42.382812 C 200.023438 37.957031 195.292969 33.273438 190.886719 35.539062 C 187.171875 37.433594 182.84375 34.332031 183.484375 30.214844 C 184.246094 25.324219 178.308594 22.328125 174.816406 25.832031 C 171.875 28.785156 166.816406 27.171875 166.144531 23.042969 C 165.351562 18.167969 158.769531 17.136719 156.546875 21.566406 C 154.667969 25.28125 149.355469 25.308594 147.445312 21.597656 C 145.191406 17.199219 138.609375 18.257812 137.847656 23.164062 C 137.207031 27.292969 132.160156 28.949219 129.191406 26.011719 C 125.699219 22.519531 119.757812 25.5625 120.550781 30.453125 C 121.207031 34.570312 116.921875 37.703125 113.191406 35.824219 C 108.757812 33.570312 104.074219 38.296875 106.339844 42.699219 C 107.683594 45.324219 106.535156 48.230469 104.296875 49.484375 C 103.355469 50.035156 102.238281 50.273438 101.011719 50.066406 L 100.191406 50.066406 C 95.953125 50.066406 93.714844 54.894531 96.074219 58.117188 C 96.074219 58.117188 96.101562 58.132812 96.117188 58.160156 C 96.179688 58.25 96.269531 58.339844 96.34375 58.414062 C 96.445312 58.519531 96.519531 58.625 96.625 58.742188 C 96.714844 58.832031 96.820312 58.9375 96.894531 59.042969 C 96.894531 59.042969 96.894531 59.042969 96.925781 59.058594 C 97.089844 59.234375 97.207031 59.414062 97.328125 59.625 C 98.863281 62.203125 97.042969 65.707031 93.878906 65.929688 C 93.851562 65.929688 93.835938 65.929688 93.789062 65.929688 C 93.730469 65.929688 93.699219 65.929688 93.640625 65.929688 C 93.460938 65.929688 93.28125 65.929688 93.089844 65.929688 C 92.953125 65.929688 92.835938 65.929688 92.699219 65.929688 C 92.492188 65.929688 92.3125 65.929688 92.117188 65.929688 C 92 65.929688 91.878906 65.929688 91.730469 65.929688 C 91.507812 65.929688 91.3125 65.886719 91.089844 65.871094 C 90.984375 65.871094 90.863281 65.871094 90.777344 65.84375 C 90.445312 65.8125 90.132812 65.765625 89.835938 65.707031 C 87.042969 65.246094 84.164062 65.5 81.492188 66.484375 C 79.375 67.257812 77.375 68.511719 75.671875 70.210938 C 69.390625 76.519531 69.433594 86.703125 75.746094 92.96875 C 78.164062 95.367188 81.148438 96.832031 84.285156 97.398438 C 87.746094 98.007812 91.371094 97.472656 94.582031 95.816406 C 96 95.070312 97.34375 94.085938 98.519531 92.894531 L 109.878906 81.457031 L 121.25 70.03125 C 123.550781 67.722656 126.371094 66.257812 129.339844 65.617188 C 131.355469 65.199219 133.460938 65.171875 135.488281 65.527344 C 138.609375 66.082031 141.59375 67.542969 144.027344 69.941406 C 150.339844 76.222656 150.367188 86.40625 144.101562 92.714844 C 142.398438 94.414062 140.414062 95.652344 138.28125 96.425781 C 137.9375 96.546875 137.609375 96.667969 137.265625 96.769531 C 137.144531 96.816406 137.054688 96.832031 136.9375 96.859375 C 136.710938 96.917969 136.488281 96.980469 136.25 97.039062 C 136.117188 97.070312 135.964844 97.097656 135.832031 97.113281 C 135.625 97.160156 135.429688 97.1875 135.207031 97.234375 C 135.070312 97.246094 134.90625 97.277344 134.773438 97.292969 C 134.5625 97.308594 134.371094 97.351562 134.160156 97.367188 C 134.011719 97.367188 133.863281 97.398438 133.699219 97.410156 C 133.503906 97.410156 133.324219 97.457031 133.132812 97.457031 C 132.96875 97.457031 132.800781 97.457031 132.636719 97.457031 C 132.445312 97.457031 132.265625 97.457031 132.054688 97.457031 C 131.90625 97.457031 131.742188 97.457031 131.578125 97.441406 C 131.398438 97.441406 131.207031 97.410156 131.027344 97.398438 C 130.863281 97.398438 130.699219 97.351562 130.535156 97.335938 C 130.386719 97.308594 130.222656 97.292969 130.054688 97.277344 C 126.96875 96.800781 123.863281 97.054688 120.96875 97.992188 C 115.460938 99.78125 111.804688 105.136719 112.535156 110.863281 C 112.535156 110.980469 112.566406 111.132812 112.59375 111.25 L 113.9375 119.199219 C 114.386719 121.882812 114.355469 124.476562 113.894531 126.910156 C 117.476562 125.523438 121.371094 128.519531 120.757812 132.441406 C 119.996094 137.332031 125.953125 140.328125 129.445312 136.824219 C 132.386719 133.871094 137.460938 135.484375 138.117188 139.613281 C 138.890625 144.503906 145.488281 145.519531 147.710938 141.089844 C 149.59375 137.378906 154.90625 137.347656 156.832031 141.0625 C 159.085938 145.460938 165.667969 144.402344 166.425781 139.511719 C 167.070312 135.394531 172.113281 133.722656 175.082031 136.675781 C 178.574219 140.152344 184.515625 137.109375 183.710938 132.234375 C 183.054688 128.101562 187.335938 124.984375 191.066406 126.863281 C 195.484375 129.101562 200.1875 124.375 197.917969 119.972656 C 196.007812 116.277344 199.113281 111.953125 203.246094 112.59375 C 208.140625 113.351562 211.140625 107.402344 207.632812 103.914062 C 204.664062 100.976562 206.289062 95.933594 210.425781 95.25 C 215.304688 94.472656 216.335938 87.882812 211.902344 85.660156 "/><path style=" stroke:none;fill-rule:nonzero;fill:#f9c130;fill-opacity:1;" d="M 144.054688 69.972656 C 141.636719 67.570312 138.652344 66.109375 135.535156 65.542969 C 133.488281 65.1875 131.398438 65.230469 129.386719 65.648438 C 126.414062 66.273438 123.59375 67.734375 121.28125 70.046875 L 109.921875 81.484375 L 98.566406 92.910156 C 97.386719 94.117188 96.042969 95.101562 94.609375 95.832031 C 91.433594 97.5 87.804688 98.039062 84.3125 97.410156 C 81.195312 96.875 78.210938 95.398438 75.792969 92.996094 C 69.476562 86.734375 69.433594 76.535156 75.703125 70.226562 C 77.402344 68.527344 79.386719 67.289062 81.539062 66.511719 C 84.195312 65.527344 87.089844 65.246094 89.863281 65.722656 C 90.195312 65.78125 90.507812 65.828125 90.835938 65.871094 C 90.925781 65.871094 91.027344 65.871094 91.148438 65.886719 C 91.371094 65.902344 91.566406 65.929688 91.789062 65.945312 C 91.910156 65.945312 92.027344 65.945312 92.179688 65.945312 C 92.371094 65.945312 92.550781 65.945312 92.761719 65.945312 C 92.894531 65.945312 93.015625 65.945312 93.148438 65.945312 C 93.34375 65.945312 93.523438 65.945312 93.699219 65.945312 C 93.730469 65.945312 93.789062 65.945312 93.835938 65.945312 C 93.851562 65.945312 93.894531 65.945312 93.910156 65.945312 C 97.089844 65.722656 98.910156 62.21875 97.355469 59.636719 C 97.238281 59.445312 97.117188 59.265625 96.96875 59.085938 C 96.96875 59.085938 96.953125 59.085938 96.9375 59.058594 C 96.835938 58.96875 96.761719 58.863281 96.65625 58.757812 C 96.566406 58.652344 96.460938 58.566406 96.355469 58.445312 C 96.28125 58.355469 96.222656 58.265625 96.132812 58.175781 C 96.132812 58.175781 96.117188 58.148438 96.101562 58.148438 C 93.730469 54.910156 95.953125 50.109375 100.207031 50.09375 L 101.027344 50.09375 C 102.253906 50.273438 103.371094 50.035156 104.3125 49.511719 C 97.878906 48.363281 92.328125 44.144531 89.433594 38.074219 L 85.941406 30.855469 C 78.507812 15.421875 56.492188 15.496094 49.152344 30.976562 L 45.734375 38.222656 C 42.761719 44.488281 37.003906 48.828125 30.332031 49.871094 L 22.617188 51.046875 C 5.734375 53.613281 -0.90625 75 11.316406 87.226562 L 16.929688 92.832031 C 21.765625 97.679688 23.988281 104.6875 22.898438 111.5625 L 21.585938 119.511719 C 18.78125 136.839844 36.421875 149.992188 51.417969 141.761719 L 58.316406 137.972656 C 64.269531 134.738281 71.433594 134.691406 77.402344 137.914062 L 84.34375 141.640625 C 97.058594 148.503906 111.566406 140.121094 113.996094 126.910156 C 114.429688 124.476562 114.476562 121.882812 114.027344 119.199219 L 112.683594 111.25 C 112.667969 111.132812 112.65625 111.011719 112.625 110.894531 C 112.625 110.894531 112.625 110.894531 112.625 110.863281 C 111.910156 105.121094 115.550781 99.753906 121.058594 97.992188 C 123.96875 97.054688 127.070312 96.800781 130.160156 97.277344 C 130.324219 97.292969 130.472656 97.324219 130.636719 97.335938 C 130.804688 97.335938 130.96875 97.382812 131.117188 97.398438 C 131.296875 97.398438 131.503906 97.410156 131.683594 97.441406 C 131.847656 97.441406 131.996094 97.457031 132.160156 97.457031 C 132.371094 97.457031 132.550781 97.457031 132.742188 97.457031 C 132.90625 97.457031 133.070312 97.457031 133.21875 97.457031 C 133.429688 97.457031 133.609375 97.441406 133.800781 97.410156 C 133.964844 97.410156 134.101562 97.410156 134.265625 97.382812 C 134.460938 97.382812 134.667969 97.335938 134.863281 97.292969 C 135.011719 97.292969 135.160156 97.261719 135.308594 97.234375 C 135.503906 97.203125 135.714844 97.160156 135.921875 97.113281 C 136.070312 97.097656 136.207031 97.082031 136.355469 97.039062 C 136.5625 96.980469 136.789062 96.917969 137.027344 96.859375 C 137.144531 96.816406 137.25 96.800781 137.371094 96.753906 C 137.710938 96.652344 138.027344 96.5625 138.371094 96.414062 C 140.503906 95.636719 142.503906 94.398438 144.203125 92.667969 C 150.472656 86.363281 150.429688 76.175781 144.128906 69.914062 "/><g style="fill:#ffffff;fill-opacity:1;"><g transform="translate(219.284427, 127.093905)"><path style="stroke:none" d="M 50.671875 -70.9375 C 48.679688 -67.15625 46.53125 -63.421875 44.21875 -59.734375 C 41.914062 -56.054688 39.210938 -52.726562 36.109375 -49.75 C 43.410156 -42.164062 47.796875 -32.960938 49.265625 -22.140625 C 49.515625 -20.128906 49.179688 -18.46875 48.265625 -17.15625 C 47.347656 -15.851562 46.125 -14.960938 44.59375 -14.484375 C 43.070312 -14.015625 41.472656 -13.9375 39.796875 -14.25 C 38.117188 -14.570312 36.640625 -15.332031 35.359375 -16.53125 C 34.078125 -17.726562 33.3125 -19.328125 33.0625 -21.328125 C 32.507812 -25.210938 31.285156 -28.835938 29.390625 -32.203125 C 27.492188 -35.566406 25.078125 -38.484375 22.140625 -40.953125 C 21.867188 -31.765625 21.335938 -22.675781 20.546875 -13.6875 C 20.398438 -12.238281 19.796875 -11 18.734375 -9.96875 C 17.671875 -8.9375 16.410156 -8.1875 14.953125 -7.71875 C 13.492188 -7.25 12.101562 -7.160156 10.78125 -7.453125 C 8.445312 -7.984375 6.800781 -9.179688 5.84375 -11.046875 C 4.882812 -12.921875 4.5 -14.945312 4.6875 -17.125 C 5.539062 -27.414062 6.054688 -37.742188 6.234375 -48.109375 C 6.410156 -58.484375 6.28125 -68.828125 5.84375 -79.140625 C 5.738281 -81.234375 6.195312 -82.929688 7.21875 -84.234375 C 8.238281 -85.546875 9.546875 -86.4375 11.140625 -86.90625 C 12.742188 -87.382812 14.363281 -87.46875 16 -87.15625 C 17.644531 -86.84375 19.039062 -86.082031 20.1875 -84.875 C 21.332031 -83.675781 21.957031 -82.03125 22.0625 -79.9375 C 22.164062 -76.394531 22.265625 -72.875 22.359375 -69.375 C 22.460938 -65.882812 22.488281 -62.367188 22.4375 -58.828125 C 24.539062 -60.234375 26.4375 -62.078125 28.125 -64.359375 C 29.8125 -66.648438 31.316406 -69.054688 32.640625 -71.578125 C 33.960938 -74.097656 35.15625 -76.359375 36.21875 -78.359375 C 37.195312 -80.210938 38.445312 -81.445312 39.96875 -82.0625 C 41.488281 -82.675781 43.070312 -82.804688 44.71875 -82.453125 C 46.363281 -82.097656 47.8125 -81.351562 49.0625 -80.21875 C 50.3125 -79.09375 51.117188 -77.722656 51.484375 -76.109375 C 51.847656 -74.503906 51.578125 -72.78125 50.671875 -70.9375 Z M 50.671875 -70.9375 "/></g></g><g style="fill:#ffffff;fill-opacity:1;"><g transform="translate(279.759842, 124.112087)"><path style="stroke:none" d="M 53.640625 -49.96875 C 54.210938 -42.851562 54.75 -35.695312 55.25 -28.5 C 55.75 -21.300781 56.28125 -14.109375 56.84375 -6.921875 C 57.019531 -4.828125 56.597656 -3.125 55.578125 -1.8125 C 54.566406 -0.5 53.273438 0.390625 51.703125 0.859375 C 50.140625 1.335938 48.535156 1.414062 46.890625 1.09375 C 45.253906 0.78125 43.847656 0.0234375 42.671875 -1.171875 C 41.492188 -2.378906 40.816406 -4.03125 40.640625 -6.125 C 40.460938 -8.28125 40.300781 -10.414062 40.15625 -12.53125 C 40.019531 -14.65625 39.859375 -16.800781 39.671875 -18.96875 L 23.4375 -18.8125 C 22.988281 -16.039062 22.578125 -13.289062 22.203125 -10.5625 C 21.835938 -7.84375 21.472656 -5.101562 21.109375 -2.34375 C 20.847656 -0.226562 20.113281 1.328125 18.90625 2.328125 C 17.695312 3.328125 16.257812 3.847656 14.59375 3.890625 C 12.9375 3.929688 11.347656 3.570312 9.828125 2.8125 C 8.304688 2.0625 7.09375 0.953125 6.1875 -0.515625 C 5.289062 -1.992188 4.972656 -3.785156 5.234375 -5.890625 C 6.179688 -13.015625 7.289062 -20.070312 8.5625 -27.0625 C 9.84375 -34.0625 11.800781 -40.910156 14.4375 -47.609375 C 15.726562 -50.921875 17.394531 -54.503906 19.4375 -58.359375 C 21.488281 -62.210938 23.859375 -65.773438 26.546875 -69.046875 C 29.234375 -72.316406 32.269531 -74.757812 35.65625 -76.375 C 38.84375 -77.894531 41.460938 -78.273438 43.515625 -77.515625 C 45.566406 -76.753906 47.222656 -75.285156 48.484375 -73.109375 C 49.753906 -70.929688 50.734375 -68.394531 51.421875 -65.5 C 52.109375 -62.613281 52.609375 -59.769531 52.921875 -56.96875 C 53.234375 -54.164062 53.472656 -51.832031 53.640625 -49.96875 Z M 27.09375 -35.015625 C 29.03125 -35.035156 30.9375 -35.054688 32.8125 -35.078125 C 34.6875 -35.097656 36.5625 -35.113281 38.4375 -35.125 C 38.257812 -37.507812 38.09375 -39.875 37.9375 -42.21875 C 37.789062 -44.5625 37.625 -46.875 37.4375 -49.15625 C 37.320312 -50.09375 37.238281 -51.082031 37.1875 -52.125 C 37.132812 -53.175781 37.082031 -54.242188 37.03125 -55.328125 C 35.863281 -53.828125 34.882812 -52.40625 34.09375 -51.0625 C 32.757812 -48.820312 31.554688 -46.503906 30.484375 -44.109375 C 29.410156 -41.710938 28.460938 -39.304688 27.640625 -36.890625 C 27.585938 -36.585938 27.515625 -36.269531 27.421875 -35.9375 C 27.328125 -35.613281 27.21875 -35.304688 27.09375 -35.015625 Z M 27.09375 -35.015625 "/></g></g><g style="fill:#ffffff;fill-opacity:1;"><g transform="translate(342.179105, 121.034424)"><path style="stroke:none" d="M 45.921875 -37.234375 C 48.003906 -37.484375 49.679688 -37.148438 50.953125 -36.234375 C 52.222656 -35.328125 53.113281 -34.09375 53.625 -32.53125 C 54.132812 -30.96875 54.210938 -29.347656 53.859375 -27.671875 C 53.515625 -25.992188 52.738281 -24.53125 51.53125 -23.28125 C 50.332031 -22.039062 48.726562 -21.296875 46.71875 -21.046875 C 41.269531 -20.335938 35.921875 -19.363281 30.671875 -18.125 C 25.421875 -16.894531 20.207031 -15.394531 15.03125 -13.625 C 13.53125 -13.113281 11.9375 -13.125 10.25 -13.65625 C 8.570312 -14.195312 7.160156 -15.101562 6.015625 -16.375 C 4.867188 -17.65625 4.328125 -19.195312 4.390625 -21 C 4.828125 -29.46875 5.25 -37.9375 5.65625 -46.40625 C 6.070312 -54.875 6.472656 -63.34375 6.859375 -71.8125 C 6.960938 -73.84375 7.597656 -75.515625 8.765625 -76.828125 C 9.941406 -78.148438 11.34375 -79.050781 12.96875 -79.53125 C 14.601562 -80.007812 16.207031 -80.085938 17.78125 -79.765625 C 19.351562 -79.453125 20.65625 -78.6875 21.6875 -77.46875 C 22.71875 -76.257812 23.175781 -74.640625 23.0625 -72.609375 C 22.75 -65.878906 22.429688 -59.171875 22.109375 -52.484375 C 21.785156 -45.796875 21.460938 -39.125 21.140625 -32.46875 C 29.191406 -34.582031 37.453125 -36.171875 45.921875 -37.234375 Z M 45.921875 -37.234375 "/></g></g><g style="fill:#ffffff;fill-opacity:1;"><g transform="translate(402.978427, 118.036635)"><path style="stroke:none" d="M 43.921875 -25.015625 C 46.015625 -25.046875 47.71875 -24.515625 49.03125 -23.421875 C 50.351562 -22.328125 51.253906 -20.984375 51.734375 -19.390625 C 52.210938 -17.796875 52.289062 -16.191406 51.96875 -14.578125 C 51.65625 -12.972656 50.894531 -11.613281 49.6875 -10.5 C 48.476562 -9.394531 46.820312 -8.828125 44.71875 -8.796875 C 39.8125 -8.773438 34.914062 -8.519531 30.03125 -8.03125 C 25.15625 -7.550781 20.285156 -6.785156 15.421875 -5.734375 C 13.910156 -5.453125 12.3125 -5.539062 10.625 -6 C 8.945312 -6.46875 7.519531 -7.28125 6.34375 -8.4375 C 5.175781 -9.601562 4.6875 -11.164062 4.875 -13.125 C 5.601562 -23.125 6.460938 -33.128906 7.453125 -43.140625 C 8.441406 -53.148438 9.554688 -63.164062 10.796875 -73.1875 C 10.953125 -74.425781 11.332031 -75.492188 11.9375 -76.390625 C 12.46875 -77.429688 13.253906 -78.320312 14.296875 -79.0625 C 15.335938 -79.800781 16.648438 -80.242188 18.234375 -80.390625 C 26.003906 -80.992188 33.789062 -81.238281 41.59375 -81.125 C 43.6875 -81.070312 45.394531 -80.476562 46.71875 -79.34375 C 48.039062 -78.21875 48.9375 -76.859375 49.40625 -75.265625 C 49.882812 -73.671875 49.960938 -72.066406 49.640625 -70.453125 C 49.328125 -68.847656 48.5625 -67.507812 47.34375 -66.4375 C 46.132812 -65.363281 44.484375 -64.851562 42.390625 -64.90625 C 37.046875 -65 31.601562 -64.910156 26.0625 -64.640625 C 25.800781 -62.523438 25.539062 -60.414062 25.28125 -58.3125 C 25.019531 -56.21875 24.800781 -54.117188 24.625 -52.015625 C 27.582031 -52.085938 30.4375 -52.046875 33.1875 -51.890625 C 35.351562 -51.785156 37.28125 -51.066406 38.96875 -49.734375 C 40.664062 -48.410156 41.570312 -46.5625 41.6875 -44.1875 C 41.757812 -42.820312 41.445312 -41.46875 40.75 -40.125 C 40.050781 -38.789062 39.109375 -37.695312 37.921875 -36.84375 C 36.742188 -35.988281 35.429688 -35.601562 33.984375 -35.6875 C 30.296875 -35.851562 26.609375 -35.847656 22.921875 -35.671875 C 22.742188 -33.648438 22.5625 -31.585938 22.375 -29.484375 C 22.1875 -27.378906 22 -25.304688 21.8125 -23.265625 C 25.46875 -23.816406 29.128906 -24.234375 32.796875 -24.515625 C 36.460938 -24.804688 40.171875 -24.972656 43.921875 -25.015625 Z M 43.921875 -25.015625 "/></g></g><g style="fill:#ffffff;fill-opacity:1;"><g transform="translate(461.617997, 115.145335)"><path style="stroke:none" d="M 6.984375 -67.0625 C 7.085938 -69.082031 7.722656 -70.734375 8.890625 -72.015625 C 10.066406 -73.304688 11.46875 -74.207031 13.09375 -74.71875 C 14.726562 -75.238281 16.347656 -75.335938 17.953125 -75.015625 C 19.566406 -74.703125 20.867188 -73.9375 21.859375 -72.71875 C 22.859375 -71.507812 23.300781 -69.894531 23.1875 -67.875 C 22.050781 -48.238281 21.394531 -28.59375 21.21875 -8.9375 C 21.175781 -6.863281 20.609375 -5.164062 19.515625 -3.84375 C 18.429688 -2.519531 17.085938 -1.617188 15.484375 -1.140625 C 13.890625 -0.660156 12.285156 -0.578125 10.671875 -0.890625 C 9.066406 -1.210938 7.710938 -1.976562 6.609375 -3.1875 C 5.503906 -4.40625 4.972656 -6.054688 5.015625 -8.140625 C 5.191406 -27.796875 5.847656 -47.4375 6.984375 -67.0625 Z M 6.984375 -67.0625 "/></g></g><g style="fill:#ffffff;fill-opacity:1;"><g transform="translate(493.583598, 113.56923)"><path style="stroke:none" d="M 43.484375 -69.1875 C 47.328125 -66.050781 50.363281 -62.242188 52.59375 -57.765625 C 54.832031 -53.296875 55.796875 -48.523438 55.484375 -43.453125 C 55.191406 -39.253906 54.03125 -35.28125 52 -31.53125 C 49.976562 -27.78125 47.453125 -24.492188 44.421875 -21.671875 C 41.035156 -18.472656 36.992188 -15.835938 32.296875 -13.765625 C 27.597656 -11.691406 23.085938 -9.828125 18.765625 -8.171875 C 17.566406 -7.679688 16.34375 -7.28125 15.09375 -6.96875 C 13.84375 -6.664062 12.601562 -6.554688 11.375 -6.640625 C 9.632812 -6.765625 8.097656 -7.492188 6.765625 -8.828125 C 5.441406 -10.171875 4.769531 -11.710938 4.75 -13.453125 C 4.300781 -33.066406 4.304688 -52.738281 4.765625 -72.46875 C 4.796875 -74.707031 5.457031 -76.3125 6.75 -77.28125 C 8.039062 -78.25 9.601562 -78.796875 11.4375 -78.921875 C 13.269531 -79.046875 15.054688 -79.007812 16.796875 -78.8125 C 17.804688 -78.71875 18.75 -78.617188 19.625 -78.515625 C 23.925781 -77.859375 28.09375 -76.851562 32.125 -75.5 C 36.164062 -74.144531 39.953125 -72.039062 43.484375 -69.1875 Z M 38.78125 -41.78125 C 39.644531 -44.707031 39.671875 -47.34375 38.859375 -49.6875 C 38.054688 -52.03125 36.710938 -54.019531 34.828125 -55.65625 C 32.941406 -57.300781 30.742188 -58.632812 28.234375 -59.65625 C 25.734375 -60.6875 23.207031 -61.429688 20.65625 -61.890625 C 20.519531 -50.035156 20.523438 -38.265625 20.671875 -26.578125 C 23.296875 -27.578125 25.820312 -28.695312 28.25 -29.9375 C 30.675781 -31.175781 32.816406 -32.722656 34.671875 -34.578125 C 36.535156 -36.441406 37.90625 -38.84375 38.78125 -41.78125 Z M 38.78125 -41.78125 "/></g></g><g style="fill:#ffffff;fill-opacity:1;"><g transform="translate(556.650777, 110.459621)"><path style="stroke:none" d="M 56.8125 -68.984375 C 58.675781 -66.253906 60.019531 -63.15625 60.84375 -59.6875 C 61.664062 -56.226562 62.128906 -52.710938 62.234375 -49.140625 C 62.335938 -45.578125 62.21875 -42.234375 61.875 -39.109375 C 61.375 -34.316406 60.113281 -29.742188 58.09375 -25.390625 C 56.070312 -21.035156 53.265625 -17.21875 49.671875 -13.9375 C 46.210938 -10.789062 42.140625 -8.414062 37.453125 -6.8125 C 32.773438 -5.21875 28.128906 -5.03125 23.515625 -6.25 C 20.441406 -7.03125 17.734375 -8.445312 15.390625 -10.5 C 13.054688 -12.5625 11.0625 -14.9375 9.40625 -17.625 C 7.757812 -20.320312 6.503906 -23.097656 5.640625 -25.953125 C 4.628906 -29.078125 3.945312 -32.707031 3.59375 -36.84375 C 3.25 -40.976562 3.328125 -45.222656 3.828125 -49.578125 C 4.335938 -53.929688 5.328125 -58.019531 6.796875 -61.84375 C 8.273438 -65.675781 10.359375 -68.882812 13.046875 -71.46875 C 15.773438 -74.5625 19.125 -76.820312 23.09375 -78.25 C 27.070312 -79.675781 31.191406 -80.296875 35.453125 -80.109375 C 39.722656 -79.921875 43.75 -78.890625 47.53125 -77.015625 C 51.320312 -75.140625 54.414062 -72.460938 56.8125 -68.984375 Z M 39.21875 -25.96875 C 41.5625 -28.394531 43.25 -31.164062 44.28125 -34.28125 C 45.3125 -37.40625 45.890625 -40.648438 46.015625 -44.015625 C 46.140625 -47.378906 45.910156 -50.632812 45.328125 -53.78125 C 44.734375 -56.9375 43.363281 -59.472656 41.21875 -61.390625 C 39.070312 -63.304688 36.300781 -64.140625 32.90625 -63.890625 C 31.03125 -63.804688 29.234375 -63.25 27.515625 -62.21875 C 25.804688 -61.195312 24.410156 -59.898438 23.328125 -58.328125 C 22.128906 -56.460938 21.300781 -54.253906 20.84375 -51.703125 C 20.382812 -49.160156 20.066406 -46.804688 19.890625 -44.640625 C 19.472656 -39.765625 19.960938 -35.019531 21.359375 -30.40625 C 21.773438 -29.0625 22.320312 -27.71875 23 -26.375 C 23.6875 -25.03125 24.628906 -23.953125 25.828125 -23.140625 C 27.773438 -21.867188 29.941406 -21.488281 32.328125 -22 C 34.722656 -22.519531 36.785156 -23.578125 38.515625 -25.171875 C 38.722656 -25.398438 38.957031 -25.664062 39.21875 -25.96875 Z M 39.21875 -25.96875 "/></g></g><g style="fill:#ffffff;fill-opacity:1;"><g transform="translate(626.521427, 107.014558)"><path style="stroke:none" d="M 46.3125 -29.25 C 48.394531 -29.5 50.070312 -29.164062 51.34375 -28.25 C 52.625 -27.34375 53.519531 -26.101562 54.03125 -24.53125 C 54.539062 -22.96875 54.617188 -21.347656 54.265625 -19.671875 C 53.910156 -18.003906 53.132812 -16.539062 51.9375 -15.28125 C 50.738281 -14.03125 49.128906 -13.28125 47.109375 -13.03125 C 41.660156 -12.40625 36.3125 -11.457031 31.0625 -10.1875 C 25.8125 -8.914062 20.601562 -7.398438 15.4375 -5.640625 C 13.9375 -5.128906 12.34375 -5.140625 10.65625 -5.671875 C 8.96875 -6.210938 7.550781 -7.117188 6.40625 -8.390625 C 5.257812 -9.660156 4.71875 -11.203125 4.78125 -13.015625 C 5.21875 -21.484375 5.640625 -29.953125 6.046875 -38.421875 C 6.460938 -46.890625 6.863281 -55.359375 7.25 -63.828125 C 7.363281 -65.859375 8.003906 -67.53125 9.171875 -68.84375 C 10.335938 -70.164062 11.734375 -71.0625 13.359375 -71.53125 C 14.992188 -72.007812 16.597656 -72.09375 18.171875 -71.78125 C 19.742188 -71.46875 21.046875 -70.722656 22.078125 -69.546875 C 23.109375 -68.367188 23.566406 -66.726562 23.453125 -64.625 C 23.140625 -57.894531 22.820312 -51.179688 22.5 -44.484375 C 22.175781 -37.785156 21.851562 -31.109375 21.53125 -24.453125 C 29.582031 -26.585938 37.84375 -28.1875 46.3125 -29.25 Z M 46.3125 -29.25 "/></g></g><g style="fill:#ffffff;fill-opacity:1;"><g transform="translate(687.320749, 104.016769)"><path style="stroke:none" d="M 43.921875 -25.015625 C 46.015625 -25.046875 47.71875 -24.515625 49.03125 -23.421875 C 50.351562 -22.328125 51.253906 -20.984375 51.734375 -19.390625 C 52.210938 -17.796875 52.289062 -16.191406 51.96875 -14.578125 C 51.65625 -12.972656 50.894531 -11.613281 49.6875 -10.5 C 48.476562 -9.394531 46.820312 -8.828125 44.71875 -8.796875 C 39.8125 -8.773438 34.914062 -8.519531 30.03125 -8.03125 C 25.15625 -7.550781 20.285156 -6.785156 15.421875 -5.734375 C 13.910156 -5.453125 12.3125 -5.539062 10.625 -6 C 8.945312 -6.46875 7.519531 -7.28125 6.34375 -8.4375 C 5.175781 -9.601562 4.6875 -11.164062 4.875 -13.125 C 5.601562 -23.125 6.460938 -33.128906 7.453125 -43.140625 C 8.441406 -53.148438 9.554688 -63.164062 10.796875 -73.1875 C 10.953125 -74.425781 11.332031 -75.492188 11.9375 -76.390625 C 12.46875 -77.429688 13.253906 -78.320312 14.296875 -79.0625 C 15.335938 -79.800781 16.648438 -80.242188 18.234375 -80.390625 C 26.003906 -80.992188 33.789062 -81.238281 41.59375 -81.125 C 43.6875 -81.070312 45.394531 -80.476562 46.71875 -79.34375 C 48.039062 -78.21875 48.9375 -76.859375 49.40625 -75.265625 C 49.882812 -73.671875 49.960938 -72.066406 49.640625 -70.453125 C 49.328125 -68.847656 48.5625 -67.507812 47.34375 -66.4375 C 46.132812 -65.363281 44.484375 -64.851562 42.390625 -64.90625 C 37.046875 -65 31.601562 -64.910156 26.0625 -64.640625 C 25.800781 -62.523438 25.539062 -60.414062 25.28125 -58.3125 C 25.019531 -56.21875 24.800781 -54.117188 24.625 -52.015625 C 27.582031 -52.085938 30.4375 -52.046875 33.1875 -51.890625 C 35.351562 -51.785156 37.28125 -51.066406 38.96875 -49.734375 C 40.664062 -48.410156 41.570312 -46.5625 41.6875 -44.1875 C 41.757812 -42.820312 41.445312 -41.46875 40.75 -40.125 C 40.050781 -38.789062 39.109375 -37.695312 37.921875 -36.84375 C 36.742188 -35.988281 35.429688 -35.601562 33.984375 -35.6875 C 30.296875 -35.851562 26.609375 -35.847656 22.921875 -35.671875 C 22.742188 -33.648438 22.5625 -31.585938 22.375 -29.484375 C 22.1875 -27.378906 22 -25.304688 21.8125 -23.265625 C 25.46875 -23.816406 29.128906 -24.234375 32.796875 -24.515625 C 36.460938 -24.804688 40.171875 -24.972656 43.921875 -25.015625 Z M 43.921875 -25.015625 "/></g></g><g style="fill:#ffffff;fill-opacity:1;"><g transform="translate(745.960318, 101.125469)"><path style="stroke:none" d="M 53.640625 -49.96875 C 54.210938 -42.851562 54.75 -35.695312 55.25 -28.5 C 55.75 -21.300781 56.28125 -14.109375 56.84375 -6.921875 C 57.019531 -4.828125 56.597656 -3.125 55.578125 -1.8125 C 54.566406 -0.5 53.273438 0.390625 51.703125 0.859375 C 50.140625 1.335938 48.535156 1.414062 46.890625 1.09375 C 45.253906 0.78125 43.847656 0.0234375 42.671875 -1.171875 C 41.492188 -2.378906 40.816406 -4.03125 40.640625 -6.125 C 40.460938 -8.28125 40.300781 -10.414062 40.15625 -12.53125 C 40.019531 -14.65625 39.859375 -16.800781 39.671875 -18.96875 L 23.4375 -18.8125 C 22.988281 -16.039062 22.578125 -13.289062 22.203125 -10.5625 C 21.835938 -7.84375 21.472656 -5.101562 21.109375 -2.34375 C 20.847656 -0.226562 20.113281 1.328125 18.90625 2.328125 C 17.695312 3.328125 16.257812 3.847656 14.59375 3.890625 C 12.9375 3.929688 11.347656 3.570312 9.828125 2.8125 C 8.304688 2.0625 7.09375 0.953125 6.1875 -0.515625 C 5.289062 -1.992188 4.972656 -3.785156 5.234375 -5.890625 C 6.179688 -13.015625 7.289062 -20.070312 8.5625 -27.0625 C 9.84375 -34.0625 11.800781 -40.910156 14.4375 -47.609375 C 15.726562 -50.921875 17.394531 -54.503906 19.4375 -58.359375 C 21.488281 -62.210938 23.859375 -65.773438 26.546875 -69.046875 C 29.234375 -72.316406 32.269531 -74.757812 35.65625 -76.375 C 38.84375 -77.894531 41.460938 -78.273438 43.515625 -77.515625 C 45.566406 -76.753906 47.222656 -75.285156 48.484375 -73.109375 C 49.753906 -70.929688 50.734375 -68.394531 51.421875 -65.5 C 52.109375 -62.613281 52.609375 -59.769531 52.921875 -56.96875 C 53.234375 -54.164062 53.472656 -51.832031 53.640625 -49.96875 Z M 27.09375 -35.015625 C 29.03125 -35.035156 30.9375 -35.054688 32.8125 -35.078125 C 34.6875 -35.097656 36.5625 -35.113281 38.4375 -35.125 C 38.257812 -37.507812 38.09375 -39.875 37.9375 -42.21875 C 37.789062 -44.5625 37.625 -46.875 37.4375 -49.15625 C 37.320312 -50.09375 37.238281 -51.082031 37.1875 -52.125 C 37.132812 -53.175781 37.082031 -54.242188 37.03125 -55.328125 C 35.863281 -53.828125 34.882812 -52.40625 34.09375 -51.0625 C 32.757812 -48.820312 31.554688 -46.503906 30.484375 -44.109375 C 29.410156 -41.710938 28.460938 -39.304688 27.640625 -36.890625 C 27.585938 -36.585938 27.515625 -36.269531 27.421875 -35.9375 C 27.328125 -35.613281 27.21875 -35.304688 27.09375 -35.015625 Z M 27.09375 -35.015625 "/></g></g><g style="fill:#ffffff;fill-opacity:1;"><g transform="translate(808.379581, 98.047806)"><path style="stroke:none" d="M 60.96875 -13.1875 C 62.28125 -11.519531 62.863281 -9.90625 62.71875 -8.34375 C 62.582031 -6.789062 61.96875 -5.40625 60.875 -4.1875 C 59.78125 -2.976562 58.429688 -2.097656 56.828125 -1.546875 C 55.234375 -0.992188 53.578125 -0.910156 51.859375 -1.296875 C 50.148438 -1.679688 48.640625 -2.679688 47.328125 -4.296875 C 43.878906 -8.585938 40.0625 -12.503906 35.875 -16.046875 C 31.6875 -19.597656 27.210938 -22.78125 22.453125 -25.59375 C 22.304688 -21.320312 22.175781 -17.035156 22.0625 -12.734375 C 21.945312 -8.429688 21.816406 -4.144531 21.671875 0.125 C 21.628906 2.21875 21.039062 3.90625 19.90625 5.1875 C 18.78125 6.46875 17.398438 7.363281 15.765625 7.875 C 14.128906 8.382812 12.523438 8.476562 10.953125 8.15625 C 9.390625 7.84375 8.070312 7.082031 7 5.875 C 5.9375 4.675781 5.425781 3.023438 5.46875 0.921875 C 5.726562 -6.953125 5.835938 -14.96875 5.796875 -23.125 C 5.753906 -31.289062 6.332031 -39.300781 7.53125 -47.15625 C 8.125 -51.226562 9.410156 -55.1875 11.390625 -59.03125 C 13.367188 -62.882812 15.96875 -66.117188 19.1875 -68.734375 C 22.414062 -71.347656 26.257812 -72.875 30.71875 -73.3125 C 33.800781 -73.613281 36.757812 -73.1875 39.59375 -72.03125 C 42.4375 -70.875 44.882812 -69.1875 46.9375 -66.96875 C 49 -64.75 50.445312 -62.21875 51.28125 -59.375 C 52.113281 -56.539062 52.097656 -53.546875 51.234375 -50.390625 C 50.378906 -47.242188 48.882812 -44.242188 46.75 -41.390625 C 44.613281 -38.546875 42.117188 -36.046875 39.265625 -33.890625 C 47.285156 -27.992188 54.519531 -21.09375 60.96875 -13.1875 Z M 30.234375 -47.734375 C 30.640625 -48.191406 31.328125 -48.894531 32.296875 -49.84375 C 33.265625 -50.789062 34.117188 -51.789062 34.859375 -52.84375 C 35.609375 -53.894531 35.898438 -54.703125 35.734375 -55.265625 C 35.359375 -56.765625 34.753906 -57.566406 33.921875 -57.671875 C 33.085938 -57.773438 32.160156 -57.492188 31.140625 -56.828125 C 30.128906 -56.160156 29.144531 -55.28125 28.1875 -54.1875 C 27.238281 -53.09375 26.425781 -52.0625 25.75 -51.09375 C 25.082031 -50.125 24.648438 -49.414062 24.453125 -48.96875 C 23.953125 -47.28125 23.535156 -45.457031 23.203125 -43.5 C 24.628906 -43.789062 25.898438 -44.300781 27.015625 -45.03125 C 28.140625 -45.769531 29.210938 -46.671875 30.234375 -47.734375 Z M 30.234375 -47.734375 "/></g></g><g clip-rule="nonzero" clip-path="url(#f54eb7ffff)"><g style="fill:#ffffff;fill-opacity:1;"><g transform="translate(876.738394, 94.677287)"><path style="stroke:none" d="M 44.296875 -67.8125 C 44.492188 -69.84375 45.179688 -71.351562 46.359375 -72.34375 C 47.535156 -73.34375 48.9375 -73.878906 50.5625 -73.953125 C 52.1875 -74.035156 53.769531 -73.6875 55.3125 -72.90625 C 56.863281 -72.125 58.113281 -70.992188 59.0625 -69.515625 C 60.007812 -68.046875 60.382812 -66.289062 60.1875 -64.25 C 58.207031 -44.238281 55.507812 -24.332031 52.09375 -4.53125 C 51.800781 -2.914062 51.050781 -1.570312 49.84375 -0.5 C 48.632812 0.570312 47.207031 1.273438 45.5625 1.609375 C 43.914062 1.941406 42.335938 1.835938 40.828125 1.296875 C 39.328125 0.753906 38.175781 -0.289062 37.375 -1.84375 C 35.519531 -5.726562 33.632812 -9.585938 31.71875 -13.421875 C 29.800781 -17.265625 27.882812 -21.085938 25.96875 -24.890625 C 25.113281 -20.148438 24.296875 -15.394531 23.515625 -10.625 C 22.742188 -5.863281 22.039062 -1.117188 21.40625 3.609375 C 21.144531 5.703125 20.390625 7.25 19.140625 8.25 C 17.890625 9.25 16.453125 9.769531 14.828125 9.8125 C 13.210938 9.863281 11.644531 9.507812 10.125 8.75 C 8.601562 7.988281 7.390625 6.875 6.484375 5.40625 C 5.585938 3.945312 5.304688 2.160156 5.640625 0.046875 C 7.960938 -17.253906 11.015625 -34.445312 14.796875 -51.53125 C 15.148438 -53.0625 15.945312 -54.363281 17.1875 -55.4375 C 18.425781 -56.507812 19.851562 -57.226562 21.46875 -57.59375 C 23.082031 -57.96875 24.625 -57.898438 26.09375 -57.390625 C 27.5625 -56.890625 28.691406 -55.828125 29.484375 -54.203125 L 40.078125 -32.734375 C 40.953125 -38.554688 41.726562 -44.390625 42.40625 -50.234375 C 43.09375 -56.085938 43.722656 -61.945312 44.296875 -67.8125 Z M 44.296875 -67.8125 "/></g></g></g></g></svg>