<svg xmlns="http://www.w3.org/2000/svg" xmlns:xlink="http://www.w3.org/1999/xlink" width="256" zoomAndPan="magnify" viewBox="0 0 192 34.499999" height="46" preserveAspectRatio="xMidYMid meet" version="1.2"><defs><clipPath id="178f512fc3"><path d="M 1.371094 0 L 40 0 L 40 34 L 1.371094 34 Z M 1.371094 0 "/></clipPath><clipPath id="d36b415662"><path d="M 179 6 L 190.628906 6 L 190.628906 23 L 179 23 Z M 179 6 "/></clipPath></defs><g id="091184b193"><path style=" stroke:none;fill-rule:nonzero;fill:#f05227;fill-opacity:1;" d="M 55.910156 18.101562 C 54.933594 17.609375 54.929688 16.21875 55.902344 15.71875 C 57.058594 15.128906 56.777344 13.40625 55.5 13.207031 C 54.417969 13.039062 53.984375 11.71875 54.753906 10.941406 C 55.667969 10.027344 54.871094 8.472656 53.589844 8.679688 C 52.511719 8.851562 51.691406 7.730469 52.1875 6.753906 C 52.773438 5.59375 51.535156 4.367188 50.382812 4.960938 C 49.410156 5.457031 48.277344 4.644531 48.445312 3.566406 C 48.644531 2.285156 47.089844 1.5 46.175781 2.417969 C 45.40625 3.191406 44.082031 2.769531 43.90625 1.6875 C 43.699219 0.410156 41.976562 0.140625 41.394531 1.300781 C 40.902344 2.273438 39.511719 2.28125 39.011719 1.308594 C 38.421875 0.15625 36.699219 0.433594 36.5 1.71875 C 36.332031 2.800781 35.011719 3.234375 34.234375 2.464844 C 33.320312 1.550781 31.765625 2.347656 31.972656 3.628906 C 32.144531 4.707031 31.023438 5.527344 30.046875 5.035156 C 28.886719 4.445312 27.660156 5.683594 28.253906 6.835938 C 28.605469 7.523438 28.304688 8.285156 27.71875 8.613281 C 27.472656 8.757812 27.179688 8.820312 26.859375 8.765625 L 26.644531 8.765625 C 25.535156 8.765625 24.949219 10.03125 25.566406 10.875 C 25.566406 10.875 25.574219 10.878906 25.578125 10.886719 C 25.59375 10.910156 25.617188 10.933594 25.636719 10.953125 C 25.664062 10.980469 25.683594 11.007812 25.710938 11.039062 C 25.734375 11.0625 25.761719 11.089844 25.78125 11.117188 C 25.78125 11.117188 25.78125 11.117188 25.789062 11.121094 C 25.832031 11.167969 25.863281 11.214844 25.894531 11.269531 C 26.296875 11.945312 25.820312 12.863281 24.992188 12.921875 C 24.984375 12.921875 24.980469 12.921875 24.96875 12.921875 C 24.953125 12.921875 24.945312 12.921875 24.929688 12.921875 C 24.882812 12.921875 24.835938 12.921875 24.785156 12.921875 C 24.75 12.921875 24.71875 12.921875 24.683594 12.921875 C 24.628906 12.921875 24.582031 12.921875 24.53125 12.921875 C 24.5 12.921875 24.46875 12.921875 24.429688 12.921875 C 24.371094 12.921875 24.320312 12.910156 24.261719 12.90625 C 24.234375 12.90625 24.203125 12.90625 24.179688 12.898438 C 24.09375 12.890625 24.011719 12.878906 23.933594 12.863281 C 23.203125 12.742188 22.449219 12.808594 21.75 13.066406 C 21.195312 13.269531 20.671875 13.597656 20.226562 14.042969 C 18.582031 15.695312 18.59375 18.363281 20.246094 20.003906 C 20.878906 20.632812 21.660156 21.015625 22.480469 21.164062 C 23.386719 21.324219 24.335938 21.183594 25.175781 20.75 C 25.546875 20.554688 25.898438 20.296875 26.207031 19.984375 L 29.179688 16.988281 L 32.15625 13.996094 C 32.757812 13.390625 33.496094 13.007812 34.273438 12.839844 C 34.800781 12.730469 35.351562 12.722656 35.882812 12.816406 C 36.699219 12.960938 37.480469 13.34375 38.117188 13.972656 C 39.769531 15.617188 39.777344 18.285156 38.136719 19.9375 C 37.691406 20.382812 37.171875 20.707031 36.613281 20.910156 C 36.523438 20.941406 36.4375 20.972656 36.347656 21 C 36.316406 21.011719 36.292969 21.015625 36.261719 21.023438 C 36.203125 21.039062 36.144531 21.054688 36.082031 21.070312 C 36.046875 21.078125 36.007812 21.085938 35.972656 21.089844 C 35.917969 21.101562 35.867188 21.109375 35.808594 21.121094 C 35.773438 21.125 35.730469 21.132812 35.695312 21.136719 C 35.640625 21.140625 35.589844 21.152344 35.535156 21.15625 C 35.496094 21.15625 35.457031 21.164062 35.414062 21.167969 C 35.363281 21.167969 35.316406 21.179688 35.265625 21.179688 C 35.222656 21.179688 35.179688 21.179688 35.136719 21.179688 C 35.085938 21.179688 35.039062 21.179688 34.984375 21.179688 C 34.945312 21.179688 34.902344 21.179688 34.859375 21.175781 C 34.8125 21.175781 34.761719 21.167969 34.714844 21.164062 C 34.671875 21.164062 34.628906 21.152344 34.585938 21.148438 C 34.546875 21.140625 34.503906 21.136719 34.460938 21.132812 C 33.652344 21.007812 32.839844 21.074219 32.082031 21.320312 C 30.640625 21.789062 29.683594 23.191406 29.875 24.691406 C 29.875 24.722656 29.882812 24.761719 29.890625 24.792969 L 30.242188 26.875 C 30.359375 27.578125 30.351562 28.257812 30.230469 28.894531 C 31.167969 28.53125 32.1875 29.316406 32.027344 30.34375 C 31.828125 31.625 33.386719 32.410156 34.300781 31.492188 C 35.070312 30.71875 36.398438 31.140625 36.570312 32.222656 C 36.773438 33.503906 38.5 33.769531 39.082031 32.609375 C 39.574219 31.636719 40.964844 31.628906 41.46875 32.601562 C 42.058594 33.753906 43.78125 33.476562 43.980469 32.195312 C 44.148438 31.117188 45.46875 30.679688 46.246094 31.453125 C 47.160156 32.363281 48.714844 31.566406 48.503906 30.289062 C 48.332031 29.207031 49.453125 28.390625 50.429688 28.882812 C 51.585938 29.46875 52.816406 28.230469 52.222656 27.078125 C 51.722656 26.109375 52.535156 24.976562 53.617188 25.144531 C 54.898438 25.34375 55.683594 23.785156 54.765625 22.871094 C 53.988281 22.101562 54.414062 20.78125 55.496094 20.601562 C 56.773438 20.398438 57.042969 18.671875 55.882812 18.089844 "/><g clip-rule="nonzero" clip-path="url(#178f512fc3)"><path style=" stroke:none;fill-rule:nonzero;fill:#f9c130;fill-opacity:1;" d="M 38.125 13.980469 C 37.492188 13.351562 36.710938 12.96875 35.894531 12.820312 C 35.359375 12.726562 34.8125 12.738281 34.285156 12.847656 C 33.507812 13.011719 32.769531 13.394531 32.164062 14 L 29.191406 16.996094 L 26.21875 19.988281 C 25.910156 20.304688 25.558594 20.5625 25.183594 20.753906 C 24.351562 21.191406 23.402344 21.332031 22.488281 21.167969 C 21.671875 21.027344 20.890625 20.640625 20.257812 20.011719 C 18.605469 18.371094 18.59375 15.699219 20.234375 14.046875 C 20.679688 13.601562 21.199219 13.277344 21.761719 13.074219 C 22.457031 12.816406 23.214844 12.742188 23.941406 12.867188 C 24.027344 12.882812 24.109375 12.894531 24.195312 12.90625 C 24.21875 12.90625 24.246094 12.90625 24.277344 12.910156 C 24.335938 12.914062 24.386719 12.921875 24.445312 12.925781 C 24.476562 12.925781 24.507812 12.925781 24.546875 12.925781 C 24.597656 12.925781 24.644531 12.925781 24.699219 12.925781 C 24.734375 12.925781 24.765625 12.925781 24.800781 12.925781 C 24.851562 12.925781 24.898438 12.925781 24.945312 12.925781 C 24.953125 12.925781 24.96875 12.925781 24.980469 12.925781 C 24.984375 12.925781 24.996094 12.925781 25 12.925781 C 25.832031 12.867188 26.308594 11.949219 25.902344 11.273438 C 25.871094 11.222656 25.839844 11.175781 25.800781 11.128906 C 25.800781 11.128906 25.796875 11.128906 25.792969 11.121094 C 25.765625 11.097656 25.746094 11.070312 25.71875 11.042969 C 25.695312 11.015625 25.667969 10.992188 25.640625 10.960938 C 25.621094 10.9375 25.605469 10.914062 25.582031 10.890625 C 25.582031 10.890625 25.578125 10.882812 25.574219 10.882812 C 24.953125 10.035156 25.535156 8.777344 26.648438 8.773438 L 26.863281 8.773438 C 27.183594 8.820312 27.476562 8.757812 27.722656 8.621094 C 26.039062 8.320312 24.585938 7.214844 23.828125 5.625 L 22.914062 3.734375 C 20.96875 -0.308594 15.207031 -0.289062 13.285156 3.765625 L 12.390625 5.664062 C 11.613281 7.304688 10.105469 8.441406 8.359375 8.714844 L 6.339844 9.023438 C 1.921875 9.695312 0.183594 15.296875 3.382812 18.5 L 4.851562 19.96875 C 6.117188 21.238281 6.699219 23.074219 6.414062 24.875 L 6.070312 26.957031 C 5.335938 31.496094 9.953125 34.941406 13.878906 32.785156 L 15.683594 31.792969 C 17.242188 30.945312 19.117188 30.933594 20.679688 31.777344 L 22.496094 32.753906 C 25.824219 34.550781 29.621094 32.355469 30.257812 28.894531 C 30.371094 28.257812 30.382812 27.578125 30.265625 26.875 L 29.914062 24.792969 C 29.910156 24.761719 29.90625 24.730469 29.898438 24.699219 C 29.898438 24.699219 29.898438 24.699219 29.898438 24.691406 C 29.710938 23.1875 30.664062 21.78125 32.105469 21.320312 C 32.867188 21.074219 33.679688 21.007812 34.488281 21.132812 C 34.53125 21.136719 34.570312 21.144531 34.613281 21.148438 C 34.65625 21.148438 34.699219 21.160156 34.738281 21.164062 C 34.785156 21.164062 34.839844 21.167969 34.886719 21.175781 C 34.929688 21.175781 34.96875 21.179688 35.011719 21.179688 C 35.066406 21.179688 35.113281 21.179688 35.164062 21.179688 C 35.207031 21.179688 35.25 21.179688 35.289062 21.179688 C 35.34375 21.179688 35.390625 21.175781 35.441406 21.167969 C 35.484375 21.167969 35.519531 21.167969 35.5625 21.160156 C 35.613281 21.160156 35.667969 21.148438 35.71875 21.136719 C 35.757812 21.136719 35.796875 21.128906 35.835938 21.121094 C 35.886719 21.113281 35.941406 21.101562 35.996094 21.089844 C 36.035156 21.085938 36.070312 21.082031 36.109375 21.070312 C 36.164062 21.054688 36.222656 21.039062 36.285156 21.023438 C 36.316406 21.011719 36.34375 21.007812 36.375 20.996094 C 36.464844 20.96875 36.546875 20.945312 36.636719 20.90625 C 37.195312 20.703125 37.71875 20.378906 38.164062 19.925781 C 39.804688 18.273438 39.792969 15.605469 38.144531 13.964844 "/></g><g style="fill:#000000;fill-opacity:1;"><g transform="translate(59.576532, 26.100688)"><path style="stroke:none" d="M 9.234375 -12.921875 C 8.867188 -12.234375 8.472656 -11.550781 8.046875 -10.875 C 7.628906 -10.207031 7.132812 -9.601562 6.5625 -9.0625 C 7.894531 -7.675781 8.695312 -6.003906 8.96875 -4.046875 C 9.007812 -3.671875 8.945312 -3.363281 8.78125 -3.125 C 8.625 -2.882812 8.40625 -2.722656 8.125 -2.640625 C 7.84375 -2.554688 7.550781 -2.539062 7.25 -2.59375 C 6.945312 -2.65625 6.675781 -2.796875 6.4375 -3.015625 C 6.207031 -3.234375 6.070312 -3.53125 6.03125 -3.90625 C 5.925781 -4.601562 5.695312 -5.253906 5.34375 -5.859375 C 5 -6.472656 4.5625 -7.003906 4.03125 -7.453125 C 3.988281 -5.785156 3.894531 -4.132812 3.75 -2.5 C 3.71875 -2.226562 3.601562 -2 3.40625 -1.8125 C 3.21875 -1.625 2.988281 -1.488281 2.71875 -1.40625 C 2.457031 -1.320312 2.207031 -1.304688 1.96875 -1.359375 C 1.539062 -1.453125 1.238281 -1.671875 1.0625 -2.015625 C 0.882812 -2.359375 0.8125 -2.726562 0.84375 -3.125 C 1 -5 1.09375 -6.878906 1.125 -8.765625 C 1.164062 -10.660156 1.144531 -12.546875 1.0625 -14.421875 C 1.039062 -14.804688 1.125 -15.113281 1.3125 -15.34375 C 1.5 -15.582031 1.738281 -15.742188 2.03125 -15.828125 C 2.320312 -15.921875 2.617188 -15.9375 2.921875 -15.875 C 3.222656 -15.820312 3.476562 -15.6875 3.6875 -15.46875 C 3.894531 -15.25 4.007812 -14.945312 4.03125 -14.5625 C 4.039062 -13.914062 4.054688 -13.273438 4.078125 -12.640625 C 4.097656 -12.003906 4.101562 -11.363281 4.09375 -10.71875 C 4.476562 -10.96875 4.820312 -11.300781 5.125 -11.71875 C 5.4375 -12.132812 5.707031 -12.570312 5.9375 -13.03125 C 6.175781 -13.488281 6.394531 -13.90625 6.59375 -14.28125 C 6.769531 -14.613281 7 -14.835938 7.28125 -14.953125 C 7.5625 -15.066406 7.847656 -15.085938 8.140625 -15.015625 C 8.429688 -14.953125 8.691406 -14.816406 8.921875 -14.609375 C 9.148438 -14.398438 9.296875 -14.148438 9.359375 -13.859375 C 9.429688 -13.566406 9.390625 -13.253906 9.234375 -12.921875 Z M 9.234375 -12.921875 "/></g></g><g style="fill:#000000;fill-opacity:1;"><g transform="translate(70.592903, 25.557511)"><path style="stroke:none" d="M 9.765625 -9.09375 C 9.867188 -7.789062 9.960938 -6.488281 10.046875 -5.1875 C 10.140625 -3.882812 10.242188 -2.578125 10.359375 -1.265625 C 10.378906 -0.878906 10.296875 -0.566406 10.109375 -0.328125 C 9.929688 -0.0859375 9.695312 0.0703125 9.40625 0.15625 C 9.125 0.25 8.832031 0.265625 8.53125 0.203125 C 8.238281 0.148438 7.984375 0.015625 7.765625 -0.203125 C 7.546875 -0.429688 7.425781 -0.734375 7.40625 -1.109375 C 7.363281 -1.503906 7.328125 -1.894531 7.296875 -2.28125 C 7.273438 -2.664062 7.25 -3.054688 7.21875 -3.453125 L 4.28125 -3.4375 C 4.195312 -2.925781 4.117188 -2.421875 4.046875 -1.921875 C 3.984375 -1.429688 3.914062 -0.929688 3.84375 -0.421875 C 3.800781 -0.046875 3.671875 0.226562 3.453125 0.40625 C 3.234375 0.59375 2.972656 0.691406 2.671875 0.703125 C 2.367188 0.710938 2.078125 0.648438 1.796875 0.515625 C 1.515625 0.378906 1.289062 0.175781 1.125 -0.09375 C 0.96875 -0.363281 0.910156 -0.691406 0.953125 -1.078125 C 1.128906 -2.367188 1.332031 -3.648438 1.5625 -4.921875 C 1.800781 -6.191406 2.15625 -7.441406 2.625 -8.671875 C 2.863281 -9.273438 3.171875 -9.925781 3.546875 -10.625 C 3.921875 -11.332031 4.347656 -11.984375 4.828125 -12.578125 C 5.316406 -13.179688 5.867188 -13.628906 6.484375 -13.921875 C 7.066406 -14.191406 7.546875 -14.257812 7.921875 -14.125 C 8.296875 -13.988281 8.597656 -13.71875 8.828125 -13.3125 C 9.054688 -12.914062 9.234375 -12.453125 9.359375 -11.921875 C 9.484375 -11.398438 9.570312 -10.882812 9.625 -10.375 C 9.6875 -9.863281 9.734375 -9.4375 9.765625 -9.09375 Z M 4.9375 -6.375 C 5.289062 -6.382812 5.632812 -6.390625 5.96875 -6.390625 C 6.3125 -6.390625 6.65625 -6.394531 7 -6.40625 C 6.96875 -6.832031 6.9375 -7.257812 6.90625 -7.6875 C 6.875 -8.113281 6.84375 -8.535156 6.8125 -8.953125 C 6.789062 -9.117188 6.773438 -9.296875 6.765625 -9.484375 C 6.753906 -9.679688 6.742188 -9.878906 6.734375 -10.078125 C 6.523438 -9.804688 6.347656 -9.546875 6.203125 -9.296875 C 5.972656 -8.890625 5.757812 -8.46875 5.5625 -8.03125 C 5.363281 -7.59375 5.191406 -7.15625 5.046875 -6.71875 C 5.035156 -6.675781 5.019531 -6.625 5 -6.5625 C 4.976562 -6.5 4.957031 -6.4375 4.9375 -6.375 Z M 4.9375 -6.375 "/></g></g><g style="fill:#000000;fill-opacity:1;"><g transform="translate(81.96337, 24.996875)"><path style="stroke:none" d="M 8.359375 -6.78125 C 8.742188 -6.820312 9.050781 -6.757812 9.28125 -6.59375 C 9.507812 -6.4375 9.671875 -6.210938 9.765625 -5.921875 C 9.859375 -5.640625 9.875 -5.34375 9.8125 -5.03125 C 9.75 -4.726562 9.601562 -4.460938 9.375 -4.234375 C 9.15625 -4.015625 8.863281 -3.878906 8.5 -3.828125 C 7.507812 -3.710938 6.535156 -3.539062 5.578125 -3.3125 C 4.628906 -3.09375 3.6875 -2.816406 2.75 -2.484375 C 2.46875 -2.390625 2.171875 -2.390625 1.859375 -2.484375 C 1.554688 -2.585938 1.300781 -2.753906 1.09375 -2.984375 C 0.894531 -3.222656 0.796875 -3.503906 0.796875 -3.828125 C 0.878906 -5.378906 0.957031 -6.921875 1.03125 -8.453125 C 1.101562 -9.992188 1.175781 -11.535156 1.25 -13.078125 C 1.269531 -13.453125 1.382812 -13.757812 1.59375 -14 C 1.8125 -14.238281 2.066406 -14.398438 2.359375 -14.484375 C 2.660156 -14.578125 2.953125 -14.59375 3.234375 -14.53125 C 3.523438 -14.476562 3.765625 -14.335938 3.953125 -14.109375 C 4.140625 -13.890625 4.222656 -13.59375 4.203125 -13.21875 C 4.148438 -12 4.09375 -10.78125 4.03125 -9.5625 C 3.96875 -8.34375 3.910156 -7.128906 3.859375 -5.921875 C 5.328125 -6.304688 6.828125 -6.59375 8.359375 -6.78125 Z M 8.359375 -6.78125 "/></g></g><g style="fill:#000000;fill-opacity:1;"><g transform="translate(93.038745, 24.45079)"><path style="stroke:none" d="M 8 -4.5625 C 8.375 -4.570312 8.679688 -4.472656 8.921875 -4.265625 C 9.171875 -4.066406 9.335938 -3.820312 9.421875 -3.53125 C 9.503906 -3.25 9.515625 -2.957031 9.453125 -2.65625 C 9.398438 -2.363281 9.257812 -2.117188 9.03125 -1.921875 C 8.8125 -1.722656 8.515625 -1.617188 8.140625 -1.609375 C 7.242188 -1.609375 6.351562 -1.5625 5.46875 -1.46875 C 4.582031 -1.375 3.695312 -1.234375 2.8125 -1.046875 C 2.53125 -0.992188 2.234375 -1.007812 1.921875 -1.09375 C 1.617188 -1.175781 1.359375 -1.320312 1.140625 -1.53125 C 0.929688 -1.75 0.847656 -2.035156 0.890625 -2.390625 C 1.023438 -4.210938 1.179688 -6.035156 1.359375 -7.859375 C 1.535156 -9.679688 1.738281 -11.503906 1.96875 -13.328125 C 1.988281 -13.554688 2.0625 -13.753906 2.1875 -13.921875 C 2.28125 -14.109375 2.421875 -14.265625 2.609375 -14.390625 C 2.804688 -14.523438 3.046875 -14.613281 3.328125 -14.65625 C 4.742188 -14.75 6.160156 -14.789062 7.578125 -14.78125 C 7.953125 -14.769531 8.257812 -14.660156 8.5 -14.453125 C 8.75 -14.242188 8.914062 -13.992188 9 -13.703125 C 9.082031 -13.421875 9.09375 -13.128906 9.03125 -12.828125 C 8.976562 -12.535156 8.835938 -12.289062 8.609375 -12.09375 C 8.390625 -11.90625 8.09375 -11.8125 7.71875 -11.8125 C 6.75 -11.84375 5.757812 -11.832031 4.75 -11.78125 C 4.695312 -11.382812 4.648438 -10.992188 4.609375 -10.609375 C 4.566406 -10.234375 4.53125 -9.851562 4.5 -9.46875 C 5.03125 -9.476562 5.539062 -9.46875 6.03125 -9.4375 C 6.425781 -9.414062 6.78125 -9.285156 7.09375 -9.046875 C 7.40625 -8.804688 7.570312 -8.472656 7.59375 -8.046875 C 7.601562 -7.796875 7.539062 -7.546875 7.40625 -7.296875 C 7.28125 -7.054688 7.109375 -6.859375 6.890625 -6.703125 C 6.679688 -6.554688 6.445312 -6.488281 6.1875 -6.5 C 5.519531 -6.53125 4.851562 -6.53125 4.1875 -6.5 C 4.144531 -6.132812 4.109375 -5.757812 4.078125 -5.375 C 4.046875 -4.988281 4.007812 -4.613281 3.96875 -4.25 C 4.644531 -4.34375 5.3125 -4.414062 5.96875 -4.46875 C 6.632812 -4.53125 7.3125 -4.5625 8 -4.5625 Z M 8 -4.5625 "/></g></g><g style="fill:#000000;fill-opacity:1;"><g transform="translate(103.720693, 23.924102)"><path style="stroke:none" d="M 1.28125 -12.21875 C 1.300781 -12.582031 1.414062 -12.878906 1.625 -13.109375 C 1.832031 -13.347656 2.082031 -13.515625 2.375 -13.609375 C 2.675781 -13.703125 2.972656 -13.71875 3.265625 -13.65625 C 3.566406 -13.601562 3.804688 -13.460938 3.984375 -13.234375 C 4.171875 -13.015625 4.253906 -12.722656 4.234375 -12.359375 C 4.023438 -8.773438 3.898438 -5.195312 3.859375 -1.625 C 3.859375 -1.238281 3.753906 -0.925781 3.546875 -0.6875 C 3.347656 -0.445312 3.101562 -0.285156 2.8125 -0.203125 C 2.53125 -0.117188 2.238281 -0.101562 1.9375 -0.15625 C 1.644531 -0.21875 1.398438 -0.359375 1.203125 -0.578125 C 1.003906 -0.796875 0.90625 -1.097656 0.90625 -1.484375 C 0.945312 -5.054688 1.070312 -8.632812 1.28125 -12.21875 Z M 1.28125 -12.21875 "/></g></g><g style="fill:#000000;fill-opacity:1;"><g transform="translate(109.543637, 23.636995)"><path style="stroke:none" d="M 7.921875 -12.609375 C 8.609375 -12.035156 9.15625 -11.335938 9.5625 -10.515625 C 9.976562 -9.703125 10.160156 -8.832031 10.109375 -7.90625 C 10.046875 -7.15625 9.832031 -6.4375 9.46875 -5.75 C 9.101562 -5.070312 8.644531 -4.472656 8.09375 -3.953125 C 7.46875 -3.367188 6.726562 -2.890625 5.875 -2.515625 C 5.03125 -2.140625 4.210938 -1.796875 3.421875 -1.484375 C 3.203125 -1.398438 2.976562 -1.328125 2.75 -1.265625 C 2.53125 -1.210938 2.304688 -1.195312 2.078125 -1.21875 C 1.753906 -1.226562 1.472656 -1.359375 1.234375 -1.609375 C 0.992188 -1.859375 0.867188 -2.140625 0.859375 -2.453125 C 0.785156 -6.023438 0.789062 -9.609375 0.875 -13.203125 C 0.882812 -13.609375 1.003906 -13.898438 1.234375 -14.078125 C 1.460938 -14.253906 1.742188 -14.351562 2.078125 -14.375 C 2.421875 -14.394531 2.75 -14.390625 3.0625 -14.359375 C 3.25 -14.335938 3.425781 -14.316406 3.59375 -14.296875 C 4.363281 -14.179688 5.113281 -14 5.84375 -13.75 C 6.582031 -13.507812 7.273438 -13.128906 7.921875 -12.609375 Z M 7.046875 -7.59375 C 7.210938 -8.125 7.222656 -8.601562 7.078125 -9.03125 C 6.929688 -9.46875 6.6875 -9.832031 6.34375 -10.125 C 6.007812 -10.425781 5.613281 -10.671875 5.15625 -10.859375 C 4.695312 -11.054688 4.234375 -11.195312 3.765625 -11.28125 C 3.742188 -9.113281 3.742188 -6.972656 3.765625 -4.859375 C 4.253906 -5.035156 4.71875 -5.234375 5.15625 -5.453125 C 5.601562 -5.679688 5.992188 -5.960938 6.328125 -6.296875 C 6.660156 -6.640625 6.898438 -7.070312 7.046875 -7.59375 Z M 7.046875 -7.59375 "/></g></g><g style="fill:#000000;fill-opacity:1;"><g transform="translate(121.032131, 23.07054)"><path style="stroke:none" d="M 10.34375 -12.5625 C 10.675781 -12.0625 10.921875 -11.492188 11.078125 -10.859375 C 11.234375 -10.234375 11.320312 -9.59375 11.34375 -8.9375 C 11.363281 -8.289062 11.335938 -7.6875 11.265625 -7.125 C 11.171875 -6.257812 10.941406 -5.425781 10.578125 -4.625 C 10.210938 -3.832031 9.695312 -3.140625 9.03125 -2.546875 C 8.40625 -1.972656 7.664062 -1.539062 6.8125 -1.25 C 5.96875 -0.957031 5.125 -0.921875 4.28125 -1.140625 C 3.71875 -1.285156 3.222656 -1.539062 2.796875 -1.90625 C 2.378906 -2.28125 2.019531 -2.710938 1.71875 -3.203125 C 1.414062 -3.703125 1.1875 -4.210938 1.03125 -4.734375 C 0.851562 -5.296875 0.726562 -5.953125 0.65625 -6.703125 C 0.59375 -7.453125 0.609375 -8.222656 0.703125 -9.015625 C 0.796875 -9.816406 0.972656 -10.566406 1.234375 -11.265625 C 1.503906 -11.960938 1.882812 -12.550781 2.375 -13.03125 C 2.875 -13.582031 3.488281 -13.988281 4.21875 -14.25 C 4.945312 -14.507812 5.691406 -14.617188 6.453125 -14.578125 C 7.222656 -14.546875 7.953125 -14.363281 8.640625 -14.03125 C 9.335938 -13.695312 9.90625 -13.207031 10.34375 -12.5625 Z M 7.140625 -4.734375 C 7.554688 -5.171875 7.859375 -5.671875 8.046875 -6.234375 C 8.242188 -6.796875 8.351562 -7.382812 8.375 -8 C 8.394531 -8.625 8.351562 -9.222656 8.25 -9.796875 C 8.144531 -10.367188 7.894531 -10.828125 7.5 -11.171875 C 7.101562 -11.523438 6.597656 -11.679688 5.984375 -11.640625 C 5.648438 -11.617188 5.328125 -11.515625 5.015625 -11.328125 C 4.703125 -11.140625 4.445312 -10.90625 4.25 -10.625 C 4.03125 -10.28125 3.878906 -9.875 3.796875 -9.40625 C 3.710938 -8.945312 3.65625 -8.519531 3.625 -8.125 C 3.550781 -7.238281 3.640625 -6.378906 3.890625 -5.546875 C 3.960938 -5.296875 4.0625 -5.046875 4.1875 -4.796875 C 4.320312 -4.554688 4.492188 -4.363281 4.703125 -4.21875 C 5.066406 -3.988281 5.460938 -3.921875 5.890625 -4.015625 C 6.316406 -4.109375 6.691406 -4.300781 7.015625 -4.59375 C 7.046875 -4.632812 7.085938 -4.679688 7.140625 -4.734375 Z M 7.140625 -4.734375 "/></g></g><g style="fill:#000000;fill-opacity:1;"><g transform="translate(133.759964, 22.442977)"><path style="stroke:none" d="M 8.4375 -5.328125 C 8.8125 -5.378906 9.113281 -5.316406 9.34375 -5.140625 C 9.582031 -4.972656 9.75 -4.75 9.84375 -4.46875 C 9.9375 -4.1875 9.953125 -3.890625 9.890625 -3.578125 C 9.828125 -3.273438 9.679688 -3.007812 9.453125 -2.78125 C 9.234375 -2.550781 8.941406 -2.414062 8.578125 -2.375 C 7.578125 -2.269531 6.601562 -2.097656 5.65625 -1.859375 C 4.707031 -1.628906 3.757812 -1.351562 2.8125 -1.03125 C 2.539062 -0.9375 2.25 -0.9375 1.9375 -1.03125 C 1.632812 -1.132812 1.378906 -1.300781 1.171875 -1.53125 C 0.960938 -1.757812 0.863281 -2.039062 0.875 -2.375 C 0.945312 -3.914062 1.019531 -5.453125 1.09375 -6.984375 C 1.175781 -8.523438 1.253906 -10.070312 1.328125 -11.625 C 1.347656 -11.988281 1.460938 -12.289062 1.671875 -12.53125 C 1.890625 -12.769531 2.144531 -12.929688 2.4375 -13.015625 C 2.738281 -13.109375 3.03125 -13.125 3.3125 -13.0625 C 3.601562 -13.007812 3.84375 -12.875 4.03125 -12.65625 C 4.21875 -12.445312 4.300781 -12.148438 4.28125 -11.765625 C 4.21875 -10.546875 4.15625 -9.328125 4.09375 -8.109375 C 4.039062 -6.890625 3.988281 -5.671875 3.9375 -4.453125 C 5.394531 -4.847656 6.894531 -5.140625 8.4375 -5.328125 Z M 8.4375 -5.328125 "/></g></g><g style="fill:#000000;fill-opacity:1;"><g transform="translate(144.835338, 21.896892)"><path style="stroke:none" d="M 8 -4.5625 C 8.375 -4.570312 8.679688 -4.472656 8.921875 -4.265625 C 9.171875 -4.066406 9.335938 -3.820312 9.421875 -3.53125 C 9.503906 -3.25 9.515625 -2.957031 9.453125 -2.65625 C 9.398438 -2.363281 9.257812 -2.117188 9.03125 -1.921875 C 8.8125 -1.722656 8.515625 -1.617188 8.140625 -1.609375 C 7.242188 -1.609375 6.351562 -1.5625 5.46875 -1.46875 C 4.582031 -1.375 3.695312 -1.234375 2.8125 -1.046875 C 2.53125 -0.992188 2.234375 -1.007812 1.921875 -1.09375 C 1.617188 -1.175781 1.359375 -1.320312 1.140625 -1.53125 C 0.929688 -1.75 0.847656 -2.035156 0.890625 -2.390625 C 1.023438 -4.210938 1.179688 -6.035156 1.359375 -7.859375 C 1.535156 -9.679688 1.738281 -11.503906 1.96875 -13.328125 C 1.988281 -13.554688 2.0625 -13.753906 2.1875 -13.921875 C 2.28125 -14.109375 2.421875 -14.265625 2.609375 -14.390625 C 2.804688 -14.523438 3.046875 -14.613281 3.328125 -14.65625 C 4.742188 -14.75 6.160156 -14.789062 7.578125 -14.78125 C 7.953125 -14.769531 8.257812 -14.660156 8.5 -14.453125 C 8.75 -14.242188 8.914062 -13.992188 9 -13.703125 C 9.082031 -13.421875 9.09375 -13.128906 9.03125 -12.828125 C 8.976562 -12.535156 8.835938 -12.289062 8.609375 -12.09375 C 8.390625 -11.90625 8.09375 -11.8125 7.71875 -11.8125 C 6.75 -11.84375 5.757812 -11.832031 4.75 -11.78125 C 4.695312 -11.382812 4.648438 -10.992188 4.609375 -10.609375 C 4.566406 -10.234375 4.53125 -9.851562 4.5 -9.46875 C 5.03125 -9.476562 5.539062 -9.46875 6.03125 -9.4375 C 6.425781 -9.414062 6.78125 -9.285156 7.09375 -9.046875 C 7.40625 -8.804688 7.570312 -8.472656 7.59375 -8.046875 C 7.601562 -7.796875 7.539062 -7.546875 7.40625 -7.296875 C 7.28125 -7.054688 7.109375 -6.859375 6.890625 -6.703125 C 6.679688 -6.554688 6.445312 -6.488281 6.1875 -6.5 C 5.519531 -6.53125 4.851562 -6.53125 4.1875 -6.5 C 4.144531 -6.132812 4.109375 -5.757812 4.078125 -5.375 C 4.046875 -4.988281 4.007812 -4.613281 3.96875 -4.25 C 4.644531 -4.34375 5.3125 -4.414062 5.96875 -4.46875 C 6.632812 -4.53125 7.3125 -4.5625 8 -4.5625 Z M 8 -4.5625 "/></g></g><g style="fill:#000000;fill-opacity:1;"><g transform="translate(155.517287, 21.370204)"><path style="stroke:none" d="M 9.765625 -9.09375 C 9.867188 -7.789062 9.960938 -6.488281 10.046875 -5.1875 C 10.140625 -3.882812 10.242188 -2.578125 10.359375 -1.265625 C 10.378906 -0.878906 10.296875 -0.566406 10.109375 -0.328125 C 9.929688 -0.0859375 9.695312 0.0703125 9.40625 0.15625 C 9.125 0.25 8.832031 0.265625 8.53125 0.203125 C 8.238281 0.148438 7.984375 0.015625 7.765625 -0.203125 C 7.546875 -0.429688 7.425781 -0.734375 7.40625 -1.109375 C 7.363281 -1.503906 7.328125 -1.894531 7.296875 -2.28125 C 7.273438 -2.664062 7.25 -3.054688 7.21875 -3.453125 L 4.28125 -3.4375 C 4.195312 -2.925781 4.117188 -2.421875 4.046875 -1.921875 C 3.984375 -1.429688 3.914062 -0.929688 3.84375 -0.421875 C 3.800781 -0.046875 3.671875 0.226562 3.453125 0.40625 C 3.234375 0.59375 2.972656 0.691406 2.671875 0.703125 C 2.367188 0.710938 2.078125 0.648438 1.796875 0.515625 C 1.515625 0.378906 1.289062 0.175781 1.125 -0.09375 C 0.96875 -0.363281 0.910156 -0.691406 0.953125 -1.078125 C 1.128906 -2.367188 1.332031 -3.648438 1.5625 -4.921875 C 1.800781 -6.191406 2.15625 -7.441406 2.625 -8.671875 C 2.863281 -9.273438 3.171875 -9.925781 3.546875 -10.625 C 3.921875 -11.332031 4.347656 -11.984375 4.828125 -12.578125 C 5.316406 -13.179688 5.867188 -13.628906 6.484375 -13.921875 C 7.066406 -14.191406 7.546875 -14.257812 7.921875 -14.125 C 8.296875 -13.988281 8.597656 -13.71875 8.828125 -13.3125 C 9.054688 -12.914062 9.234375 -12.453125 9.359375 -11.921875 C 9.484375 -11.398438 9.570312 -10.882812 9.625 -10.375 C 9.6875 -9.863281 9.734375 -9.4375 9.765625 -9.09375 Z M 4.9375 -6.375 C 5.289062 -6.382812 5.632812 -6.390625 5.96875 -6.390625 C 6.3125 -6.390625 6.65625 -6.394531 7 -6.40625 C 6.96875 -6.832031 6.9375 -7.257812 6.90625 -7.6875 C 6.875 -8.113281 6.84375 -8.535156 6.8125 -8.953125 C 6.789062 -9.117188 6.773438 -9.296875 6.765625 -9.484375 C 6.753906 -9.679688 6.742188 -9.878906 6.734375 -10.078125 C 6.523438 -9.804688 6.347656 -9.546875 6.203125 -9.296875 C 5.972656 -8.890625 5.757812 -8.46875 5.5625 -8.03125 C 5.363281 -7.59375 5.191406 -7.15625 5.046875 -6.71875 C 5.035156 -6.675781 5.019531 -6.625 5 -6.5625 C 4.976562 -6.5 4.957031 -6.4375 4.9375 -6.375 Z M 4.9375 -6.375 "/></g></g><g style="fill:#000000;fill-opacity:1;"><g transform="translate(166.887754, 20.809569)"><path style="stroke:none" d="M 11.109375 -2.40625 C 11.347656 -2.09375 11.453125 -1.796875 11.421875 -1.515625 C 11.390625 -1.234375 11.273438 -0.984375 11.078125 -0.765625 C 10.878906 -0.546875 10.632812 -0.382812 10.34375 -0.28125 C 10.050781 -0.175781 9.75 -0.160156 9.4375 -0.234375 C 9.125 -0.304688 8.851562 -0.488281 8.625 -0.78125 C 7.988281 -1.5625 7.289062 -2.273438 6.53125 -2.921875 C 5.78125 -3.578125 4.96875 -4.160156 4.09375 -4.671875 C 4.070312 -3.890625 4.050781 -3.109375 4.03125 -2.328125 C 4.007812 -1.546875 3.984375 -0.757812 3.953125 0.03125 C 3.941406 0.40625 3.832031 0.707031 3.625 0.9375 C 3.425781 1.175781 3.175781 1.34375 2.875 1.4375 C 2.570312 1.53125 2.28125 1.546875 2 1.484375 C 1.71875 1.429688 1.476562 1.289062 1.28125 1.0625 C 1.082031 0.84375 0.988281 0.546875 1 0.171875 C 1.039062 -1.273438 1.054688 -2.738281 1.046875 -4.21875 C 1.046875 -5.707031 1.15625 -7.164062 1.375 -8.59375 C 1.488281 -9.320312 1.722656 -10.039062 2.078125 -10.75 C 2.429688 -11.457031 2.90625 -12.046875 3.5 -12.515625 C 4.09375 -12.992188 4.796875 -13.273438 5.609375 -13.359375 C 6.160156 -13.410156 6.691406 -13.328125 7.203125 -13.109375 C 7.722656 -12.898438 8.171875 -12.59375 8.546875 -12.1875 C 8.921875 -11.78125 9.179688 -11.320312 9.328125 -10.8125 C 9.484375 -10.300781 9.484375 -9.753906 9.328125 -9.171875 C 9.171875 -8.597656 8.894531 -8.050781 8.5 -7.53125 C 8.113281 -7.019531 7.664062 -6.566406 7.15625 -6.171875 C 8.613281 -5.097656 9.929688 -3.84375 11.109375 -2.40625 Z M 5.53125 -8.6875 C 5.59375 -8.769531 5.707031 -8.898438 5.875 -9.078125 C 6.050781 -9.253906 6.207031 -9.4375 6.34375 -9.625 C 6.476562 -9.8125 6.53125 -9.957031 6.5 -10.0625 C 6.4375 -10.332031 6.328125 -10.472656 6.171875 -10.484375 C 6.023438 -10.503906 5.859375 -10.457031 5.671875 -10.34375 C 5.492188 -10.226562 5.316406 -10.066406 5.140625 -9.859375 C 4.972656 -9.660156 4.828125 -9.472656 4.703125 -9.296875 C 4.578125 -9.128906 4.5 -9 4.46875 -8.90625 C 4.375 -8.601562 4.296875 -8.273438 4.234375 -7.921875 C 4.492188 -7.972656 4.722656 -8.066406 4.921875 -8.203125 C 5.128906 -8.335938 5.332031 -8.5 5.53125 -8.6875 Z M 5.53125 -8.6875 "/></g></g><g clip-rule="nonzero" clip-path="url(#d36b415662)"><g style="fill:#000000;fill-opacity:1;"><g transform="translate(179.340187, 20.195585)"><path style="stroke:none" d="M 8.0625 -12.34375 C 8.101562 -12.71875 8.226562 -12.992188 8.4375 -13.171875 C 8.65625 -13.359375 8.910156 -13.457031 9.203125 -13.46875 C 9.503906 -13.476562 9.796875 -13.410156 10.078125 -13.265625 C 10.359375 -13.128906 10.582031 -12.925781 10.75 -12.65625 C 10.925781 -12.394531 11 -12.078125 10.96875 -11.703125 C 10.601562 -8.066406 10.109375 -4.441406 9.484375 -0.828125 C 9.429688 -0.535156 9.296875 -0.289062 9.078125 -0.09375 C 8.859375 0.09375 8.597656 0.21875 8.296875 0.28125 C 7.992188 0.34375 7.703125 0.328125 7.421875 0.234375 C 7.148438 0.140625 6.941406 -0.046875 6.796875 -0.328125 C 6.472656 -1.035156 6.132812 -1.738281 5.78125 -2.4375 C 5.4375 -3.144531 5.085938 -3.847656 4.734375 -4.546875 C 4.578125 -3.679688 4.425781 -2.8125 4.28125 -1.9375 C 4.144531 -1.070312 4.019531 -0.207031 3.90625 0.65625 C 3.851562 1.039062 3.710938 1.320312 3.484375 1.5 C 3.253906 1.6875 2.992188 1.78125 2.703125 1.78125 C 2.410156 1.789062 2.125 1.726562 1.84375 1.59375 C 1.570312 1.457031 1.351562 1.253906 1.1875 0.984375 C 1.019531 0.710938 0.96875 0.390625 1.03125 0.015625 C 1.445312 -3.140625 2.003906 -6.269531 2.703125 -9.375 C 2.765625 -9.65625 2.910156 -9.894531 3.140625 -10.09375 C 3.367188 -10.289062 3.625 -10.421875 3.90625 -10.484375 C 4.195312 -10.546875 4.476562 -10.53125 4.75 -10.4375 C 5.019531 -10.351562 5.234375 -10.160156 5.390625 -9.859375 L 7.28125 -5.96875 C 7.445312 -7.019531 7.59375 -8.078125 7.71875 -9.140625 C 7.84375 -10.210938 7.957031 -11.28125 8.0625 -12.34375 Z M 8.0625 -12.34375 "/></g></g></g></g></svg>