<svg xmlns="http://www.w3.org/2000/svg" xmlns:xlink="http://www.w3.org/1999/xlink" width="65" zoomAndPan="magnify" viewBox="0 0 48.75 48" height="64" preserveAspectRatio="xMidYMid meet" version="1.2"><defs><clipPath id="5dff72050a"><path d="M 0.382812 0 L 47.402344 0 L 47.402344 47.019531 L 0.382812 47.019531 Z M 0.382812 0 "/></clipPath><clipPath id="96d5783749"><path d="M 14.453125 3.421875 L 40.160156 3.421875 L 40.160156 23.261719 L 14.453125 23.261719 Z M 14.453125 3.421875 "/></clipPath><clipPath id="c4849d9cd3"><path d="M 23 3.421875 L 40 3.421875 L 40 4 L 23 4 Z M 23 3.421875 "/></clipPath></defs><g id="d531686020"><g clip-rule="nonzero" clip-path="url(#5dff72050a)"><path style=" stroke:none;fill-rule:nonzero;fill:#f05227;fill-opacity:1;" d="M 14.496094 1.628906 L 2.015625 14.109375 C 0.96875 15.152344 0.382812 16.566406 0.382812 18.042969 L 0.382812 41.457031 C 0.382812 44.527344 2.871094 47.019531 5.945312 47.019531 L 29.359375 47.019531 C 30.835938 47.019531 32.25 46.433594 33.292969 45.390625 L 45.777344 32.90625 C 46.820312 31.863281 47.410156 30.449219 47.410156 28.972656 L 47.410156 5.5625 C 47.410156 2.492188 44.921875 0 41.84375 0 L 18.433594 0 C 16.957031 0 15.542969 0.585938 14.5 1.628906 Z M 14.496094 1.628906 "/></g><path style=" stroke:none;fill-rule:nonzero;fill:#ffffff;fill-opacity:1;" d="M 15.125 8.871094 L 16.269531 8.871094 L 18.253906 14.160156 L 20.246094 8.871094 L 21.394531 8.871094 L 21.394531 15.167969 L 20.601562 15.167969 L 20.601562 9.929688 L 20.582031 9.929688 L 18.617188 15.167969 L 17.902344 15.167969 L 15.9375 9.929688 L 15.917969 9.929688 L 15.917969 15.167969 L 15.125 15.167969 Z M 22.785156 8.871094 L 27.132812 8.871094 L 27.132812 9.578125 L 23.625 9.578125 L 23.625 11.578125 L 26.894531 11.578125 L 26.894531 12.285156 L 23.625 12.285156 L 23.625 14.460938 L 27.160156 14.460938 L 27.160156 15.167969 L 22.785156 15.167969 Z M 28.167969 8.871094 L 29.058594 8.871094 L 32.375 13.976562 L 32.390625 13.976562 L 32.390625 8.871094 L 33.183594 8.871094 L 33.183594 15.167969 L 32.265625 15.167969 L 28.980469 10.113281 L 28.960938 10.113281 L 28.960938 15.167969 L 28.167969 15.167969 Z M 34.503906 8.871094 L 35.339844 8.871094 L 35.339844 12.925781 C 35.339844 13.949219 35.933594 14.613281 37.085938 14.613281 C 38.179688 14.613281 38.726562 13.949219 38.726562 12.925781 L 38.726562 8.871094 L 39.566406 8.871094 L 39.566406 12.9375 C 39.566406 14.398438 38.746094 15.316406 37.085938 15.316406 C 35.367188 15.316406 34.503906 14.453125 34.503906 12.9375 Z M 34.503906 8.871094 "/><g clip-rule="nonzero" clip-path="url(#96d5783749)"><path style=" stroke:none;fill-rule:nonzero;fill:#f05227;fill-opacity:1;" d="M 23.570312 -5.921875 L 15.503906 2.265625 C 14.832031 2.949219 14.453125 3.878906 14.453125 4.847656 L 14.453125 20.207031 C 14.453125 22.222656 16.058594 23.859375 18.046875 23.859375 L 33.175781 23.859375 C 34.128906 23.859375 35.042969 23.472656 35.714844 22.789062 L 43.785156 14.597656 C 44.457031 13.910156 44.835938 12.984375 44.835938 12.015625 L 44.835938 -3.34375 C 44.835938 -5.359375 43.230469 -6.992188 41.242188 -6.992188 L 26.113281 -6.992188 C 25.160156 -6.992188 24.246094 -6.609375 23.574219 -5.921875 Z M 23.570312 -5.921875 "/></g><g clip-rule="nonzero" clip-path="url(#c4849d9cd3)"><path style=" stroke:none;fill-rule:nonzero;fill:#ffffff;fill-opacity:1;" d="M 23.976562 -1.171875 L 24.71875 -1.171875 L 26 2.296875 L 27.285156 -1.171875 L 28.027344 -1.171875 L 28.027344 2.957031 L 27.515625 2.957031 L 27.515625 -0.476562 L 27.503906 -0.476562 L 26.234375 2.957031 L 25.769531 2.957031 L 24.5 -0.476562 L 24.488281 -0.476562 L 24.488281 2.957031 L 23.976562 2.957031 Z M 28.929688 -1.171875 L 31.734375 -1.171875 L 31.734375 -0.710938 L 29.46875 -0.710938 L 29.46875 0.605469 L 31.582031 0.605469 L 31.582031 1.066406 L 29.46875 1.066406 L 29.46875 2.496094 L 31.753906 2.496094 L 31.753906 2.957031 L 28.929688 2.957031 Z M 32.40625 -1.171875 L 32.980469 -1.171875 L 35.121094 2.175781 L 35.132812 2.175781 L 35.132812 -1.171875 L 35.644531 -1.171875 L 35.644531 2.957031 L 35.054688 2.957031 L 32.929688 -0.355469 L 32.917969 -0.355469 L 32.917969 2.957031 L 32.40625 2.957031 Z M 36.5 -1.171875 L 37.039062 -1.171875 L 37.039062 1.488281 C 37.039062 2.160156 37.421875 2.59375 38.167969 2.59375 C 38.875 2.59375 39.226562 2.160156 39.226562 1.488281 L 39.226562 -1.171875 L 39.769531 -1.171875 L 39.769531 1.496094 C 39.769531 2.453125 39.238281 3.054688 38.167969 3.054688 C 37.058594 3.054688 36.5 2.488281 36.5 1.496094 Z M 36.5 -1.171875 "/></g><g style="fill:#ffffff;fill-opacity:1;"><g transform="translate(15.755203, 15.85002)"><path style="stroke:none" d="M 1.125 -3.890625 C 1.144531 -3.890625 1.164062 -3.890625 1.1875 -3.890625 C 1.1875 -3.472656 1.179688 -3.0625 1.171875 -2.65625 C 1.171875 -2.25 1.175781 -1.84375 1.1875 -1.4375 C 1.195312 -1.257812 1.210938 -1.132812 1.234375 -1.0625 C 1.265625 -0.988281 1.320312 -0.945312 1.40625 -0.9375 C 1.5 -0.925781 1.628906 -0.9375 1.796875 -0.96875 C 2.035156 -1.007812 2.273438 -1.050781 2.515625 -1.09375 C 2.765625 -1.132812 3.007812 -1.164062 3.25 -1.1875 C 3.425781 -1.207031 3.566406 -1.179688 3.671875 -1.109375 C 3.773438 -1.046875 3.84375 -0.953125 3.875 -0.828125 C 3.894531 -0.691406 3.863281 -0.5625 3.78125 -0.4375 C 3.695312 -0.320312 3.570312 -0.253906 3.40625 -0.234375 C 3.070312 -0.179688 2.734375 -0.128906 2.390625 -0.078125 C 2.046875 -0.0351562 1.707031 -0.0078125 1.375 0 C 1.03125 0.0078125 0.789062 -0.0703125 0.65625 -0.25 C 0.53125 -0.425781 0.441406 -0.726562 0.390625 -1.15625 C 0.378906 -1.289062 0.367188 -1.425781 0.359375 -1.5625 C 0.359375 -1.707031 0.359375 -1.851562 0.359375 -2 C 0.378906 -2.757812 0.40625 -3.515625 0.4375 -4.265625 C 0.46875 -5.023438 0.5 -5.78125 0.53125 -6.53125 C 0.53125 -6.582031 0.535156 -6.632812 0.546875 -6.6875 C 0.554688 -6.738281 0.570312 -6.785156 0.59375 -6.828125 C 0.625 -6.859375 0.660156 -6.890625 0.703125 -6.921875 C 0.742188 -6.960938 0.78125 -6.976562 0.8125 -6.96875 C 0.863281 -6.96875 0.910156 -6.945312 0.953125 -6.90625 C 1.003906 -6.875 1.039062 -6.835938 1.0625 -6.796875 C 1.082031 -6.710938 1.097656 -6.628906 1.109375 -6.546875 C 1.117188 -6.460938 1.125 -6.378906 1.125 -6.296875 C 1.132812 -5.890625 1.132812 -5.484375 1.125 -5.078125 C 1.125 -4.679688 1.125 -4.285156 1.125 -3.890625 Z M 1.125 -3.890625 "/></g></g><g style="fill:#ffffff;fill-opacity:1;"><g transform="translate(19.992657, 15.85002)"><path style="stroke:none" d="M 1.265625 -1.0625 C 0.929688 -1.363281 0.691406 -1.707031 0.546875 -2.09375 C 0.398438 -2.476562 0.335938 -2.914062 0.359375 -3.40625 C 0.367188 -3.75 0.421875 -4.097656 0.515625 -4.453125 C 0.617188 -4.816406 0.769531 -5.164062 0.96875 -5.5 C 1.195312 -5.894531 1.484375 -6.210938 1.828125 -6.453125 C 2.171875 -6.703125 2.546875 -6.863281 2.953125 -6.9375 C 3.367188 -7.007812 3.789062 -6.984375 4.21875 -6.859375 C 4.59375 -6.742188 4.960938 -6.597656 5.328125 -6.421875 C 5.691406 -6.253906 6.015625 -6.015625 6.296875 -5.703125 C 6.535156 -5.410156 6.722656 -5.082031 6.859375 -4.71875 C 6.992188 -4.363281 7.066406 -3.992188 7.078125 -3.609375 C 7.085938 -3.234375 7.039062 -2.859375 6.9375 -2.484375 C 6.832031 -2.117188 6.660156 -1.785156 6.421875 -1.484375 C 6.347656 -1.367188 6.265625 -1.257812 6.171875 -1.15625 C 6.085938 -1.050781 5.992188 -0.957031 5.890625 -0.875 C 5.492188 -0.519531 5.070312 -0.265625 4.625 -0.109375 C 4.175781 0.0351562 3.6875 0.0390625 3.15625 -0.09375 C 2.800781 -0.1875 2.460938 -0.304688 2.140625 -0.453125 C 1.816406 -0.609375 1.523438 -0.8125 1.265625 -1.0625 Z M 1.6875 -5.125 C 1.53125 -4.84375 1.410156 -4.550781 1.328125 -4.25 C 1.242188 -3.957031 1.191406 -3.648438 1.171875 -3.328125 C 1.203125 -3.179688 1.226562 -3.03125 1.25 -2.875 C 1.269531 -2.71875 1.304688 -2.566406 1.359375 -2.421875 C 1.429688 -2.210938 1.578125 -2.003906 1.796875 -1.796875 C 2.015625 -1.597656 2.265625 -1.425781 2.546875 -1.28125 C 2.828125 -1.132812 3.113281 -1.03125 3.40625 -0.96875 C 3.695312 -0.90625 3.957031 -0.90625 4.1875 -0.96875 C 4.613281 -1.082031 4.976562 -1.28125 5.28125 -1.5625 C 5.59375 -1.851562 5.816406 -2.195312 5.953125 -2.59375 C 6.097656 -3 6.132812 -3.4375 6.0625 -3.90625 C 6.007812 -4.289062 5.867188 -4.613281 5.640625 -4.875 C 5.410156 -5.144531 5.113281 -5.351562 4.75 -5.5 C 4.570312 -5.582031 4.394531 -5.671875 4.21875 -5.765625 C 4.050781 -5.867188 3.882812 -5.960938 3.71875 -6.046875 C 3.644531 -6.078125 3.570312 -6.109375 3.5 -6.140625 C 3.425781 -6.179688 3.359375 -6.195312 3.296875 -6.1875 C 2.578125 -6.125 2.039062 -5.769531 1.6875 -5.125 Z M 1.6875 -5.125 "/></g></g><g style="fill:#ffffff;fill-opacity:1;"><g transform="translate(27.430178, 15.85002)"><path style="stroke:none" d="M 4.03125 -1.1875 C 4.769531 -1.457031 5.238281 -2.003906 5.4375 -2.828125 C 5.226562 -2.847656 5.019531 -2.863281 4.8125 -2.875 C 4.613281 -2.894531 4.414062 -2.925781 4.21875 -2.96875 C 4 -3 3.804688 -3.0625 3.640625 -3.15625 C 3.597656 -3.175781 3.554688 -3.21875 3.515625 -3.28125 C 3.484375 -3.351562 3.472656 -3.414062 3.484375 -3.46875 C 3.492188 -3.519531 3.523438 -3.566406 3.578125 -3.609375 C 3.628906 -3.660156 3.679688 -3.6875 3.734375 -3.6875 C 4.066406 -3.695312 4.40625 -3.703125 4.75 -3.703125 C 5.09375 -3.703125 5.4375 -3.6875 5.78125 -3.65625 C 5.90625 -3.65625 6.015625 -3.601562 6.109375 -3.5 C 6.210938 -3.40625 6.285156 -3.289062 6.328125 -3.15625 C 6.378906 -3.019531 6.394531 -2.882812 6.375 -2.75 C 6.300781 -2.300781 6.15625 -1.898438 5.9375 -1.546875 C 5.726562 -1.203125 5.472656 -0.910156 5.171875 -0.671875 C 4.867188 -0.429688 4.535156 -0.253906 4.171875 -0.140625 C 3.804688 -0.0234375 3.429688 0.0195312 3.046875 0 C 2.660156 -0.0195312 2.285156 -0.113281 1.921875 -0.28125 C 1.453125 -0.488281 1.09375 -0.78125 0.84375 -1.15625 C 0.601562 -1.539062 0.453125 -1.976562 0.390625 -2.46875 C 0.304688 -3.257812 0.378906 -4.03125 0.609375 -4.78125 C 0.765625 -5.289062 1.019531 -5.722656 1.375 -6.078125 C 1.738281 -6.429688 2.164062 -6.679688 2.65625 -6.828125 C 3.144531 -6.984375 3.671875 -7.015625 4.234375 -6.921875 C 4.472656 -6.878906 4.710938 -6.820312 4.953125 -6.75 C 5.203125 -6.675781 5.441406 -6.601562 5.671875 -6.53125 C 5.765625 -6.5 5.84375 -6.445312 5.90625 -6.375 C 5.976562 -6.300781 6 -6.207031 5.96875 -6.09375 C 5.925781 -5.96875 5.859375 -5.898438 5.765625 -5.890625 C 5.679688 -5.890625 5.59375 -5.894531 5.5 -5.90625 C 5.289062 -5.9375 5.078125 -5.972656 4.859375 -6.015625 C 4.648438 -6.054688 4.4375 -6.09375 4.21875 -6.125 C 3.394531 -6.21875 2.734375 -6.0625 2.234375 -5.65625 C 1.742188 -5.257812 1.460938 -4.65625 1.390625 -3.84375 C 1.359375 -3.53125 1.347656 -3.222656 1.359375 -2.921875 C 1.367188 -2.492188 1.457031 -2.144531 1.625 -1.875 C 1.800781 -1.601562 2.023438 -1.398438 2.296875 -1.265625 C 2.566406 -1.128906 2.851562 -1.054688 3.15625 -1.046875 C 3.457031 -1.035156 3.75 -1.082031 4.03125 -1.1875 Z M 4.03125 -1.1875 "/></g></g><g style="fill:#ffffff;fill-opacity:1;"><g transform="translate(34.173182, 15.85002)"><path style="stroke:none" d="M 1.375 -6.28125 C 1.375 -6.125 1.375 -5.90625 1.375 -5.625 C 1.382812 -5.351562 1.394531 -5.039062 1.40625 -4.6875 C 1.414062 -4.332031 1.421875 -3.96875 1.421875 -3.59375 C 1.429688 -3.21875 1.4375 -2.851562 1.4375 -2.5 C 1.445312 -2.15625 1.453125 -1.847656 1.453125 -1.578125 C 1.453125 -1.304688 1.453125 -1.097656 1.453125 -0.953125 C 1.453125 -0.847656 1.445312 -0.738281 1.4375 -0.625 C 1.4375 -0.519531 1.410156 -0.425781 1.359375 -0.34375 C 1.316406 -0.257812 1.25 -0.179688 1.15625 -0.109375 C 1.070312 -0.046875 0.988281 -0.0078125 0.90625 0 C 0.832031 0.0078125 0.75 -0.0195312 0.65625 -0.09375 C 0.570312 -0.164062 0.503906 -0.238281 0.453125 -0.3125 C 0.410156 -0.382812 0.382812 -0.46875 0.375 -0.5625 C 0.363281 -0.664062 0.359375 -0.765625 0.359375 -0.859375 C 0.378906 -1.765625 0.398438 -2.664062 0.421875 -3.5625 C 0.441406 -4.46875 0.46875 -5.378906 0.5 -6.296875 C 0.507812 -6.753906 0.660156 -6.976562 0.953125 -6.96875 C 1.222656 -6.957031 1.363281 -6.726562 1.375 -6.28125 Z M 1.375 -6.28125 "/></g></g><g style="fill:#ffffff;fill-opacity:1;"><g transform="translate(36.661145, 15.85002)"><path style="stroke:none" d="M 5.46875 -1.359375 C 5.476562 -1.367188 5.488281 -1.375 5.5 -1.375 C 5.519531 -1.375 5.539062 -1.375 5.5625 -1.375 C 5.582031 -1.800781 5.597656 -2.226562 5.609375 -2.65625 C 5.628906 -3.082031 5.640625 -3.503906 5.640625 -3.921875 C 5.640625 -4.273438 5.625 -4.625 5.59375 -4.96875 C 5.5625 -5.3125 5.535156 -5.660156 5.515625 -6.015625 C 5.503906 -6.128906 5.503906 -6.238281 5.515625 -6.34375 C 5.535156 -6.457031 5.5625 -6.566406 5.59375 -6.671875 C 5.613281 -6.773438 5.660156 -6.851562 5.734375 -6.90625 C 5.804688 -6.96875 5.898438 -6.988281 6.015625 -6.96875 C 6.117188 -6.945312 6.195312 -6.898438 6.25 -6.828125 C 6.300781 -6.765625 6.320312 -6.679688 6.3125 -6.578125 C 6.3125 -5.972656 6.320312 -5.367188 6.34375 -4.765625 C 6.375 -4.171875 6.390625 -3.578125 6.390625 -2.984375 C 6.398438 -2.390625 6.367188 -1.796875 6.296875 -1.203125 C 6.285156 -1.097656 6.273438 -0.992188 6.265625 -0.890625 C 6.253906 -0.785156 6.234375 -0.6875 6.203125 -0.59375 C 6.148438 -0.394531 6.039062 -0.265625 5.875 -0.203125 C 5.71875 -0.140625 5.554688 -0.164062 5.390625 -0.28125 C 5.273438 -0.34375 5.171875 -0.429688 5.078125 -0.546875 C 4.554688 -1.148438 4.035156 -1.757812 3.515625 -2.375 C 2.992188 -2.988281 2.476562 -3.601562 1.96875 -4.21875 C 1.84375 -4.363281 1.722656 -4.515625 1.609375 -4.671875 C 1.503906 -4.828125 1.390625 -4.988281 1.265625 -5.15625 C 1.265625 -5.082031 1.257812 -5.019531 1.25 -4.96875 C 1.25 -4.925781 1.25 -4.882812 1.25 -4.84375 C 1.238281 -4.144531 1.226562 -3.441406 1.21875 -2.734375 C 1.21875 -2.035156 1.210938 -1.335938 1.203125 -0.640625 C 1.203125 -0.585938 1.203125 -0.535156 1.203125 -0.484375 C 1.203125 -0.441406 1.195312 -0.398438 1.1875 -0.359375 C 1.164062 -0.265625 1.128906 -0.179688 1.078125 -0.109375 C 1.023438 -0.046875 0.9375 -0.0078125 0.8125 0 C 0.707031 0.0078125 0.617188 -0.0078125 0.546875 -0.0625 C 0.484375 -0.125 0.441406 -0.207031 0.421875 -0.3125 C 0.398438 -0.394531 0.382812 -0.484375 0.375 -0.578125 C 0.363281 -0.671875 0.359375 -0.765625 0.359375 -0.859375 C 0.390625 -1.671875 0.425781 -2.484375 0.46875 -3.296875 C 0.507812 -4.109375 0.546875 -4.925781 0.578125 -5.75 C 0.585938 -5.863281 0.613281 -5.984375 0.65625 -6.109375 C 0.675781 -6.191406 0.71875 -6.25 0.78125 -6.28125 C 0.851562 -6.320312 0.929688 -6.316406 1.015625 -6.265625 C 1.140625 -6.203125 1.265625 -6.128906 1.390625 -6.046875 C 1.523438 -5.972656 1.640625 -5.878906 1.734375 -5.765625 C 2.285156 -5.148438 2.828125 -4.523438 3.359375 -3.890625 C 3.898438 -3.253906 4.441406 -2.617188 4.984375 -1.984375 C 5.066406 -1.890625 5.144531 -1.785156 5.21875 -1.671875 C 5.300781 -1.566406 5.382812 -1.460938 5.46875 -1.359375 Z M 5.46875 -1.359375 "/></g></g></g></svg>