<svg xmlns="http://www.w3.org/2000/svg" xmlns:xlink="http://www.w3.org/1999/xlink" width="1256" zoomAndPan="magnify" viewBox="0 0 942 169.5" height="226" preserveAspectRatio="xMidYMid meet" version="1.2"><defs/><g id="a318af5006"><g style="fill:#000000;fill-opacity:1;"><g transform="translate(16.234423, 140.513407)"><path style="stroke:none" d="M 63.671875 -89.15625 C 61.171875 -84.40625 58.46875 -79.710938 55.5625 -75.078125 C 52.664062 -70.453125 49.269531 -66.273438 45.375 -62.546875 C 54.550781 -53.003906 60.066406 -41.429688 61.921875 -27.828125 C 62.222656 -25.296875 61.800781 -23.207031 60.65625 -21.5625 C 59.507812 -19.914062 57.976562 -18.796875 56.0625 -18.203125 C 54.144531 -17.617188 52.128906 -17.519531 50.015625 -17.90625 C 47.910156 -18.300781 46.050781 -19.253906 44.4375 -20.765625 C 42.820312 -22.273438 41.863281 -24.296875 41.5625 -26.828125 C 40.863281 -31.679688 39.320312 -36.226562 36.9375 -40.46875 C 34.550781 -44.707031 31.507812 -48.375 27.8125 -51.46875 C 27.476562 -39.914062 26.816406 -28.492188 25.828125 -17.203125 C 25.640625 -15.378906 24.875 -13.816406 23.53125 -12.515625 C 22.195312 -11.222656 20.613281 -10.28125 18.78125 -9.6875 C 16.957031 -9.101562 15.21875 -9 13.5625 -9.375 C 10.625 -10.039062 8.550781 -11.546875 7.34375 -13.890625 C 6.144531 -16.242188 5.65625 -18.785156 5.875 -21.515625 C 6.957031 -34.460938 7.609375 -47.453125 7.828125 -60.484375 C 8.046875 -73.515625 7.882812 -86.503906 7.34375 -99.453125 C 7.21875 -102.085938 7.796875 -104.226562 9.078125 -105.875 C 10.359375 -107.519531 12.003906 -108.640625 14.015625 -109.234375 C 16.023438 -109.835938 18.0625 -109.941406 20.125 -109.546875 C 22.1875 -109.148438 23.929688 -108.191406 25.359375 -106.671875 C 26.796875 -105.160156 27.578125 -103.085938 27.703125 -100.453125 C 27.835938 -96.015625 27.96875 -91.597656 28.09375 -87.203125 C 28.21875 -82.816406 28.257812 -78.394531 28.21875 -73.9375 C 30.84375 -75.695312 33.21875 -78.015625 35.34375 -80.890625 C 37.476562 -83.765625 39.375 -86.785156 41.03125 -89.953125 C 42.6875 -93.128906 44.175781 -95.972656 45.5 -98.484375 C 46.75 -100.804688 48.328125 -102.351562 50.234375 -103.125 C 52.148438 -103.90625 54.140625 -104.070312 56.203125 -103.625 C 58.273438 -103.1875 60.09375 -102.257812 61.65625 -100.84375 C 63.226562 -99.425781 64.242188 -97.707031 64.703125 -95.6875 C 65.160156 -93.664062 64.816406 -91.488281 63.671875 -89.15625 Z M 63.671875 -89.15625 "/></g></g><g style="fill:#000000;fill-opacity:1;"><g transform="translate(92.246861, 136.765516)"><path style="stroke:none" d="M 67.40625 -62.796875 C 68.113281 -53.847656 68.78125 -44.851562 69.40625 -35.8125 C 70.039062 -26.78125 70.71875 -17.742188 71.4375 -8.703125 C 71.65625 -6.078125 71.125 -3.9375 69.84375 -2.28125 C 68.570312 -0.632812 66.953125 0.484375 64.984375 1.078125 C 63.015625 1.679688 61 1.78125 58.9375 1.375 C 56.875 0.976562 55.101562 0.0234375 53.625 -1.484375 C 52.144531 -2.992188 51.296875 -5.066406 51.078125 -7.703125 C 50.847656 -10.410156 50.644531 -13.097656 50.46875 -15.765625 C 50.300781 -18.429688 50.101562 -21.117188 49.875 -23.828125 L 29.46875 -23.625 C 28.90625 -20.164062 28.390625 -16.71875 27.921875 -13.28125 C 27.460938 -9.851562 27 -6.40625 26.53125 -2.9375 C 26.207031 -0.289062 25.28125 1.65625 23.75 2.90625 C 22.21875 4.164062 20.410156 4.820312 18.328125 4.875 C 16.253906 4.9375 14.257812 4.488281 12.34375 3.53125 C 10.4375 2.582031 8.914062 1.1875 7.78125 -0.65625 C 6.65625 -2.507812 6.253906 -4.753906 6.578125 -7.390625 C 7.765625 -16.347656 9.160156 -25.222656 10.765625 -34.015625 C 12.378906 -42.804688 14.835938 -51.410156 18.140625 -59.828125 C 19.753906 -63.992188 21.847656 -68.5 24.421875 -73.34375 C 26.992188 -78.195312 29.972656 -82.675781 33.359375 -86.78125 C 36.742188 -90.894531 40.5625 -93.96875 44.8125 -96 C 48.8125 -97.90625 52.101562 -98.378906 54.6875 -97.421875 C 57.269531 -96.460938 59.351562 -94.613281 60.9375 -91.875 C 62.53125 -89.144531 63.753906 -85.960938 64.609375 -82.328125 C 65.472656 -78.691406 66.101562 -75.113281 66.5 -71.59375 C 66.90625 -68.082031 67.207031 -65.148438 67.40625 -62.796875 Z M 34.03125 -44.015625 C 36.476562 -44.046875 38.878906 -44.070312 41.234375 -44.09375 C 43.597656 -44.125 45.957031 -44.148438 48.3125 -44.171875 C 48.070312 -47.148438 47.859375 -50.109375 47.671875 -53.046875 C 47.484375 -55.992188 47.273438 -58.910156 47.046875 -61.796875 C 46.890625 -62.960938 46.78125 -64.203125 46.71875 -65.515625 C 46.65625 -66.835938 46.585938 -68.175781 46.515625 -69.53125 C 45.066406 -67.644531 43.84375 -65.863281 42.84375 -64.1875 C 41.164062 -61.375 39.648438 -58.457031 38.296875 -55.4375 C 36.953125 -52.425781 35.765625 -49.40625 34.734375 -46.375 C 34.660156 -46 34.566406 -45.601562 34.453125 -45.1875 C 34.335938 -44.78125 34.195312 -44.390625 34.03125 -44.015625 Z M 34.03125 -44.015625 "/></g></g><g style="fill:#000000;fill-opacity:1;"><g transform="translate(170.702551, 132.897156)"><path style="stroke:none" d="M 57.71875 -46.8125 C 60.332031 -47.125 62.4375 -46.707031 64.03125 -45.5625 C 65.632812 -44.414062 66.757812 -42.859375 67.40625 -40.890625 C 68.050781 -38.921875 68.148438 -36.882812 67.703125 -34.78125 C 67.265625 -32.675781 66.289062 -30.835938 64.78125 -29.265625 C 63.269531 -27.691406 61.25 -26.75 58.71875 -26.4375 C 51.863281 -25.550781 45.140625 -24.332031 38.546875 -22.78125 C 31.960938 -21.238281 25.410156 -19.351562 18.890625 -17.125 C 17.023438 -16.488281 15.03125 -16.503906 12.90625 -17.171875 C 10.78125 -17.835938 8.992188 -18.972656 7.546875 -20.578125 C 6.109375 -22.191406 5.425781 -24.132812 5.5 -26.40625 C 6.0625 -37.0625 6.601562 -47.707031 7.125 -58.34375 C 7.644531 -68.976562 8.140625 -79.617188 8.609375 -90.265625 C 8.753906 -92.804688 9.554688 -94.90625 11.015625 -96.5625 C 12.484375 -98.226562 14.242188 -99.363281 16.296875 -99.96875 C 18.359375 -100.570312 20.375 -100.671875 22.34375 -100.265625 C 24.320312 -99.859375 25.957031 -98.894531 27.25 -97.375 C 28.550781 -95.851562 29.125 -93.816406 28.96875 -91.265625 C 28.570312 -82.804688 28.175781 -74.367188 27.78125 -65.953125 C 27.382812 -57.546875 26.984375 -49.15625 26.578125 -40.78125 C 36.691406 -43.457031 47.070312 -45.46875 57.71875 -46.8125 Z M 57.71875 -46.8125 "/></g></g><g style="fill:#000000;fill-opacity:1;"><g transform="translate(247.122113, 129.129191)"><path style="stroke:none" d="M 55.21875 -31.453125 C 57.84375 -31.484375 59.984375 -30.8125 61.640625 -29.4375 C 63.296875 -28.070312 64.421875 -26.382812 65.015625 -24.375 C 65.617188 -22.363281 65.71875 -20.347656 65.3125 -18.328125 C 64.914062 -16.304688 63.957031 -14.597656 62.4375 -13.203125 C 60.914062 -11.816406 58.84375 -11.109375 56.21875 -11.078125 C 50.050781 -11.046875 43.894531 -10.71875 37.75 -10.09375 C 31.613281 -9.46875 25.488281 -8.507812 19.375 -7.21875 C 17.5 -6.851562 15.5 -6.957031 13.375 -7.53125 C 11.257812 -8.101562 9.460938 -9.125 7.984375 -10.59375 C 6.515625 -12.0625 5.894531 -14.03125 6.125 -16.5 C 7.050781 -29.0625 8.132812 -41.632812 9.375 -54.21875 C 10.613281 -66.8125 12.015625 -79.40625 13.578125 -92 C 13.765625 -93.550781 14.238281 -94.894531 15 -96.03125 C 15.65625 -97.332031 16.640625 -98.441406 17.953125 -99.359375 C 19.273438 -100.285156 20.9375 -100.847656 22.9375 -101.046875 C 32.6875 -101.796875 42.46875 -102.09375 52.28125 -101.9375 C 54.90625 -101.882812 57.046875 -101.148438 58.703125 -99.734375 C 60.367188 -98.328125 61.5 -96.617188 62.09375 -94.609375 C 62.695312 -92.597656 62.796875 -90.582031 62.390625 -88.5625 C 61.992188 -86.550781 61.03125 -84.867188 59.5 -83.515625 C 57.976562 -82.171875 55.90625 -81.523438 53.28125 -81.578125 C 46.550781 -81.703125 39.703125 -81.59375 32.734375 -81.25 C 32.421875 -78.601562 32.101562 -75.953125 31.78125 -73.296875 C 31.457031 -70.648438 31.175781 -68.007812 30.9375 -65.375 C 34.65625 -65.457031 38.238281 -65.398438 41.6875 -65.203125 C 44.414062 -65.066406 46.84375 -64.171875 48.96875 -62.515625 C 51.101562 -60.859375 52.242188 -58.535156 52.390625 -55.546875 C 52.472656 -53.816406 52.078125 -52.113281 51.203125 -50.4375 C 50.335938 -48.757812 49.15625 -47.382812 47.65625 -46.3125 C 46.164062 -45.25 44.507812 -44.757812 42.6875 -44.84375 C 38.0625 -45.082031 33.441406 -45.085938 28.828125 -44.859375 C 28.585938 -42.296875 28.347656 -39.691406 28.109375 -37.046875 C 27.878906 -34.410156 27.648438 -31.816406 27.421875 -29.265625 C 32.003906 -29.941406 36.601562 -30.457031 41.21875 -30.8125 C 45.832031 -31.175781 50.5 -31.390625 55.21875 -31.453125 Z M 55.21875 -31.453125 "/></g></g><g style="fill:#000000;fill-opacity:1;"><g transform="translate(320.82705, 125.495074)"><path style="stroke:none" d="M 8.78125 -84.28125 C 8.925781 -86.820312 9.734375 -88.898438 11.203125 -90.515625 C 12.671875 -92.140625 14.425781 -93.273438 16.46875 -93.921875 C 18.519531 -94.566406 20.554688 -94.6875 22.578125 -94.28125 C 24.597656 -93.882812 26.234375 -92.921875 27.484375 -91.390625 C 28.734375 -89.859375 29.285156 -87.820312 29.140625 -85.28125 C 27.722656 -60.625 26.898438 -35.945312 26.671875 -11.25 C 26.617188 -8.625 25.90625 -6.476562 24.53125 -4.8125 C 23.15625 -3.15625 21.460938 -2.03125 19.453125 -1.4375 C 17.453125 -0.84375 15.441406 -0.742188 13.421875 -1.140625 C 11.398438 -1.535156 9.691406 -2.492188 8.296875 -4.015625 C 6.910156 -5.546875 6.242188 -7.617188 6.296875 -10.234375 C 6.523438 -34.929688 7.351562 -59.613281 8.78125 -84.28125 Z M 8.78125 -84.28125 "/></g></g><g style="fill:#000000;fill-opacity:1;"><g transform="translate(361.005084, 123.514044)"><path style="stroke:none" d="M 54.65625 -86.953125 C 59.46875 -83.015625 63.285156 -78.234375 66.109375 -72.609375 C 68.929688 -66.984375 70.132812 -60.988281 69.71875 -54.625 C 69.34375 -49.34375 67.882812 -44.347656 65.34375 -39.640625 C 62.8125 -34.929688 59.640625 -30.800781 55.828125 -27.25 C 51.578125 -23.238281 46.5 -19.925781 40.59375 -17.3125 C 34.6875 -14.707031 29.015625 -12.363281 23.578125 -10.28125 C 22.066406 -9.664062 20.53125 -9.160156 18.96875 -8.765625 C 17.40625 -8.367188 15.847656 -8.21875 14.296875 -8.3125 C 12.109375 -8.476562 10.175781 -9.40625 8.5 -11.09375 C 6.820312 -12.789062 5.976562 -14.726562 5.96875 -16.90625 C 5.382812 -41.550781 5.390625 -66.28125 5.984375 -91.09375 C 6.023438 -93.90625 6.851562 -95.914062 8.46875 -97.125 C 10.09375 -98.34375 12.054688 -99.03125 14.359375 -99.1875 C 16.671875 -99.351562 18.925781 -99.304688 21.125 -99.046875 C 22.394531 -98.921875 23.578125 -98.796875 24.671875 -98.671875 C 30.054688 -97.859375 35.289062 -96.597656 40.375 -94.890625 C 45.457031 -93.179688 50.21875 -90.535156 54.65625 -86.953125 Z M 48.71875 -52.5 C 49.8125 -56.1875 49.851562 -59.5 48.84375 -62.4375 C 47.84375 -65.375 46.15625 -67.875 43.78125 -69.9375 C 41.414062 -72 38.65625 -73.675781 35.5 -74.96875 C 32.351562 -76.269531 29.179688 -77.207031 25.984375 -77.78125 C 25.804688 -62.894531 25.804688 -48.097656 25.984375 -33.390625 C 29.273438 -34.648438 32.445312 -36.054688 35.5 -37.609375 C 38.5625 -39.171875 41.253906 -41.125 43.578125 -43.46875 C 45.910156 -45.8125 47.625 -48.820312 48.71875 -52.5 Z M 48.71875 -52.5 "/></g></g><g style="fill:#000000;fill-opacity:1;"><g transform="translate(440.27515, 119.605531)"><path style="stroke:none" d="M 71.40625 -86.6875 C 73.757812 -83.269531 75.445312 -79.382812 76.46875 -75.03125 C 77.5 -70.675781 78.082031 -66.253906 78.21875 -61.765625 C 78.351562 -57.285156 78.195312 -53.078125 77.75 -49.140625 C 77.144531 -43.128906 75.566406 -37.378906 73.015625 -31.890625 C 70.472656 -26.410156 66.945312 -21.613281 62.4375 -17.5 C 58.09375 -13.570312 52.972656 -10.597656 47.078125 -8.578125 C 41.179688 -6.566406 35.34375 -6.328125 29.5625 -7.859375 C 25.695312 -8.835938 22.296875 -10.617188 19.359375 -13.203125 C 16.421875 -15.785156 13.914062 -18.769531 11.84375 -22.15625 C 9.769531 -25.550781 8.1875 -29.03125 7.09375 -32.59375 C 5.8125 -36.53125 4.953125 -41.097656 4.515625 -46.296875 C 4.078125 -51.503906 4.175781 -56.84375 4.8125 -62.3125 C 5.457031 -67.789062 6.703125 -72.929688 8.546875 -77.734375 C 10.398438 -82.546875 13.015625 -86.578125 16.390625 -89.828125 C 19.828125 -93.722656 24.046875 -96.5625 29.046875 -98.34375 C 34.046875 -100.132812 39.226562 -100.910156 44.59375 -100.671875 C 49.957031 -100.429688 55.007812 -99.132812 59.75 -96.78125 C 64.488281 -94.4375 68.375 -91.070312 71.40625 -86.6875 Z M 49.296875 -32.65625 C 52.234375 -35.695312 54.351562 -39.175781 55.65625 -43.09375 C 56.957031 -47.019531 57.6875 -51.09375 57.84375 -55.3125 C 58 -59.539062 57.707031 -63.640625 56.96875 -67.609375 C 56.21875 -71.554688 54.488281 -74.734375 51.78125 -77.140625 C 49.082031 -79.554688 45.609375 -80.613281 41.359375 -80.3125 C 39.015625 -80.195312 36.757812 -79.492188 34.59375 -78.203125 C 32.4375 -76.921875 30.679688 -75.289062 29.328125 -73.3125 C 27.804688 -70.976562 26.757812 -68.207031 26.1875 -65 C 25.625 -61.789062 25.226562 -58.820312 25 -56.09375 C 24.488281 -49.988281 25.101562 -44.023438 26.84375 -38.203125 C 27.375 -36.515625 28.066406 -34.828125 28.921875 -33.140625 C 29.773438 -31.460938 30.953125 -30.117188 32.453125 -29.109375 C 34.898438 -27.492188 37.625 -27.007812 40.625 -27.65625 C 43.632812 -28.3125 46.222656 -29.644531 48.390625 -31.65625 C 48.648438 -31.945312 48.953125 -32.28125 49.296875 -32.65625 Z M 49.296875 -32.65625 "/></g></g><g style="fill:#000000;fill-opacity:1;"><g transform="translate(528.096597, 115.275382)"><path style="stroke:none" d="M 58.203125 -36.765625 C 60.816406 -37.066406 62.925781 -36.644531 64.53125 -35.5 C 66.132812 -34.363281 67.257812 -32.8125 67.90625 -30.84375 C 68.550781 -28.875 68.648438 -26.835938 68.203125 -24.734375 C 67.765625 -22.628906 66.789062 -20.789062 65.28125 -19.21875 C 63.769531 -17.644531 61.75 -16.703125 59.21875 -16.390625 C 52.363281 -15.597656 45.640625 -14.398438 39.046875 -12.796875 C 32.460938 -11.203125 25.910156 -9.300781 19.390625 -7.09375 C 17.515625 -6.445312 15.515625 -6.453125 13.390625 -7.109375 C 11.273438 -7.773438 9.492188 -8.914062 8.046875 -10.53125 C 6.609375 -12.144531 5.921875 -14.085938 5.984375 -16.359375 C 6.546875 -27.015625 7.085938 -37.660156 7.609375 -48.296875 C 8.140625 -58.929688 8.640625 -69.570312 9.109375 -80.21875 C 9.253906 -82.75 10.054688 -84.847656 11.515625 -86.515625 C 12.984375 -88.179688 14.742188 -89.316406 16.796875 -89.921875 C 18.847656 -90.523438 20.863281 -90.625 22.84375 -90.21875 C 24.820312 -89.8125 26.457031 -88.867188 27.75 -87.390625 C 29.050781 -85.910156 29.625 -83.851562 29.46875 -81.21875 C 29.070312 -72.769531 28.675781 -64.335938 28.28125 -55.921875 C 27.882812 -47.503906 27.476562 -39.109375 27.0625 -30.734375 C 37.1875 -33.398438 47.566406 -35.410156 58.203125 -36.765625 Z M 58.203125 -36.765625 "/></g></g><g style="fill:#000000;fill-opacity:1;"><g transform="translate(604.516159, 111.507416)"><path style="stroke:none" d="M 55.21875 -31.453125 C 57.84375 -31.484375 59.984375 -30.8125 61.640625 -29.4375 C 63.296875 -28.070312 64.421875 -26.382812 65.015625 -24.375 C 65.617188 -22.363281 65.71875 -20.347656 65.3125 -18.328125 C 64.914062 -16.304688 63.957031 -14.597656 62.4375 -13.203125 C 60.914062 -11.816406 58.84375 -11.109375 56.21875 -11.078125 C 50.050781 -11.046875 43.894531 -10.71875 37.75 -10.09375 C 31.613281 -9.46875 25.488281 -8.507812 19.375 -7.21875 C 17.5 -6.851562 15.5 -6.957031 13.375 -7.53125 C 11.257812 -8.101562 9.460938 -9.125 7.984375 -10.59375 C 6.515625 -12.0625 5.894531 -14.03125 6.125 -16.5 C 7.050781 -29.0625 8.132812 -41.632812 9.375 -54.21875 C 10.613281 -66.8125 12.015625 -79.40625 13.578125 -92 C 13.765625 -93.550781 14.238281 -94.894531 15 -96.03125 C 15.65625 -97.332031 16.640625 -98.441406 17.953125 -99.359375 C 19.273438 -100.285156 20.9375 -100.847656 22.9375 -101.046875 C 32.6875 -101.796875 42.46875 -102.09375 52.28125 -101.9375 C 54.90625 -101.882812 57.046875 -101.148438 58.703125 -99.734375 C 60.367188 -98.328125 61.5 -96.617188 62.09375 -94.609375 C 62.695312 -92.597656 62.796875 -90.582031 62.390625 -88.5625 C 61.992188 -86.550781 61.03125 -84.867188 59.5 -83.515625 C 57.976562 -82.171875 55.90625 -81.523438 53.28125 -81.578125 C 46.550781 -81.703125 39.703125 -81.59375 32.734375 -81.25 C 32.421875 -78.601562 32.101562 -75.953125 31.78125 -73.296875 C 31.457031 -70.648438 31.175781 -68.007812 30.9375 -65.375 C 34.65625 -65.457031 38.238281 -65.398438 41.6875 -65.203125 C 44.414062 -65.066406 46.84375 -64.171875 48.96875 -62.515625 C 51.101562 -60.859375 52.242188 -58.535156 52.390625 -55.546875 C 52.472656 -53.816406 52.078125 -52.113281 51.203125 -50.4375 C 50.335938 -48.757812 49.15625 -47.382812 47.65625 -46.3125 C 46.164062 -45.25 44.507812 -44.757812 42.6875 -44.84375 C 38.0625 -45.082031 33.441406 -45.085938 28.828125 -44.859375 C 28.585938 -42.296875 28.347656 -39.691406 28.109375 -37.046875 C 27.878906 -34.410156 27.648438 -31.816406 27.421875 -29.265625 C 32.003906 -29.941406 36.601562 -30.457031 41.21875 -30.8125 C 45.832031 -31.175781 50.5 -31.390625 55.21875 -31.453125 Z M 55.21875 -31.453125 "/></g></g><g style="fill:#000000;fill-opacity:1;"><g transform="translate(678.221096, 107.873299)"><path style="stroke:none" d="M 67.40625 -62.796875 C 68.113281 -53.847656 68.78125 -44.851562 69.40625 -35.8125 C 70.039062 -26.78125 70.71875 -17.742188 71.4375 -8.703125 C 71.65625 -6.078125 71.125 -3.9375 69.84375 -2.28125 C 68.570312 -0.632812 66.953125 0.484375 64.984375 1.078125 C 63.015625 1.679688 61 1.78125 58.9375 1.375 C 56.875 0.976562 55.101562 0.0234375 53.625 -1.484375 C 52.144531 -2.992188 51.296875 -5.066406 51.078125 -7.703125 C 50.847656 -10.410156 50.644531 -13.097656 50.46875 -15.765625 C 50.300781 -18.429688 50.101562 -21.117188 49.875 -23.828125 L 29.46875 -23.625 C 28.90625 -20.164062 28.390625 -16.71875 27.921875 -13.28125 C 27.460938 -9.851562 27 -6.40625 26.53125 -2.9375 C 26.207031 -0.289062 25.28125 1.65625 23.75 2.90625 C 22.21875 4.164062 20.410156 4.820312 18.328125 4.875 C 16.253906 4.9375 14.257812 4.488281 12.34375 3.53125 C 10.4375 2.582031 8.914062 1.1875 7.78125 -0.65625 C 6.65625 -2.507812 6.253906 -4.753906 6.578125 -7.390625 C 7.765625 -16.347656 9.160156 -25.222656 10.765625 -34.015625 C 12.378906 -42.804688 14.835938 -51.410156 18.140625 -59.828125 C 19.753906 -63.992188 21.847656 -68.5 24.421875 -73.34375 C 26.992188 -78.195312 29.972656 -82.675781 33.359375 -86.78125 C 36.742188 -90.894531 40.5625 -93.96875 44.8125 -96 C 48.8125 -97.90625 52.101562 -98.378906 54.6875 -97.421875 C 57.269531 -96.460938 59.351562 -94.613281 60.9375 -91.875 C 62.53125 -89.144531 63.753906 -85.960938 64.609375 -82.328125 C 65.472656 -78.691406 66.101562 -75.113281 66.5 -71.59375 C 66.90625 -68.082031 67.207031 -65.148438 67.40625 -62.796875 Z M 34.03125 -44.015625 C 36.476562 -44.046875 38.878906 -44.070312 41.234375 -44.09375 C 43.597656 -44.125 45.957031 -44.148438 48.3125 -44.171875 C 48.070312 -47.148438 47.859375 -50.109375 47.671875 -53.046875 C 47.484375 -55.992188 47.273438 -58.910156 47.046875 -61.796875 C 46.890625 -62.960938 46.78125 -64.203125 46.71875 -65.515625 C 46.65625 -66.835938 46.585938 -68.175781 46.515625 -69.53125 C 45.066406 -67.644531 43.84375 -65.863281 42.84375 -64.1875 C 41.164062 -61.375 39.648438 -58.457031 38.296875 -55.4375 C 36.953125 -52.425781 35.765625 -49.40625 34.734375 -46.375 C 34.660156 -46 34.566406 -45.601562 34.453125 -45.1875 C 34.335938 -44.78125 34.195312 -44.390625 34.03125 -44.015625 Z M 34.03125 -44.015625 "/></g></g><g style="fill:#000000;fill-opacity:1;"><g transform="translate(756.676786, 104.00494)"><path style="stroke:none" d="M 76.640625 -16.578125 C 78.285156 -14.472656 79.019531 -12.441406 78.84375 -10.484375 C 78.664062 -8.535156 77.882812 -6.796875 76.5 -5.265625 C 75.125 -3.742188 73.4375 -2.640625 71.4375 -1.953125 C 69.4375 -1.265625 67.351562 -1.160156 65.1875 -1.640625 C 63.03125 -2.117188 61.128906 -3.367188 59.484375 -5.390625 C 55.140625 -10.796875 50.335938 -15.726562 45.078125 -20.1875 C 39.816406 -24.644531 34.203125 -28.632812 28.234375 -32.15625 C 28.035156 -26.789062 27.863281 -21.40625 27.71875 -16 C 27.582031 -10.59375 27.421875 -5.207031 27.234375 0.15625 C 27.179688 2.789062 26.445312 4.910156 25.03125 6.515625 C 23.613281 8.128906 21.875 9.257812 19.8125 9.90625 C 17.757812 10.550781 15.742188 10.671875 13.765625 10.265625 C 11.796875 9.867188 10.140625 8.910156 8.796875 7.390625 C 7.453125 5.867188 6.804688 3.796875 6.859375 1.171875 C 7.179688 -8.742188 7.316406 -18.828125 7.265625 -29.078125 C 7.210938 -39.335938 7.945312 -49.398438 9.46875 -59.265625 C 10.21875 -64.390625 11.832031 -69.367188 14.3125 -74.203125 C 16.789062 -79.046875 20.054688 -83.109375 24.109375 -86.390625 C 28.171875 -89.679688 33.003906 -91.601562 38.609375 -92.15625 C 42.484375 -92.519531 46.203125 -91.972656 49.765625 -90.515625 C 53.335938 -89.054688 56.414062 -86.9375 59 -84.15625 C 61.59375 -81.382812 63.410156 -78.210938 64.453125 -74.640625 C 65.492188 -71.066406 65.476562 -67.300781 64.40625 -63.34375 C 63.320312 -59.394531 61.441406 -55.628906 58.765625 -52.046875 C 56.085938 -48.460938 52.953125 -45.3125 49.359375 -42.59375 C 59.429688 -35.195312 68.523438 -26.523438 76.640625 -16.578125 Z M 38.015625 -59.984375 C 38.523438 -60.566406 39.382812 -61.453125 40.59375 -62.640625 C 41.8125 -63.835938 42.882812 -65.09375 43.8125 -66.40625 C 44.75 -67.726562 45.109375 -68.742188 44.890625 -69.453125 C 44.429688 -71.335938 43.679688 -72.34375 42.640625 -72.46875 C 41.597656 -72.601562 40.4375 -72.253906 39.15625 -71.421875 C 37.882812 -70.585938 36.644531 -69.484375 35.4375 -68.109375 C 34.226562 -66.734375 33.203125 -65.429688 32.359375 -64.203125 C 31.515625 -62.984375 30.96875 -62.09375 30.71875 -61.53125 C 30.09375 -59.425781 29.570312 -57.132812 29.15625 -54.65625 C 30.945312 -55.019531 32.546875 -55.671875 33.953125 -56.609375 C 35.359375 -57.546875 36.710938 -58.671875 38.015625 -59.984375 Z M 38.015625 -59.984375 "/></g></g><g style="fill:#000000;fill-opacity:1;"><g transform="translate(842.597983, 99.768485)"><path style="stroke:none" d="M 55.671875 -85.234375 C 55.910156 -87.773438 56.769531 -89.675781 58.25 -90.9375 C 59.738281 -92.195312 61.5 -92.875 63.53125 -92.96875 C 65.570312 -93.070312 67.570312 -92.625 69.53125 -91.625 C 71.488281 -90.632812 73.054688 -89.210938 74.234375 -87.359375 C 75.421875 -85.515625 75.890625 -83.320312 75.640625 -80.78125 C 73.160156 -55.601562 69.769531 -30.570312 65.46875 -5.6875 C 65.113281 -3.664062 64.175781 -1.984375 62.65625 -0.640625 C 61.132812 0.703125 59.335938 1.582031 57.265625 2 C 55.203125 2.425781 53.222656 2.296875 51.328125 1.609375 C 49.429688 0.929688 47.984375 -0.375 46.984375 -2.3125 C 44.648438 -7.1875 42.273438 -12.035156 39.859375 -16.859375 C 37.453125 -21.691406 35.039062 -26.503906 32.625 -31.296875 C 31.539062 -25.328125 30.515625 -19.347656 29.546875 -13.359375 C 28.585938 -7.367188 27.703125 -1.40625 26.890625 4.53125 C 26.578125 7.164062 25.632812 9.113281 24.0625 10.375 C 22.488281 11.644531 20.679688 12.304688 18.640625 12.359375 C 16.609375 12.410156 14.632812 11.957031 12.71875 11 C 10.8125 10.050781 9.289062 8.648438 8.15625 6.796875 C 7.03125 4.953125 6.664062 2.707031 7.0625 0.0625 C 9.988281 -21.6875 13.828125 -43.296875 18.578125 -64.765625 C 19.023438 -66.679688 20.035156 -68.3125 21.609375 -69.65625 C 23.179688 -71.007812 24.972656 -71.914062 26.984375 -72.375 C 29.003906 -72.84375 30.9375 -72.757812 32.78125 -72.125 C 34.625 -71.5 36.050781 -70.160156 37.0625 -68.109375 L 50.375 -41.140625 C 51.46875 -48.453125 52.441406 -55.78125 53.296875 -63.125 C 54.160156 -70.46875 54.953125 -77.835938 55.671875 -85.234375 Z M 55.671875 -85.234375 "/></g></g></g></svg>