<svg width="65" height="64" viewBox="0 0 65 64" fill="none" xmlns="http://www.w3.org/2000/svg">
<g clip-path="url(#clip0_6795_32708)">
<path d="M19.2185 2.21877L2.23048 19.2068C0.81072 20.6265 0.0117188 22.5503 0.0117188 24.5601V56.4279C0.0117188 60.6073 3.39826 64 7.58379 64H39.4517C41.4614 64 43.3852 63.201 44.805 61.7812L61.7991 44.7871C63.2189 43.3673 64.0179 41.4436 64.0179 39.4338V7.57207C64.0179 3.39268 60.6313 0 56.4458 0H24.5779C22.5681 0 20.6444 0.799001 19.2246 2.21877H19.2185Z" fill="#F05227"/>
<path d="M20.0762 12.0758H21.6362L24.3362 19.2758L27.0482 12.0758H28.6082V20.6438H27.5282V13.5158H27.5042L24.8282 20.6438H23.8562L21.1802 13.5158H21.1562V20.6438H20.0762V12.0758ZM30.5053 12.0758H36.4213V13.0358H31.6453V15.7598H36.0973V16.7198H31.6453V19.6838H36.4573V20.6438H30.5053V12.0758ZM37.8293 12.0758H39.0413L43.5533 19.0238H43.5773V12.0758H44.6573V20.6438H43.4093L38.9333 13.7678H38.9093V20.6438H37.8293V12.0758ZM46.4534 12.0758H47.5934V17.5958C47.5934 18.9878 48.3974 19.8878 49.9694 19.8878C51.4574 19.8878 52.2014 18.9878 52.2014 17.5958V12.0758H53.3414V17.6078C53.3414 19.5998 52.2254 20.8478 49.9694 20.8478C47.6294 20.8478 46.4534 19.6718 46.4534 17.6078V12.0758Z" fill="white"/>
</g>
<defs>
<clipPath id="clip0_6795_32708">
<rect width="64" height="64" fill="white" transform="translate(0.0117188)"/>
</clipPath>
</defs>
</svg>
