<svg width="299" height="299" viewBox="0 0 299 299" fill="none" xmlns="http://www.w3.org/2000/svg">
<path d="M151.016 34.0929C154.756 25.3665 167.469 26.5314 169.562 35.7711C171.328 43.5772 181.22 46.0846 186.478 40.0524C192.726 32.9149 204.471 37.9326 203.599 47.3925C202.881 55.3637 211.489 60.7978 218.377 56.6901C226.532 51.8284 236.147 60.2449 232.407 68.9713C229.245 76.3194 235.772 84.1557 243.578 82.3895C252.839 80.2725 259.367 91.2503 253.119 98.3878C247.836 104.398 251.63 113.872 259.601 114.589C269.06 115.439 271.875 127.911 263.719 132.75C256.831 136.858 257.506 147.023 264.876 150.16C273.602 153.9 272.437 166.613 263.198 168.706C255.392 170.472 252.884 180.364 258.916 185.623C266.054 191.871 261.036 203.616 251.576 202.743C243.605 202.025 238.171 210.633 242.279 217.521C247.14 225.676 238.724 235.291 229.998 231.551C222.649 228.389 214.813 234.916 216.579 242.722C218.696 251.984 207.719 258.511 200.581 252.263C194.57 246.98 185.097 250.774 184.38 258.746C183.53 268.204 171.058 271.02 166.219 262.863C162.111 255.975 151.946 256.651 148.809 264.02C145.069 272.747 132.356 271.582 130.263 262.342C128.497 254.536 118.605 252.029 113.346 258.061C107.098 265.198 95.3531 260.18 96.226 250.721C96.9437 242.749 88.3357 237.315 81.4475 241.423C73.2928 246.285 63.678 237.868 67.4179 229.142C70.5795 221.794 64.0525 213.957 56.2464 215.724C46.9852 217.841 40.4575 206.863 46.7054 199.725C51.9887 193.715 48.1943 184.241 40.2232 183.524C30.7648 182.674 27.9493 170.202 36.1057 165.363C42.9938 161.256 42.3183 151.09 34.9486 147.953C26.2222 144.213 27.3871 131.5 36.6268 129.407C44.4329 127.641 46.9403 117.749 40.9081 112.49C33.7706 106.243 38.7883 94.4974 48.2482 95.3703C56.2194 96.088 61.6535 87.48 57.5459 80.5918C52.6841 72.437 61.1006 62.8223 69.827 66.5622C77.1752 69.7237 85.0114 63.1968 83.2452 55.3907C81.1282 46.1295 92.106 39.6018 99.2435 45.8497C105.254 51.1329 114.727 47.3386 115.445 39.3675C116.295 29.9091 128.767 27.0936 133.606 35.2499C137.713 42.1381 147.879 41.4625 151.016 34.0929Z" fill="#0D5A33"/>
</svg>
