<svg width="181" height="181" viewBox="0 0 181 181" fill="none" xmlns="http://www.w3.org/2000/svg">
<path d="M96.3831 4.06527C99.5891 -2.30728 109.07 -0.849053 110.215 6.17666C111.18 12.1122 118.484 14.4475 122.705 10.1654C127.719 5.09985 136.296 9.40304 135.207 16.4575C134.302 22.4026 140.508 26.8738 145.863 24.11C152.202 20.8388 159.026 27.593 155.82 33.9656C153.111 39.331 157.645 45.5081 163.581 44.5425C170.624 43.3807 175.015 51.9138 170.001 56.9794C165.762 61.2443 168.172 68.5233 174.117 69.4281C181.171 70.5004 182.709 79.9834 176.37 83.2373C171.015 86.0011 171.054 93.656 176.437 96.3475C182.81 99.5536 181.351 109.035 174.326 110.179C168.39 111.145 166.055 118.448 170.337 122.669C175.403 127.683 171.099 136.261 164.045 135.171C158.1 134.266 153.629 140.472 156.392 145.827C159.664 152.166 152.909 158.99 146.537 155.784C141.171 153.075 134.994 157.61 135.96 163.545C137.122 170.588 128.589 174.979 123.523 169.965C119.258 165.726 111.979 168.136 111.074 174.081C110.002 181.136 100.519 182.674 97.2651 176.334C94.5013 170.98 86.8464 171.019 84.1549 176.402C80.9488 182.774 71.4678 181.316 70.3234 174.29C69.3578 168.355 62.0544 166.019 57.8332 170.301C52.8192 175.367 44.2415 171.064 45.3312 164.009C46.236 158.064 40.0301 153.593 34.6754 156.357C28.336 159.628 21.5123 152.874 24.7183 146.501C27.4273 141.136 22.8927 134.959 16.9571 135.924C9.91419 137.086 5.52339 128.553 10.5373 123.487C14.776 119.223 12.366 111.943 6.42091 111.039C-0.633473 109.966 -2.17147 100.483 4.16801 97.2296C9.52279 94.4657 9.4836 86.8108 4.10088 84.1193C-2.27167 80.9132 -0.813454 71.4322 6.21226 70.2878C12.1478 69.3222 14.4831 62.0189 10.201 57.7976C5.13544 52.7836 9.43863 44.2059 16.4931 45.2956C22.4382 46.2004 26.9094 39.9945 24.1456 34.6397C20.8745 28.3004 27.6286 21.4767 34.0012 24.6827C39.3667 27.3917 45.5437 22.8571 44.5781 16.9215C43.4162 9.8786 51.9494 5.4878 57.015 10.5017C61.2799 14.7404 68.5589 12.3304 69.4637 6.38531C70.536 -0.669073 80.019 -2.20707 83.2729 4.1324C86.0367 9.48718 93.6915 9.44799 96.3831 4.06527Z" fill="#0D5A33"/>
</svg>
