<svg width="173" height="187" viewBox="0 0 173 187" fill="none" xmlns="http://www.w3.org/2000/svg">
<path fill-rule="evenodd" clip-rule="evenodd" d="M96.3017 162.32C95.7124 159.015 91.1143 157.696 88.8631 160.187C80.2714 169.691 71.4473 174.338 63.9052 172.176C56.3627 170.013 51.3419 161.395 49.0924 148.781C48.5031 145.476 43.9049 144.157 41.6538 146.648C33.0616 156.153 24.2369 160.801 16.6944 158.638C-0.687935 153.654 -4.67765 114.386 7.78308 70.9298C20.2438 27.4741 44.4364 -3.71319 61.8187 1.2711C69.3611 3.43387 74.382 12.0518 76.6314 24.666C77.2208 27.9709 81.819 29.2894 84.0701 26.799C92.6622 17.2935 101.487 12.6457 109.03 14.8084C116.572 16.9713 121.593 25.59 123.843 38.2053C124.432 41.5102 129.03 42.8288 131.281 40.3385C139.873 30.8341 148.697 26.187 156.239 28.3497C173.621 33.334 177.611 72.6024 165.15 116.058C152.69 159.514 128.497 190.701 111.115 185.717C103.572 183.554 98.5509 174.935 96.3017 162.32Z" fill="#F05227"/>
</svg>
