<svg width="310" height="310" viewBox="0 0 310 310" fill="none" xmlns="http://www.w3.org/2000/svg">
<path fill-rule="evenodd" clip-rule="evenodd" d="M274.066 168.408C266.694 234.271 239.361 285.273 213.016 282.324C200.895 280.967 191.096 268.429 184.765 248.871C183.603 245.281 178.337 244.692 176.41 247.936C165.912 265.61 153.582 275.672 141.462 274.315C129.342 272.959 119.543 260.42 113.212 240.862C112.05 237.272 106.784 236.683 104.857 239.927C94.3584 257.601 82.0292 267.663 69.9091 266.306C43.564 263.357 28.1833 207.574 35.5554 141.711C42.9275 75.8485 70.2608 24.8466 96.6059 27.7954C108.726 29.1521 118.526 41.6909 124.857 61.249C126.019 64.8386 131.284 65.4281 133.211 62.1841C143.71 44.5099 156.039 34.4481 168.159 35.8047C180.279 37.1613 190.079 49.7 196.41 69.258C197.572 72.8476 202.838 73.437 204.764 70.1931C215.263 52.5188 227.592 42.4569 239.712 43.8135C266.058 46.7624 281.438 102.545 274.066 168.408Z" fill="#F05227"/>
</svg>
