<svg width="42" height="42" viewBox="0 0 42 42" fill="none" xmlns="http://www.w3.org/2000/svg">
<path d="M33.338 21.1245C36.0671 21.0913 38.3138 18.9261 38.41 16.1719C38.5062 13.4177 36.2892 10.955 33.4528 10.8559L31.7153 10.7953L31.776 9.05784C31.8751 6.22136 29.6553 3.84091 26.8188 3.74186C23.9823 3.64281 21.7445 5.7391 21.5244 8.45933C21.4945 5.73037 19.3261 3.48021 16.5719 3.38403C13.8177 3.28785 11.355 5.50478 11.2559 8.34126L11.1953 10.0787L9.46113 10.0181C6.62794 9.91919 4.2475 12.139 4.14845 14.9755C4.0494 17.8119 6.14569 20.0497 8.86263 20.2698C6.13684 20.3031 3.8868 22.4681 3.79062 25.2223C3.69444 27.9766 5.91136 30.4393 8.74785 30.5383L10.482 30.5989L10.4213 32.3363C10.3223 35.1728 12.5421 37.5532 15.3785 37.6523C18.215 37.7513 20.4528 35.655 20.673 32.9348C20.7029 35.6638 22.8712 37.9139 25.6254 38.0101C28.3796 38.1063 30.8423 35.8893 30.9414 33.0529L31.002 31.3154L32.7395 31.3761C35.576 31.4752 37.9564 29.2554 38.0554 26.4189C38.1545 23.5824 36.0582 21.3447 33.3413 21.1246L33.338 21.1245Z" fill="#F5A0C2"/>
</svg>
