<svg width="222" height="221" viewBox="0 0 222 221" fill="none" xmlns="http://www.w3.org/2000/svg">
<path fill-rule="evenodd" clip-rule="evenodd" d="M14.4506 123.345C6.94926 151.34 39.7734 184.459 87.7653 197.319C135.757 210.178 180.743 197.908 188.245 169.913C191.764 156.779 186.407 142.517 174.773 129.748C173.522 128.376 174.13 126.109 175.899 125.546C192.359 120.306 204.129 110.633 207.648 97.4986C215.149 69.5033 182.325 36.384 134.333 23.5246C86.3414 10.6652 41.3552 22.9352 33.8539 50.9305C30.3347 64.0647 35.6912 78.3266 47.3258 91.0951C48.5763 92.4675 47.969 94.7339 46.1998 95.2972C29.7397 100.538 17.9699 110.211 14.4506 123.345Z" fill="#F5A0C2"/>
</svg>
