<svg width="180" height="181" viewBox="0 0 180 181" fill="none" xmlns="http://www.w3.org/2000/svg">
<path d="M96.5432 4.65473C99.7759 -1.68969 109.232 -0.185701 110.338 6.83292C111.272 12.7624 118.55 15.1308 122.785 10.8781C127.816 5.84755 136.356 10.1866 135.232 17.2225C134.299 23.1521 140.47 27.6468 145.829 24.9154C152.174 21.6827 158.95 28.4593 155.717 34.8037C152.986 40.1454 157.481 46.3343 163.41 45.4007C170.446 44.2771 174.785 52.817 169.755 57.8476C165.502 62.0829 167.87 69.3609 173.8 70.2944C180.836 71.4008 182.322 80.8742 175.978 84.0896C170.619 86.821 170.619 94.4619 175.978 97.176C182.322 100.409 180.818 109.865 173.8 110.971C167.87 111.905 165.502 119.183 169.755 123.418C174.785 128.449 170.446 136.989 163.41 135.865C157.481 134.931 152.986 141.103 155.717 146.462C158.95 152.806 152.174 159.583 145.829 156.35C140.487 153.619 134.299 158.114 135.232 164.043C136.356 171.079 127.816 175.418 122.785 170.387C118.55 166.135 111.272 168.503 110.338 174.433C109.232 181.469 99.7586 182.955 96.5432 176.611C93.8118 171.252 86.1709 171.252 83.4568 176.611C80.2241 182.955 70.7679 181.451 69.6616 174.433C68.7281 168.503 61.4501 166.135 57.2147 170.387C52.1841 175.418 43.6443 171.079 44.7679 164.043C45.7014 158.114 39.5299 153.619 34.1709 156.35C27.8264 159.583 21.0498 152.806 24.2826 146.462C27.0139 141.12 22.5192 134.931 16.5897 135.865C9.55381 136.989 5.21472 128.449 10.2453 123.418C14.498 119.183 12.1296 111.905 6.2001 110.971C-0.835807 109.865 -2.3225 100.391 4.02192 97.176C9.38096 94.4446 9.38096 86.8037 4.02192 84.0896C-2.3225 80.8569 -0.818519 71.4008 6.2001 70.2944C12.1296 69.3609 14.498 62.0829 10.2453 57.8476C5.21472 52.817 9.55381 44.2771 16.5897 45.4007C22.5192 46.3343 27.0139 40.1627 24.2826 34.8037C21.0498 28.4593 27.8264 21.6827 34.1709 24.9154C39.5126 27.6468 45.7014 23.1521 44.7679 17.2225C43.6443 10.1866 52.1841 5.84755 57.2147 10.8781C61.4501 15.1308 68.7281 12.7624 69.6616 6.83292C70.7679 -0.202989 80.2413 -1.68969 83.4568 4.65473C86.1882 10.0138 93.8291 10.0138 96.5432 4.65473Z" fill="#5ECAE4"/>
</svg>
