<svg width="204" height="206" viewBox="0 0 204 206" fill="none" xmlns="http://www.w3.org/2000/svg">
<path d="M175.046 75.7542C173.54 82.5702 175.39 89.7511 179.98 95.0121C200.946 119.044 209.509 144 199.827 160.975C190.055 178.106 164.032 183.013 132.598 176.381C125.89 174.966 118.897 176.841 113.797 181.423C89.8772 202.911 64.8676 211.689 47.8289 201.733C30.9515 191.871 25.891 165.963 32.0417 134.655C33.3881 127.801 31.3989 120.654 26.6836 115.504C3.90953 90.6267 -5.72295 64.3776 4.33567 46.7438C14.3046 29.2672 41.1857 24.5122 73.4717 31.7519C80.3273 33.2891 87.5158 31.3641 92.686 26.6069C117.014 4.22168 142.652 -5.08458 160.014 5.0604C177.537 15.2995 182.322 42.8354 175.046 75.7542Z" fill="#F9C130"/>
</svg>
