<svg width="190" height="178" viewBox="0 0 190 178" fill="none" xmlns="http://www.w3.org/2000/svg">
<path fill-rule="evenodd" clip-rule="evenodd" d="M117.155 171.255C71.8104 183.405 30.619 176.713 25.1515 156.308C23.133 148.774 26.2658 140.425 33.3031 132.278C34.8339 130.506 34.0628 127.628 31.8511 126.859C21.6829 123.322 14.7953 117.658 12.7767 110.124C10.8683 103.002 13.5647 95.15 19.8122 87.429C21.2326 85.6736 20.5003 82.9407 18.3925 82.1306C9.12148 78.5678 2.86041 73.1161 0.951943 65.9936C-4.51558 45.5886 27.8112 19.1974 73.1558 7.04736C118.5 -5.1027 159.692 1.58932 165.159 21.9944C167.068 29.1169 164.371 36.9688 158.124 44.6897C156.703 46.4451 157.436 49.1781 159.544 49.9881C168.815 53.5509 175.076 59.0026 176.984 66.1251C179.003 73.6584 175.87 82.0076 168.832 90.1549C167.302 91.927 168.073 94.8045 170.285 95.5739C180.453 99.1109 187.34 104.775 189.359 112.308C194.826 132.714 162.5 159.105 117.155 171.255Z" fill="#F9C130"/>
</svg>
