<svg width="81" height="81" viewBox="0 0 81 81" fill="none" xmlns="http://www.w3.org/2000/svg">
<path d="M43.4081 2.5883C44.8449 -0.231443 49.0476 0.436997 49.5393 3.55638C49.9542 6.19173 53.1888 7.24433 55.0712 5.35426C57.307 3.11844 61.1025 5.04693 60.6031 8.174C60.1882 10.8093 62.9312 12.807 65.313 11.593C68.1327 10.1563 71.1445 13.1681 69.7078 15.9878C68.4938 18.3619 70.4914 21.1125 73.1268 20.6976C76.2539 20.1982 78.1823 23.9937 75.9465 26.2296C74.0564 28.112 75.109 31.3466 77.7444 31.7615C80.8715 32.2532 81.5322 36.4636 78.7125 37.8927C76.3307 39.1066 76.3307 42.5026 78.7125 43.7089C81.5322 45.1456 80.8638 49.3484 77.7444 49.8401C75.109 50.255 74.0564 53.4896 75.9465 55.372C78.1823 57.6078 76.2539 61.4033 73.1268 60.9039C70.4914 60.489 68.4938 63.2319 69.7078 65.6137C71.1445 68.4335 68.1327 71.4453 65.313 70.0086C62.9388 68.7946 60.1882 70.7922 60.6031 73.4276C61.1025 76.5546 57.307 78.4831 55.0712 76.2473C53.1888 74.3573 49.9542 75.4099 49.5393 78.0452C49.0476 81.1723 44.8372 81.833 43.4081 79.0133C42.1941 76.6315 38.7982 76.6315 37.5919 79.0133C36.1551 81.833 31.9524 81.1646 31.4607 78.0452C31.0458 75.4099 27.8112 74.3573 25.9288 76.2473C23.693 78.4831 19.8974 76.5546 20.3969 73.4276C20.8118 70.7922 18.0688 68.7946 15.6871 70.0086C12.8673 71.4453 9.85549 68.4335 11.2923 65.6137C12.5062 63.2396 10.5086 60.489 7.87321 60.9039C4.74614 61.4033 2.81765 57.6078 5.05347 55.372C6.94354 53.4896 5.89094 50.255 3.2556 49.8401C0.12853 49.3484 -0.532222 45.138 2.28752 43.7089C4.66932 42.4949 4.66932 39.099 2.28752 37.8927C-0.532222 36.4559 0.136214 32.2532 3.2556 31.7615C5.89094 31.3466 6.94354 28.112 5.05347 26.2296C2.81765 23.9937 4.74614 20.1982 7.87321 20.6976C10.5086 21.1125 12.5062 18.3696 11.2923 15.9878C9.85549 13.1681 12.8673 10.1563 15.6871 11.593C18.0612 12.807 20.8118 10.8093 20.3969 8.174C19.8974 5.04693 23.693 3.11844 25.9288 5.35426C27.8112 7.24433 31.0458 6.19173 31.4607 3.55638C31.9524 0.429314 36.1628 -0.231443 37.5919 2.5883C38.8059 4.9701 42.2018 4.9701 43.4081 2.5883Z" fill="#F7EFC4"/>
</svg>
