<svg width="204" height="206" viewBox="0 0 204 206" fill="none" xmlns="http://www.w3.org/2000/svg">
<path d="M177.325 115.126C172.612 120.275 170.624 127.419 171.968 134.27C178.11 165.566 173.047 191.46 156.175 201.319C139.147 211.269 114.157 202.508 90.2496 181.047C85.1483 176.468 78.1541 174.595 71.4472 176.013C39.9874 182.662 13.9396 177.759 4.16175 160.618C-5.52356 143.638 3.04775 118.671 24.0287 94.6328C28.6215 89.3707 30.4722 82.1868 28.964 75.3685C21.6796 42.4373 26.4621 14.8887 43.99 4.64672C61.3617 -5.50401 87.0189 3.81857 111.36 26.2313C116.528 30.9904 123.716 32.9176 130.572 31.3828C162.834 24.1608 189.69 28.9203 199.653 46.387C209.709 64.0159 200.085 90.255 177.325 115.126Z" fill="#F5A0C2"/>
</svg>
