<svg width="36" height="35" viewBox="0 0 36 35" fill="none" xmlns="http://www.w3.org/2000/svg">
<path d="M18.8002 1.20587C19.3734 -0.0233436 21.1835 0.200096 21.4408 1.52881C21.6579 2.65135 23.0591 3.05381 23.837 2.21611C24.7612 1.22505 26.4157 1.99427 26.2486 3.3411C26.1103 4.47605 27.315 5.29063 28.317 4.73506C29.5032 4.07751 30.8383 5.32245 30.2651 6.55167C29.7806 7.58668 30.6774 8.73491 31.7999 8.51779C33.1318 8.25712 34.0146 9.85393 33.0904 10.845C32.309 11.6795 32.8082 13.0492 33.9432 13.1875C35.2899 13.3513 35.6359 15.1448 34.4495 15.7991C33.4475 16.3546 33.4983 17.8092 34.5365 18.2902C35.7657 18.8634 35.5423 20.6735 34.2136 20.9307C33.091 21.1479 32.6886 22.549 33.5263 23.327C34.5173 24.2512 33.7481 25.9057 32.4013 25.7386C31.2663 25.6003 30.4517 26.805 31.0073 27.807C31.6649 28.9932 30.4199 30.3282 29.1907 29.755C28.1557 29.2706 27.0075 30.1673 27.2246 31.2899C27.4852 32.6218 25.8884 33.5045 24.8974 32.5803C24.0629 31.799 22.6932 32.2982 22.5549 33.4331C22.391 34.7798 20.5976 35.1258 19.9433 33.9395C19.3877 32.9375 17.9332 32.9883 17.4522 34.0265C16.879 35.2557 15.0689 35.0322 14.8116 33.7035C14.5945 32.581 13.1933 32.1785 12.4154 33.0162C11.4912 34.0073 9.83668 33.2381 10.0038 31.8912C10.1421 30.7563 8.93741 29.9417 7.93541 30.4973C6.74918 31.1548 5.41414 29.9099 5.98734 28.6807C6.47178 27.6457 5.57503 26.4974 4.45249 26.7145C3.1206 26.9752 2.23784 25.3784 3.16202 24.3873C3.94341 23.5528 3.44419 22.1831 2.30924 22.0449C0.962526 21.881 0.616544 20.0875 1.80289 19.4333C2.80489 18.8777 2.75409 17.4232 1.7159 16.9421C0.486688 16.3689 0.710126 14.5589 2.03884 14.3016C3.16138 14.0845 3.56383 12.6833 2.72614 11.9053C1.73508 10.9812 2.5043 9.32665 3.85113 9.49378C4.98608 9.63207 5.80066 8.42737 5.24509 7.42538C4.58754 6.23915 5.83248 4.90411 7.0617 5.47731C8.09671 5.96175 9.24494 5.065 9.02782 3.94246C8.76714 2.61057 10.364 1.72781 11.355 2.652C12.1895 3.43338 13.5592 2.93416 13.6975 1.79921C13.8613 0.452496 15.6548 0.106513 16.3091 1.29286C16.8647 2.29485 18.3192 2.24406 18.8002 1.20587Z" fill="#0D5A33"/>
</svg>
