<svg width="289" height="48" viewBox="0 0 289 48" fill="none" xmlns="http://www.w3.org/2000/svg">
<path d="M41.6614 24C45.4782 23.8202 48.5159 20.6814 48.5159 16.8235C48.5159 12.9656 45.2938 9.62858 41.3203 9.62858H38.8864V7.19494C38.8864 3.22182 35.6643 0 31.6908 0C27.7173 0 24.6888 3.04206 24.5136 6.85846C24.3384 3.04206 21.1947 0 17.3364 0C13.4782 0 10.1408 3.22182 10.1408 7.19494V9.62858H7.71152C3.74263 9.62858 0.520508 12.8504 0.520508 16.8235C0.520508 20.7966 3.56286 23.8249 7.37502 24C3.56286 24.1798 0.520508 27.3186 0.520508 31.1765C0.520508 35.0344 3.74263 38.3714 7.71613 38.3714H10.1454V40.8051C10.1454 44.7782 13.3675 48 17.341 48C21.3145 48 24.343 44.9579 24.5182 41.1415C24.6934 44.9579 27.8371 48 31.6954 48C35.5536 48 38.891 44.7782 38.891 40.8051V38.3714H41.3249C45.2984 38.3714 48.5205 35.1496 48.5205 31.1765C48.5205 27.2034 45.4782 24.1751 41.666 24H41.6614Z" fill="#2172B9"/>
<path d="M281.661 24C285.478 23.8202 288.516 20.6814 288.516 16.8235C288.516 12.9656 285.294 9.62858 281.32 9.62858H278.886V7.19494C278.886 3.22182 275.664 0 271.691 0C267.717 0 264.689 3.04206 264.514 6.85846C264.338 3.04206 261.195 0 257.336 0C253.478 0 250.141 3.22182 250.141 7.19494V9.62858H247.712C243.743 9.62858 240.521 12.8504 240.521 16.8235C240.521 20.7966 243.563 23.8249 247.375 24C243.563 24.1798 240.521 27.3186 240.521 31.1765C240.521 35.0344 243.743 38.3714 247.716 38.3714H250.145V40.8051C250.145 44.7782 253.368 48 257.341 48C261.315 48 264.343 44.9579 264.518 41.1415C264.693 44.9579 267.837 48 271.695 48C275.554 48 278.891 44.7782 278.891 40.8051V38.3714H281.325C285.298 38.3714 288.521 35.1496 288.521 31.1765C288.521 27.2034 285.478 24.1751 281.666 24H281.661Z" fill="#2172B9"/>
</svg>
