<svg width="695" height="360" viewBox="0 0 695 360" fill="none" xmlns="http://www.w3.org/2000/svg">
<path fill-rule="evenodd" clip-rule="evenodd" d="M694.149 0H0.154297V360.01H694.149V0ZM505.501 95.5694C508.507 129.787 490.169 160.058 462.327 174.601H462.357C457.955 176.908 457.955 183.102 462.357 185.41C490.199 199.953 508.538 230.223 505.532 264.441C502.131 303.091 470.859 334.394 432.208 337.765C397.991 340.77 367.72 322.432 353.177 294.59C350.869 290.188 344.675 290.188 342.368 294.59C327.825 322.432 297.554 340.77 263.337 337.765C224.686 334.364 193.383 303.091 190.013 264.441C187.007 230.223 205.346 199.922 233.187 185.379C237.59 183.072 237.59 176.878 233.187 174.57C205.346 160.027 187.007 129.757 190.013 95.539C193.383 56.8886 224.656 25.616 263.306 22.2459C297.524 19.2401 327.794 37.5785 342.368 65.4202C344.675 69.8226 350.869 69.8226 353.177 65.4202C367.72 37.5785 397.991 19.2401 432.208 22.2459C470.828 25.616 502.131 56.8886 505.501 95.5694Z" fill="#F9C130"/>
</svg>
